<?xml version="1.0" encoding="utf-8" standalone="no"?>
<!DOCTYPE svg PUBLIC "-//W3C//DTD SVG 1.1//EN"
  "http://www.w3.org/Graphics/SVG/1.1/DTD/svg11.dtd">
<svg xmlns:xlink="http://www.w3.org/1999/xlink" width="375.588223pt" height="121.090345pt" viewBox="0 0 375.588223 121.090345" xmlns="http://www.w3.org/2000/svg" version="1.1">
 <metadata>
  <rdf:RDF xmlns:dc="http://purl.org/dc/elements/1.1/" xmlns:cc="http://creativecommons.org/ns#" xmlns:rdf="http://www.w3.org/1999/02/22-rdf-syntax-ns#">
   <cc:Work>
    <dc:type rdf:resource="http://purl.org/dc/dcmitype/StillImage"/>
    <dc:format>image/svg+xml</dc:format>
    <dc:creator>
     <cc:Agent>
      <dc:title>Matplotlib v3.10.8, https://matplotlib.org/</dc:title>
     </cc:Agent>
    </dc:creator>
   </cc:Work>
  </rdf:RDF>
 </metadata>
 <defs>
  <style type="text/css">*{stroke-linejoin: round; stroke-linecap: butt}</style>
 </defs>
 <g id="figure_1">
  <g id="patch_1">
   <path d="M 0 121.090345 
L 375.588223 121.090345 
L 375.588223 -0 
L 0 -0 
z
" style="fill: #ffffff"/>
  </g>
  <g id="axes_1">
   <g id="line2d_1">
    <path d="M 51.578088 96.793853 
L 51.578088 18.623658 
" clip-path="url(#pc3d739266a)" style="fill: none; stroke-dasharray: 2.4,1.6; stroke-dashoffset: 0; stroke: #1f4e79; stroke-opacity: 0.45; stroke-width: 0.8"/>
   </g>
   <g id="line2d_2">
    <path d="M 105.119318 96.793853 
L 105.119318 18.623658 
" clip-path="url(#pc3d739266a)" style="fill: none; stroke-dasharray: 2.4,1.6; stroke-dashoffset: 0; stroke: #1f4e79; stroke-opacity: 0.45; stroke-width: 0.8"/>
   </g>
   <g id="line2d_3">
    <path d="M 158.660547 96.793853 
L 158.660547 18.623658 
" clip-path="url(#pc3d739266a)" style="fill: none; stroke-dasharray: 2.4,1.6; stroke-dashoffset: 0; stroke: #1f4e79; stroke-opacity: 0.45; stroke-width: 0.8"/>
   </g>
   <g id="line2d_4">
    <path d="M 35.51572 85.014783 
L 172.045855 85.014783 
" clip-path="url(#pc3d739266a)" style="fill: none; stroke-dasharray: 2.4,1.6; stroke-dashoffset: 0; stroke: #1f4e79; stroke-opacity: 0.45; stroke-width: 0.8"/>
   </g>
   <g id="line2d_5">
    <path d="M 35.51572 31.473553 
L 172.045855 31.473553 
" clip-path="url(#pc3d739266a)" style="fill: none; stroke-dasharray: 2.4,1.6; stroke-dashoffset: 0; stroke: #1f4e79; stroke-opacity: 0.45; stroke-width: 0.8"/>
   </g>
   <g id="patch_2">
    <path d="M 51.578088 85.014783 
L 105.119318 85.014783 
L 105.119318 31.473553 
L 51.578088 31.473553 
z
" clip-path="url(#pc3d739266a)" style="fill: #e4ecf4"/>
   </g>
   <g id="line2d_6">
    <path d="M 78.348703 58.244168 
L 131.889933 58.244168 
" clip-path="url(#pc3d739266a)" style="fill: none; stroke: #2e5a3f; stroke-width: 1.3; stroke-linecap: round"/>
   </g>
   <g id="line2d_7">
    <path d="M 51.578088 85.014783 
L 105.119318 85.014783 
" clip-path="url(#pc3d739266a)" style="fill: none; stroke: #1f4e79; stroke-width: 2; stroke-linecap: round"/>
   </g>
   <g id="line2d_8">
    <path d="M 105.119318 85.014783 
L 105.119318 31.473553 
" clip-path="url(#pc3d739266a)" style="fill: none; stroke: #1f4e79; stroke-width: 2; stroke-linecap: round"/>
   </g>
   <g id="line2d_9">
    <path d="M 105.119318 31.473553 
L 51.578088 31.473553 
" clip-path="url(#pc3d739266a)" style="fill: none; stroke: #1f4e79; stroke-width: 2; stroke-linecap: round"/>
   </g>
   <g id="line2d_10">
    <path d="M 51.578088 31.473553 
L 51.578088 85.014783 
" clip-path="url(#pc3d739266a)" style="fill: none; stroke: #1f4e79; stroke-width: 2; stroke-linecap: round"/>
   </g>
   <g id="line2d_11">
    <path d="M 51.578088 104.289625 
L 51.578088 101.612564 
" clip-path="url(#pc3d739266a)" style="fill: none; stroke: #8a948d; stroke-width: 0.9; stroke-linecap: round"/>
   </g>
   <g id="line2d_12">
    <path d="M 78.348703 104.289625 
L 78.348703 101.612564 
" clip-path="url(#pc3d739266a)" style="fill: none; stroke: #8a948d; stroke-width: 0.9; stroke-linecap: round"/>
   </g>
   <g id="line2d_13">
    <path d="M 105.119318 104.289625 
L 105.119318 101.612564 
" clip-path="url(#pc3d739266a)" style="fill: none; stroke: #8a948d; stroke-width: 0.9; stroke-linecap: round"/>
   </g>
   <g id="line2d_14">
    <path d="M 131.889933 104.289625 
L 131.889933 101.612564 
" clip-path="url(#pc3d739266a)" style="fill: none; stroke: #8a948d; stroke-width: 0.9; stroke-linecap: round"/>
   </g>
   <g id="line2d_15">
    <path d="M 25.878298 85.014783 
L 28.55536 85.014783 
" clip-path="url(#pc3d739266a)" style="fill: none; stroke: #8a948d; stroke-width: 0.9; stroke-linecap: round"/>
   </g>
   <g id="line2d_16">
    <path d="M 25.878298 58.244168 
L 28.55536 58.244168 
" clip-path="url(#pc3d739266a)" style="fill: none; stroke: #8a948d; stroke-width: 0.9; stroke-linecap: round"/>
   </g>
   <g id="line2d_17">
    <path d="M 25.878298 31.473553 
L 28.55536 31.473553 
" clip-path="url(#pc3d739266a)" style="fill: none; stroke: #8a948d; stroke-width: 0.9; stroke-linecap: round"/>
   </g>
   <g id="patch_3">
    <path d="M 64.427984 85.014783 
Q 67.640457 85.014783 70.852931 85.014783 
" clip-path="url(#pc3d739266a)" style="fill: none"/>
    <path d="M 65.652931 82.414783 
L 70.852931 85.014783 
L 65.652931 87.614783 
z
" clip-path="url(#pc3d739266a)" style="fill: #1f4e79"/>
   </g>
   <g id="patch_4">
    <path d="M 105.119318 72.164888 
Q 105.119318 68.952414 105.119318 65.73994 
" clip-path="url(#pc3d739266a)" style="fill: none"/>
    <path d="M 102.519318 70.93994 
L 105.119318 65.73994 
L 107.719318 70.93994 
z
" clip-path="url(#pc3d739266a)" style="fill: #1f4e79"/>
   </g>
   <g id="patch_5">
    <path d="M 92.269423 31.473553 
Q 89.056949 31.473553 85.844475 31.473553 
" clip-path="url(#pc3d739266a)" style="fill: none"/>
    <path d="M 91.044475 34.073553 
L 85.844475 31.473553 
L 91.044475 28.873553 
z
" clip-path="url(#pc3d739266a)" style="fill: #1f4e79"/>
   </g>
   <g id="patch_6">
    <path d="M 51.578088 44.323448 
Q 51.578088 47.535922 51.578088 50.748396 
" clip-path="url(#pc3d739266a)" style="fill: none"/>
    <path d="M 54.178088 45.548396 
L 51.578088 50.748396 
L 48.978088 45.548396 
z
" clip-path="url(#pc3d739266a)" style="fill: #1f4e79"/>
   </g>
   <g id="patch_7">
    <path d="M 51.578088 86.888726 
C 52.075064 86.888726 52.551752 86.691275 52.903166 86.33986 
C 53.254581 85.988446 53.452031 85.511758 53.452031 85.014783 
C 53.452031 84.517807 53.254581 84.04112 52.903166 83.689705 
C 52.551752 83.33829 52.075064 83.14084 51.578088 83.14084 
C 51.081113 83.14084 50.604425 83.33829 50.253011 83.689705 
C 49.901596 84.04112 49.704145 84.517807 49.704145 85.014783 
C 49.704145 85.511758 49.901596 85.988446 50.253011 86.33986 
C 50.604425 86.691275 51.081113 86.888726 51.578088 86.888726 
z
" clip-path="url(#pc3d739266a)" style="fill: #ffffff; stroke: #1f4e79; stroke-width: 1.3; stroke-linejoin: miter"/>
   </g>
   <g id="patch_8">
    <path d="M 51.578088 33.347496 
C 52.075064 33.347496 52.551752 33.150046 52.903166 32.798631 
C 53.254581 32.447216 53.452031 31.970529 53.452031 31.473553 
C 53.452031 30.976578 53.254581 30.49989 52.903166 30.148475 
C 52.551752 29.797061 52.075064 29.59961 51.578088 29.59961 
C 51.081113 29.59961 50.604425 29.797061 50.253011 30.148475 
C 49.901596 30.49989 49.704145 30.976578 49.704145 31.473553 
C 49.704145 31.970529 49.901596 32.447216 50.253011 32.798631 
C 50.604425 33.150046 51.081113 33.347496 51.578088 33.347496 
z
" clip-path="url(#pc3d739266a)" style="fill: #ffffff; stroke: #1f4e79; stroke-width: 1.3; stroke-linejoin: miter"/>
   </g>
   <g id="patch_9">
    <path d="M 105.119318 86.888726 
C 105.616293 86.888726 106.092981 86.691275 106.444396 86.33986 
C 106.79581 85.988446 106.993261 85.511758 106.993261 85.014783 
C 106.993261 84.517807 106.79581 84.04112 106.444396 83.689705 
C 106.092981 83.33829 105.616293 83.14084 105.119318 83.14084 
C 104.622342 83.14084 104.145655 83.33829 103.79424 83.689705 
C 103.442825 84.04112 103.245375 84.517807 103.245375 85.014783 
C 103.245375 85.511758 103.442825 85.988446 103.79424 86.33986 
C 104.145655 86.691275 104.622342 86.888726 105.119318 86.888726 
z
" clip-path="url(#pc3d739266a)" style="fill: #ffffff; stroke: #1f4e79; stroke-width: 1.3; stroke-linejoin: miter"/>
   </g>
   <g id="patch_10">
    <path d="M 105.119318 33.347496 
C 105.616293 33.347496 106.092981 33.150046 106.444396 32.798631 
C 106.79581 32.447216 106.993261 31.970529 106.993261 31.473553 
C 106.993261 30.976578 106.79581 30.49989 106.444396 30.148475 
C 106.092981 29.797061 105.616293 29.59961 105.119318 29.59961 
C 104.622342 29.59961 104.145655 29.797061 103.79424 30.148475 
C 103.442825 30.49989 103.245375 30.976578 103.245375 31.473553 
C 103.245375 31.970529 103.442825 32.447216 103.79424 32.798631 
C 104.145655 33.150046 104.622342 33.347496 105.119318 33.347496 
z
" clip-path="url(#pc3d739266a)" style="fill: #ffffff; stroke: #1f4e79; stroke-width: 1.3; stroke-linejoin: miter"/>
   </g>
   <g id="patch_11">
    <path d="M 158.660547 86.888726 
C 159.157523 86.888726 159.63421 86.691275 159.985625 86.33986 
C 160.33704 85.988446 160.53449 85.511758 160.53449 85.014783 
C 160.53449 84.517807 160.33704 84.04112 159.985625 83.689705 
C 159.63421 83.33829 159.157523 83.14084 158.660547 83.14084 
C 158.163572 83.14084 157.686884 83.33829 157.335469 83.689705 
C 156.984055 84.04112 156.786604 84.517807 156.786604 85.014783 
C 156.786604 85.511758 156.984055 85.988446 157.335469 86.33986 
C 157.686884 86.691275 158.163572 86.888726 158.660547 86.888726 
z
" clip-path="url(#pc3d739266a)" style="fill: #ffffff; stroke: #1f4e79; stroke-width: 1.3; stroke-linejoin: miter"/>
   </g>
   <g id="patch_12">
    <path d="M 158.660547 33.347496 
C 159.157523 33.347496 159.63421 33.150046 159.985625 32.798631 
C 160.33704 32.447216 160.53449 31.970529 160.53449 31.473553 
C 160.53449 30.976578 160.33704 30.49989 159.985625 30.148475 
C 159.63421 29.797061 159.157523 29.59961 158.660547 29.59961 
C 158.163572 29.59961 157.686884 29.797061 157.335469 30.148475 
C 156.984055 30.49989 156.786604 30.976578 156.786604 31.473553 
C 156.786604 31.970529 156.984055 32.447216 157.335469 32.798631 
C 157.686884 33.150046 158.163572 33.347496 158.660547 33.347496 
z
" clip-path="url(#pc3d739266a)" style="fill: #ffffff; stroke: #1f4e79; stroke-width: 1.3; stroke-linejoin: miter"/>
   </g>
   <g id="patch_13">
    <path d="M 25.878298 104.289625 
Q 95.481897 104.289625 164.079264 104.289625 
" clip-path="url(#pc3d739266a)" style="fill: none; stroke: #8a948d; stroke-width: 0.9; stroke-linecap: round"/>
    <path d="M 160.879264 102.689625 
L 164.079264 104.289625 
L 160.879264 105.889625 
z
" clip-path="url(#pc3d739266a)" style="fill: #8a948d; stroke: #8a948d; stroke-width: 0.9; stroke-linecap: round"/>
   </g>
   <g id="patch_14">
    <path d="M 25.878298 104.289625 
Q 25.878298 58.244168 25.878298 13.204941 
" clip-path="url(#pc3d739266a)" style="fill: none; stroke: #8a948d; stroke-width: 0.9; stroke-linecap: round"/>
    <path d="M 24.278298 16.404941 
L 25.878298 13.204941 
L 27.478298 16.404941 
z
" clip-path="url(#pc3d739266a)" style="fill: #8a948d; stroke: #8a948d; stroke-width: 0.9; stroke-linecap: round"/>
   </g>
   <g id="text_1">
    <!-- $P_{12}(0)$ -->
    <g style="fill: #2e5a3f" transform="translate(107.022537 50.284537) scale(0.095 -0.095)">
     <defs>
      <path id="STIXGeneral-Italic-50" d="M 934 4179 
L 2477 4179 
Q 3872 4179 3872 3232 
Q 3872 2976 3753 2729 
Q 3635 2483 3437 2317 
Q 2995 1952 2125 1952 
Q 1773 1952 1549 2003 
L 1210 768 
Q 1120 422 1120 365 
Q 1120 250 1216 189 
Q 1312 128 1562 102 
L 1562 0 
L 0 0 
L 0 102 
Q 275 141 361 227 
Q 448 314 538 627 
L 1280 3277 
Q 1389 3667 1389 3808 
Q 1389 3936 1299 3990 
Q 1210 4045 934 4077 
L 934 4179 
z
M 2048 3789 
L 1606 2221 
Q 1792 2189 1939 2189 
Q 2496 2189 2758 2342 
Q 3213 2598 3213 3200 
Q 3213 3987 2381 3987 
Q 2099 3987 2048 3789 
z
" transform="scale(0.015625)"/>
      <path id="STIXGeneral-Regular-31" d="M 2522 0 
L 755 0 
L 755 96 
Q 1107 115 1235 227 
Q 1363 339 1363 608 
L 1363 3482 
Q 1363 3795 1171 3795 
Q 1082 3795 883 3718 
L 710 3654 
L 710 3744 
L 1856 4326 
L 1914 4307 
L 1914 486 
Q 1914 275 2042 185 
Q 2170 96 2522 96 
L 2522 0 
z
" transform="scale(0.015625)"/>
      <path id="STIXGeneral-Regular-32" d="M 3034 877 
L 2688 0 
L 186 0 
L 186 77 
L 1325 1286 
Q 1773 1754 1965 2144 
Q 2157 2534 2157 2950 
Q 2157 3379 1920 3616 
Q 1683 3853 1267 3853 
Q 922 3853 720 3673 
Q 518 3494 326 3021 
L 192 3053 
Q 301 3648 630 3987 
Q 960 4326 1523 4326 
Q 2054 4326 2380 4006 
Q 2707 3686 2707 3200 
Q 2707 2477 1888 1613 
L 832 486 
L 2330 486 
Q 2541 486 2665 569 
Q 2790 653 2944 915 
L 3034 877 
z
" transform="scale(0.015625)"/>
      <path id="STIXGeneral-Regular-28" d="M 1946 -1030 
L 1869 -1133 
Q 1126 -710 716 32 
Q 307 774 307 1613 
Q 307 3386 1888 4326 
L 1946 4224 
Q 1293 3667 1075 3126 
Q 858 2586 858 1632 
Q 858 685 1082 96 
Q 1306 -493 1946 -1030 
z
" transform="scale(0.015625)"/>
      <path id="STIXGeneral-Regular-30" d="M 3046 2112 
Q 3046 1683 2963 1302 
Q 2880 922 2717 602 
Q 2554 282 2266 96 
Q 1978 -90 1600 -90 
Q 1210 -90 915 108 
Q 621 307 461 640 
Q 301 973 227 1350 
Q 154 1728 154 2150 
Q 154 2746 301 3222 
Q 448 3699 790 4012 
Q 1133 4326 1626 4326 
Q 2253 4326 2649 3712 
Q 3046 3098 3046 2112 
z
M 2432 2080 
Q 2432 3091 2217 3625 
Q 2003 4160 1587 4160 
Q 1190 4160 979 3622 
Q 768 3085 768 2106 
Q 768 1120 979 598 
Q 1190 77 1600 77 
Q 2003 77 2217 598 
Q 2432 1120 2432 2080 
z
" transform="scale(0.015625)"/>
      <path id="STIXGeneral-Regular-29" d="M 186 4224 
L 262 4326 
Q 992 3891 1408 3148 
Q 1824 2406 1824 1581 
Q 1824 -166 243 -1133 
L 186 -1030 
Q 845 -486 1059 54 
Q 1274 595 1274 1562 
Q 1274 2534 1059 3120 
Q 845 3706 186 4224 
z
" transform="scale(0.015625)"/>
     </defs>
     <use xlink:href="#STIXGeneral-Italic-50" transform="translate(0 0.40625)"/>
     <use xlink:href="#STIXGeneral-Regular-31" transform="translate(61.099991 -12.821875) scale(0.7)"/>
     <use xlink:href="#STIXGeneral-Regular-32" transform="translate(96.09998 -12.821875) scale(0.7)"/>
     <use xlink:href="#STIXGeneral-Regular-28" transform="translate(135.509344 0.40625)"/>
     <use xlink:href="#STIXGeneral-Regular-30" transform="translate(168.809332 0.40625)"/>
     <use xlink:href="#STIXGeneral-Regular-29" transform="translate(218.809317 0.40625)"/>
    </g>
   </g>
   <g id="patch_15">
    <path d="M 78.348703 62.795172 
C 79.555644 62.795172 80.713313 62.31565 81.566749 61.462214 
C 82.420185 60.608778 82.899708 59.451108 82.899708 58.244168 
C 82.899708 57.037227 82.420185 55.879558 81.566749 55.026122 
C 80.713313 54.172686 79.555644 53.693163 78.348703 53.693163 
C 77.141763 53.693163 75.984093 54.172686 75.130657 55.026122 
C 74.277221 55.879558 73.797699 57.037227 73.797699 58.244168 
C 73.797699 59.451108 74.277221 60.608778 75.130657 61.462214 
C 75.984093 62.31565 77.141763 62.795172 78.348703 62.795172 
z
" clip-path="url(#pc3d739266a)" style="fill: #ffffff; stroke: #b4583a; stroke-width: 1.5; stroke-linejoin: miter"/>
   </g>
   <g id="patch_16">
    <path d="M 131.889933 62.795172 
C 133.096873 62.795172 134.254543 62.31565 135.107979 61.462214 
C 135.961414 60.608778 136.440937 59.451108 136.440937 58.244168 
C 136.440937 57.037227 135.961414 55.879558 135.107979 55.026122 
C 134.254543 54.172686 133.096873 53.693163 131.889933 53.693163 
C 130.682992 53.693163 129.525322 54.172686 128.671886 55.026122 
C 127.818451 55.879558 127.338928 57.037227 127.338928 58.244168 
C 127.338928 59.451108 127.818451 60.608778 128.671886 61.462214 
C 129.525322 62.31565 130.682992 62.795172 131.889933 62.795172 
z
" clip-path="url(#pc3d739266a)" style="fill: #ffffff; stroke: #2e5a3f; stroke-width: 1.5; stroke-linejoin: miter"/>
   </g>
   <g id="text_2">
    <!-- $\ell_1(0)$ -->
    <g style="fill: #b4583a" transform="translate(67.648703 72.352926) scale(0.1 -0.1)">
     <defs>
      <path id="STIXGeneral-Italic-2113" d="M 493 2490 
L 582 2656 
Q 813 2496 1184 2496 
Q 1728 3296 2301 3846 
Q 2874 4397 3245 4397 
Q 3654 4397 3654 3968 
Q 3654 3450 3036 2938 
Q 2419 2426 1594 2304 
Q 678 826 678 397 
Q 678 122 909 122 
Q 1120 122 1398 365 
Q 1677 608 2182 1190 
L 2317 1082 
Q 1773 448 1462 189 
Q 1152 -70 864 -70 
Q 627 -70 467 74 
Q 307 218 307 486 
Q 307 1024 800 1882 
Q 877 2022 1056 2304 
Q 742 2317 493 2490 
z
M 1715 2534 
L 1722 2528 
Q 2470 2694 2966 3113 
Q 3462 3533 3462 3994 
Q 3462 4192 3238 4192 
Q 3002 4192 2714 3891 
Q 2342 3514 1715 2534 
z
" transform="scale(0.015625)"/>
     </defs>
     <use xlink:href="#STIXGeneral-Italic-2113" transform="translate(0 0.296875)"/>
     <use xlink:href="#STIXGeneral-Regular-31" transform="translate(57.899994 -12.93125) scale(0.7)"/>
     <use xlink:href="#STIXGeneral-Regular-28" transform="translate(97.309358 0.296875)"/>
     <use xlink:href="#STIXGeneral-Regular-30" transform="translate(130.609346 0.296875)"/>
     <use xlink:href="#STIXGeneral-Regular-29" transform="translate(180.609331 0.296875)"/>
    </g>
   </g>
   <g id="text_3">
    <!-- $\ell_1(\hat 2)$ -->
    <g style="fill: #2e5a3f" transform="translate(121.189933 74.138338) scale(0.1 -0.1)">
     <defs>
      <path id="STIXGeneral-Regular-302" d="M -480 3245 
L -698 3245 
L -1478 3904 
L -2253 3245 
L -2470 3245 
L -1677 4314 
L -1280 4314 
L -480 3245 
z
" transform="scale(0.015625)"/>
     </defs>
     <use xlink:href="#STIXGeneral-Italic-2113" transform="translate(0 0.203125)"/>
     <use xlink:href="#STIXGeneral-Regular-31" transform="translate(57.899994 -13.025) scale(0.7)"/>
     <use xlink:href="#STIXGeneral-Regular-28" transform="translate(97.309358 0.203125)"/>
     <use xlink:href="#STIXGeneral-Regular-302" transform="translate(181.328096 29.59375)"/>
     <use xlink:href="#STIXGeneral-Regular-32" transform="translate(130.609346 0.203125)"/>
     <use xlink:href="#STIXGeneral-Regular-29" transform="translate(180.609331 0.203125)"/>
    </g>
   </g>
   <g id="text_4">
    <!-- $\ell_1(0)^*$ -->
    <g style="fill: #1f4e79" transform="translate(61.336229 45.061487) scale(0.1 -0.1)">
     <defs>
      <path id="STIXGeneral-Regular-2a" d="M 1715 3014 
L 1773 2976 
Q 2010 2822 2387 2758 
Q 2605 2726 2688 2665 
Q 2771 2605 2771 2483 
Q 2771 2374 2707 2304 
Q 2643 2234 2541 2234 
Q 2381 2234 2157 2515 
Q 2010 2694 1715 2886 
L 1664 2918 
L 1664 2861 
Q 1664 2502 1792 2157 
Q 1850 1997 1850 1946 
Q 1850 1850 1770 1773 
Q 1690 1696 1594 1696 
Q 1504 1696 1433 1766 
Q 1363 1837 1363 1926 
Q 1363 2016 1440 2227 
Q 1542 2502 1542 2861 
L 1542 2918 
Q 1286 2758 1210 2688 
Q 1133 2611 947 2400 
Q 806 2240 672 2240 
Q 563 2240 499 2304 
Q 435 2368 435 2470 
Q 435 2592 528 2656 
Q 621 2720 838 2758 
Q 1062 2803 1180 2848 
Q 1299 2893 1498 3014 
Q 1222 3181 877 3251 
Q 640 3302 544 3366 
Q 448 3430 448 3546 
Q 448 3648 505 3715 
Q 563 3782 659 3782 
Q 787 3782 973 3578 
Q 1242 3277 1542 3110 
L 1542 3194 
Q 1542 3456 1446 3776 
Q 1376 3987 1376 4109 
Q 1376 4198 1443 4262 
Q 1510 4326 1606 4326 
Q 1702 4326 1772 4259 
Q 1843 4192 1843 4096 
Q 1843 3994 1773 3795 
Q 1664 3507 1664 3264 
L 1664 3110 
Q 1882 3238 2035 3379 
Q 2067 3411 2153 3504 
Q 2240 3597 2291 3648 
Q 2342 3699 2409 3747 
Q 2477 3795 2528 3795 
Q 2637 3795 2701 3728 
Q 2765 3661 2765 3552 
Q 2765 3424 2691 3363 
Q 2618 3302 2432 3277 
Q 2074 3219 1715 3014 
z
" transform="scale(0.015625)"/>
     </defs>
     <use xlink:href="#STIXGeneral-Italic-2113" transform="translate(0 0.409375)"/>
     <use xlink:href="#STIXGeneral-Regular-31" transform="translate(57.899994 -12.81875) scale(0.7)"/>
     <use xlink:href="#STIXGeneral-Regular-28" transform="translate(97.309358 0.409375)"/>
     <use xlink:href="#STIXGeneral-Regular-30" transform="translate(130.609346 0.409375)"/>
     <use xlink:href="#STIXGeneral-Regular-29" transform="translate(180.609331 0.409375)"/>
     <use xlink:href="#STIXGeneral-Regular-2a" transform="translate(225.560597 35.684375) scale(0.7)"/>
    </g>
   </g>
   <g id="text_5">
    <!-- $\tilde\Sigma$ -->
    <g style="fill: #1f4e79" transform="translate(65.624194 25.586097) scale(0.115 -0.115)">
     <defs>
      <path id="STIXGeneral-Regular-303" d="M -602 4083 
L -416 4083 
Q -518 3718 -672 3561 
Q -826 3405 -1088 3405 
Q -1293 3405 -1606 3558 
Q -1901 3699 -2016 3699 
Q -2240 3699 -2342 3405 
L -2528 3405 
Q -2458 3718 -2291 3884 
Q -2125 4051 -1882 4051 
Q -1664 4051 -1434 3936 
Q -1082 3757 -941 3757 
Q -832 3757 -758 3830 
Q -685 3904 -602 4083 
z
" transform="scale(0.015625)"/>
      <path id="STIXGeneral-Regular-3a3" d="M 3840 1306 
L 3661 0 
L 192 0 
L 192 96 
L 1901 2074 
L 192 4141 
L 192 4237 
L 3558 4237 
L 3558 3206 
L 3398 3206 
Q 3328 3674 3110 3834 
Q 2893 3994 2438 3994 
L 1107 3994 
L 2464 2349 
L 947 608 
L 2931 608 
Q 3290 608 3453 768 
Q 3616 928 3693 1306 
L 3840 1306 
z
" transform="scale(0.015625)"/>
     </defs>
     <use xlink:href="#STIXGeneral-Regular-303" transform="translate(58.75 26.203125)"/>
     <use xlink:href="#STIXGeneral-Regular-3a3" transform="translate(0 0.703125)"/>
    </g>
   </g>
   <g id="text_6">
    <!-- $x_2$ -->
    <g style="fill: #8a948d" transform="translate(169.368793 106.619313) scale(0.1 -0.1)">
     <defs>
      <path id="STIXGeneral-Italic-78" d="M 1555 2272 
L 1632 1907 
Q 1971 2426 2179 2624 
Q 2387 2822 2598 2822 
Q 2714 2822 2787 2755 
Q 2861 2688 2861 2585 
Q 2861 2483 2800 2419 
Q 2739 2355 2643 2355 
Q 2586 2355 2490 2409 
Q 2394 2464 2310 2464 
Q 2125 2464 1683 1690 
Q 1683 1606 1734 1402 
L 1939 544 
Q 2003 282 2131 282 
Q 2234 282 2432 538 
Q 2451 563 2476 598 
Q 2502 634 2521 662 
Q 2541 691 2566 717 
L 2662 659 
Q 2387 230 2227 80 
Q 2067 -70 1882 -70 
Q 1728 -70 1645 26 
Q 1562 122 1504 365 
L 1318 1126 
L 755 365 
Q 557 96 432 13 
Q 307 -70 147 -70 
Q 0 -70 -86 0 
Q -173 70 -173 198 
Q -173 294 -112 361 
Q -51 429 45 429 
Q 122 429 250 358 
Q 346 301 416 301 
Q 525 301 742 614 
L 1267 1357 
L 1088 2150 
Q 1024 2432 969 2509 
Q 915 2586 794 2586 
Q 717 2586 544 2541 
L 429 2509 
L 410 2611 
L 480 2637 
Q 992 2822 1229 2822 
Q 1350 2822 1420 2707 
Q 1491 2592 1555 2272 
z
" transform="scale(0.015625)"/>
     </defs>
     <use xlink:href="#STIXGeneral-Italic-78" transform="translate(0 0.90625)"/>
     <use xlink:href="#STIXGeneral-Regular-32" transform="translate(44.399994 -12.321875) scale(0.7)"/>
    </g>
   </g>
   <g id="text_7">
    <!-- $x_3$ -->
    <g style="fill: #8a948d" transform="translate(21.678298 9.709687) scale(0.1 -0.1)">
     <defs>
      <path id="STIXGeneral-Regular-33" d="M 390 3264 
L 288 3290 
Q 435 3770 748 4048 
Q 1062 4326 1542 4326 
Q 1990 4326 2265 4083 
Q 2541 3840 2541 3450 
Q 2541 2925 1946 2566 
Q 2298 2413 2477 2227 
Q 2758 1914 2758 1402 
Q 2758 890 2464 506 
Q 2246 211 1840 60 
Q 1434 -90 979 -90 
Q 262 -90 262 275 
Q 262 378 339 442 
Q 416 506 525 506 
Q 685 506 915 339 
Q 1197 141 1466 141 
Q 1818 141 2058 425 
Q 2298 710 2298 1120 
Q 2298 1856 1632 2048 
Q 1434 2112 979 2112 
L 979 2202 
Q 1338 2323 1517 2432 
Q 2035 2726 2035 3290 
Q 2035 3610 1852 3776 
Q 1670 3942 1344 3942 
Q 768 3942 390 3264 
z
" transform="scale(0.015625)"/>
     </defs>
     <use xlink:href="#STIXGeneral-Italic-78" transform="translate(0 0.90625)"/>
     <use xlink:href="#STIXGeneral-Regular-33" transform="translate(44.399994 -12.321875) scale(0.7)"/>
    </g>
   </g>
   <g id="text_8">
    <!-- $-1/2$ -->
    <g style="fill: #8a948d" transform="translate(42.220588 113.9986) scale(0.095 -0.095)">
     <defs>
      <path id="STIXGeneral-Regular-2212" d="M 3974 1408 
L 410 1408 
L 410 1830 
L 3974 1830 
L 3974 1408 
z
" transform="scale(0.015625)"/>
      <path id="STIXGeneral-Regular-2f" d="M 1837 4326 
L 378 -90 
L -58 -90 
L 1408 4326 
L 1837 4326 
z
" transform="scale(0.015625)"/>
     </defs>
     <use xlink:href="#STIXGeneral-Regular-2212" transform="translate(0 0.40625)"/>
     <use xlink:href="#STIXGeneral-Regular-31" transform="translate(68.499985 0.40625)"/>
     <use xlink:href="#STIXGeneral-Regular-2f" transform="translate(118.499969 0.40625)"/>
     <use xlink:href="#STIXGeneral-Regular-32" transform="translate(146.299957 0.40625)"/>
    </g>
   </g>
   <g id="text_9">
    <!-- $0$ -->
    <g style="fill: #8a948d" transform="translate(75.973703 113.9986) scale(0.095 -0.095)">
     <use xlink:href="#STIXGeneral-Regular-30" transform="translate(0 0.40625)"/>
    </g>
   </g>
   <g id="text_10">
    <!-- $1/2$ -->
    <g style="fill: #8a948d" transform="translate(99.039318 113.9986) scale(0.095 -0.095)">
     <use xlink:href="#STIXGeneral-Regular-31" transform="translate(0 0.40625)"/>
     <use xlink:href="#STIXGeneral-Regular-2f" transform="translate(49.999985 0.40625)"/>
     <use xlink:href="#STIXGeneral-Regular-32" transform="translate(77.799973 0.40625)"/>
    </g>
   </g>
   <g id="text_11">
    <!-- $1$ -->
    <g style="fill: #8a948d" transform="translate(129.514933 113.9986) scale(0.095 -0.095)">
     <use xlink:href="#STIXGeneral-Regular-31" transform="translate(0 0.40625)"/>
    </g>
   </g>
   <g id="text_12">
    <!-- $-1/2$ -->
    <g style="fill: #8a948d" transform="translate(2.88 87.227986) scale(0.095 -0.095)">
     <use xlink:href="#STIXGeneral-Regular-2212" transform="translate(0 0.40625)"/>
     <use xlink:href="#STIXGeneral-Regular-31" transform="translate(68.499985 0.40625)"/>
     <use xlink:href="#STIXGeneral-Regular-2f" transform="translate(118.499969 0.40625)"/>
     <use xlink:href="#STIXGeneral-Regular-32" transform="translate(146.299957 0.40625)"/>
    </g>
   </g>
   <g id="text_13">
    <!-- $0$ -->
    <g style="fill: #8a948d" transform="translate(16.845 60.457371) scale(0.095 -0.095)">
     <use xlink:href="#STIXGeneral-Regular-30" transform="translate(0 0.40625)"/>
    </g>
   </g>
   <g id="text_14">
    <!-- $1/2$ -->
    <g style="fill: #8a948d" transform="translate(9.435 33.686756) scale(0.095 -0.095)">
     <use xlink:href="#STIXGeneral-Regular-31" transform="translate(0 0.40625)"/>
     <use xlink:href="#STIXGeneral-Regular-2f" transform="translate(49.999985 0.40625)"/>
     <use xlink:href="#STIXGeneral-Regular-32" transform="translate(77.799973 0.40625)"/>
    </g>
   </g>
   <g id="patch_17">
    <path d="M 191.856109 28.796492 
C 192.85006 28.796492 193.803436 28.401591 194.506265 27.698761 
C 195.209095 26.995932 195.603996 26.042557 195.603996 25.048606 
C 195.603996 24.054655 195.209095 23.10128 194.506265 22.39845 
C 193.803436 21.695621 192.85006 21.30072 191.856109 21.30072 
C 190.862158 21.30072 189.908783 21.695621 189.205954 22.39845 
C 188.503124 23.10128 188.108223 24.054655 188.108223 25.048606 
C 188.108223 26.042557 188.503124 26.995932 189.205954 27.698761 
C 189.908783 28.401591 190.862158 28.796492 191.856109 28.796492 
z
" clip-path="url(#pc3d739266a)" style="fill: #ffffff; stroke: #b4583a; stroke-width: 1.5; stroke-linejoin: miter"/>
   </g>
   <g id="text_15">
    <!-- $C$ crosses the plane along $+x_1$: link $\ell_1(0)$ -->
    <g style="fill: #b4583a" transform="translate(200.422706 27.398606) scale(0.1 -0.1)">
     <defs>
      <path id="STIXGeneral-Italic-43" d="M 4410 4250 
L 4173 2970 
L 4058 2989 
Q 3942 4032 3104 4032 
Q 2406 4032 1830 3411 
Q 1491 3053 1315 2541 
Q 1139 2029 1139 1485 
Q 1139 173 2259 173 
Q 2656 173 2985 339 
Q 3315 506 3725 934 
L 3840 838 
Q 3411 333 2998 109 
Q 2586 -115 2093 -115 
Q 1344 -115 883 329 
Q 422 774 422 1555 
Q 422 2214 748 2812 
Q 1075 3411 1619 3795 
Q 2272 4262 3021 4262 
Q 3462 4262 3770 4154 
Q 3898 4109 4032 4109 
Q 4205 4109 4275 4250 
L 4410 4250 
z
" transform="scale(0.015625)"/>
      <path id="STIXGeneral-Regular-20" transform="scale(0.015625)"/>
      <path id="STIXGeneral-Regular-63" d="M 2547 998 
L 2637 941 
Q 2362 403 2112 205 
Q 1786 -64 1376 -64 
Q 845 -64 502 336 
Q 160 736 160 1357 
Q 160 2170 698 2618 
Q 1094 2944 1562 2944 
Q 1965 2944 2256 2749 
Q 2547 2554 2547 2285 
Q 2547 2176 2457 2096 
Q 2368 2016 2246 2016 
Q 2022 2016 1939 2310 
L 1901 2451 
Q 1850 2630 1773 2694 
Q 1696 2758 1523 2758 
Q 1133 2758 893 2451 
Q 653 2144 653 1645 
Q 653 1094 928 745 
Q 1203 397 1645 397 
Q 1920 397 2118 528 
Q 2317 659 2547 998 
z
" transform="scale(0.015625)"/>
      <path id="STIXGeneral-Regular-72" d="M 1024 2931 
L 1024 2342 
Q 1267 2688 1430 2816 
Q 1594 2944 1792 2944 
Q 1958 2944 2051 2854 
Q 2144 2765 2144 2605 
Q 2144 2470 2077 2393 
Q 2010 2317 1894 2317 
Q 1773 2317 1638 2445 
Q 1536 2541 1472 2541 
Q 1338 2541 1181 2355 
Q 1024 2170 1024 2016 
L 1024 576 
Q 1024 301 1133 205 
Q 1242 109 1568 96 
L 1568 0 
L 32 0 
L 32 96 
Q 339 154 412 224 
Q 486 294 486 538 
L 486 2138 
Q 486 2349 438 2435 
Q 390 2522 269 2522 
Q 166 2522 45 2496 
L 45 2598 
Q 448 2726 992 2944 
L 1024 2931 
z
" transform="scale(0.015625)"/>
      <path id="STIXGeneral-Regular-6f" d="M 3008 1478 
Q 3008 806 2608 371 
Q 2208 -64 1568 -64 
Q 979 -64 582 368 
Q 186 800 186 1459 
Q 186 2125 582 2534 
Q 979 2944 1626 2944 
Q 2221 2944 2614 2537 
Q 3008 2131 3008 1478 
z
M 2432 1306 
Q 2432 2035 2112 2445 
Q 1856 2765 1504 2765 
Q 1171 2765 966 2493 
Q 762 2221 762 1747 
Q 762 928 1101 435 
Q 1318 115 1677 115 
Q 2029 115 2230 432 
Q 2432 749 2432 1306 
z
" transform="scale(0.015625)"/>
      <path id="STIXGeneral-Regular-73" d="M 998 1926 
L 1664 1523 
Q 1984 1331 2105 1164 
Q 2227 998 2227 736 
Q 2227 416 1961 176 
Q 1696 -64 1331 -64 
Q 1030 -64 864 -6 
Q 691 51 570 51 
Q 461 51 416 -26 
L 333 -26 
L 333 979 
L 435 979 
Q 538 512 730 294 
Q 922 77 1248 77 
Q 1485 77 1632 211 
Q 1779 346 1779 550 
Q 1779 845 1440 1030 
L 1094 1222 
Q 326 1651 326 2150 
Q 326 2522 566 2730 
Q 806 2938 1210 2938 
Q 1491 2938 1638 2867 
Q 1754 2816 1818 2816 
Q 1862 2816 1920 2880 
L 1990 2880 
L 2022 2010 
L 1926 2010 
Q 1818 2445 1654 2621 
Q 1491 2797 1203 2797 
Q 986 2797 854 2688 
Q 723 2579 723 2362 
Q 723 2253 796 2128 
Q 870 2003 998 1926 
z
" transform="scale(0.015625)"/>
      <path id="STIXGeneral-Regular-65" d="M 2611 1050 
L 2714 1005 
Q 2330 -64 1376 -64 
Q 813 -64 486 329 
Q 160 723 160 1389 
Q 160 2074 525 2509 
Q 890 2944 1485 2944 
Q 2061 2944 2374 2502 
Q 2560 2246 2592 1773 
L 621 1773 
Q 646 1370 700 1158 
Q 755 947 915 730 
Q 1184 378 1626 378 
Q 1939 378 2153 531 
Q 2368 685 2611 1050 
z
M 634 1978 
L 1939 1978 
Q 1882 2381 1750 2547 
Q 1619 2714 1312 2714 
Q 1043 2714 864 2525 
Q 685 2336 634 1978 
z
" transform="scale(0.015625)"/>
      <path id="STIXGeneral-Regular-74" d="M 1702 493 
L 1786 422 
Q 1478 -64 1011 -64 
Q 448 -64 448 749 
L 448 2675 
L 109 2675 
Q 83 2694 83 2720 
Q 83 2771 192 2842 
Q 435 2982 813 3526 
Q 826 3546 874 3606 
Q 922 3667 941 3706 
Q 986 3706 986 3622 
L 986 2880 
L 1632 2880 
L 1632 2675 
L 986 2675 
L 986 845 
Q 986 538 1062 403 
Q 1139 269 1318 269 
Q 1510 269 1702 493 
z
" transform="scale(0.015625)"/>
      <path id="STIXGeneral-Regular-68" d="M 3117 0 
L 1760 0 
L 1760 96 
Q 2042 128 2118 224 
Q 2195 320 2195 653 
L 2195 1920 
Q 2195 2598 1722 2598 
Q 1530 2598 1370 2508 
Q 1210 2419 1005 2195 
L 1005 653 
Q 1005 320 1081 224 
Q 1158 128 1440 96 
L 1440 0 
L 58 0 
L 58 96 
Q 333 134 400 224 
Q 467 314 467 653 
L 467 3667 
Q 467 3872 406 3933 
Q 346 3994 141 3994 
Q 83 3994 64 3987 
L 64 4090 
L 237 4141 
Q 730 4288 973 4371 
L 1005 4352 
L 1005 2406 
Q 1229 2694 1446 2819 
Q 1664 2944 1946 2944 
Q 2733 2944 2733 1926 
L 2733 653 
Q 2733 320 2793 233 
Q 2854 147 3117 96 
L 3117 0 
z
" transform="scale(0.015625)"/>
      <path id="STIXGeneral-Regular-70" d="M 1018 2931 
L 1018 2438 
Q 1421 2944 1939 2944 
Q 2406 2944 2707 2560 
Q 3008 2176 3008 1581 
Q 3008 883 2621 409 
Q 2234 -64 1664 -64 
Q 1466 -64 1328 -6 
Q 1190 51 1018 211 
L 1018 -794 
Q 1018 -1094 1120 -1180 
Q 1222 -1267 1581 -1274 
L 1581 -1389 
L 32 -1389 
L 32 -1280 
Q 314 -1254 397 -1171 
Q 480 -1088 480 -838 
L 480 2157 
Q 480 2381 429 2451 
Q 378 2522 218 2522 
Q 115 2522 58 2515 
L 58 2618 
Q 506 2752 979 2944 
L 1018 2931 
z
M 1018 2138 
L 1018 563 
Q 1018 422 1238 281 
Q 1459 141 1683 141 
Q 2029 141 2243 467 
Q 2458 794 2458 1325 
Q 2458 1888 2243 2224 
Q 2029 2560 1670 2560 
Q 1446 2560 1232 2419 
Q 1018 2278 1018 2138 
z
" transform="scale(0.015625)"/>
      <path id="STIXGeneral-Regular-6c" d="M 1645 0 
L 134 0 
L 134 96 
Q 435 122 531 221 
Q 627 320 627 589 
L 627 3590 
Q 627 3821 569 3910 
Q 512 4000 358 4000 
Q 224 4000 122 3987 
L 122 4090 
Q 730 4237 1133 4371 
L 1165 4346 
L 1165 557 
Q 1165 288 1254 201 
Q 1344 115 1645 96 
L 1645 0 
z
" transform="scale(0.015625)"/>
      <path id="STIXGeneral-Regular-61" d="M 2829 422 
L 2829 243 
Q 2586 -64 2253 -64 
Q 1888 -64 1843 403 
L 1837 403 
Q 1427 -64 909 -64 
Q 608 -64 422 112 
Q 237 288 237 602 
Q 237 1050 685 1350 
Q 992 1555 1837 1869 
L 1837 2214 
Q 1837 2502 1699 2646 
Q 1562 2790 1338 2790 
Q 1146 2790 1018 2697 
Q 890 2605 890 2477 
Q 890 2419 909 2348 
Q 928 2278 928 2208 
Q 928 2112 841 2029 
Q 755 1946 634 1946 
Q 525 1946 441 2029 
Q 358 2112 358 2240 
Q 358 2547 685 2752 
Q 986 2944 1421 2944 
Q 1939 2944 2176 2656 
Q 2291 2522 2323 2384 
Q 2355 2246 2355 1946 
L 2355 723 
Q 2355 301 2554 301 
Q 2682 301 2829 422 
z
M 1837 813 
L 1837 1715 
Q 1248 1510 1018 1293 
Q 800 1094 800 800 
Q 800 557 921 432 
Q 1043 307 1242 307 
Q 1453 307 1613 410 
Q 1747 506 1792 589 
Q 1837 672 1837 813 
z
" transform="scale(0.015625)"/>
      <path id="STIXGeneral-Regular-6e" d="M 3104 0 
L 1773 0 
L 1779 96 
Q 2016 115 2096 233 
Q 2176 352 2176 672 
L 2176 1946 
Q 2176 2592 1709 2592 
Q 1549 2592 1408 2515 
Q 1267 2438 1050 2227 
L 1050 461 
Q 1050 269 1136 192 
Q 1222 115 1466 96 
L 1466 0 
L 115 0 
L 115 96 
Q 358 115 435 214 
Q 512 314 512 602 
L 512 2157 
Q 512 2394 467 2483 
Q 422 2573 288 2573 
Q 160 2573 102 2547 
L 102 2656 
Q 550 2784 979 2944 
L 1030 2925 
L 1030 2426 
L 1037 2426 
Q 1491 2944 1958 2944 
Q 2323 2944 2518 2688 
Q 2714 2432 2714 1958 
L 2714 544 
Q 2714 288 2790 205 
Q 2867 122 3104 96 
L 3104 0 
z
" transform="scale(0.015625)"/>
      <path id="STIXGeneral-Regular-67" d="M 3008 2483 
L 2477 2483 
Q 2598 2208 2598 1946 
Q 2598 1453 2265 1203 
Q 1933 954 1600 954 
Q 1530 954 1357 973 
L 1235 986 
Q 1107 947 979 812 
Q 851 678 851 582 
Q 851 435 1350 410 
L 2176 371 
Q 2528 358 2739 172 
Q 2950 -13 2950 -314 
Q 2950 -685 2566 -986 
Q 2035 -1395 1286 -1395 
Q 826 -1395 502 -1212 
Q 179 -1030 179 -774 
Q 179 -595 320 -419 
Q 461 -243 806 6 
Q 602 102 534 172 
Q 467 243 467 346 
Q 467 531 762 787 
Q 909 915 1037 1043 
Q 717 1203 579 1401 
Q 442 1600 442 1901 
Q 442 2336 752 2640 
Q 1062 2944 1510 2944 
Q 1766 2944 2022 2848 
L 2163 2797 
Q 2349 2733 2515 2733 
L 3008 2733 
L 3008 2483 
z
M 973 2163 
L 973 2144 
Q 973 1683 1155 1398 
Q 1338 1114 1632 1114 
Q 1850 1114 1978 1270 
Q 2106 1427 2106 1690 
Q 2106 2112 1914 2464 
Q 1754 2765 1446 2765 
Q 1222 2765 1097 2605 
Q 973 2445 973 2163 
z
M 2771 -410 
Q 2771 -230 2595 -163 
Q 2419 -96 1978 -96 
Q 1344 -96 941 -13 
Q 749 -243 688 -348 
Q 627 -454 627 -563 
Q 627 -774 880 -902 
Q 1133 -1030 1555 -1030 
Q 2099 -1030 2435 -860 
Q 2771 -691 2771 -410 
z
" transform="scale(0.015625)"/>
      <path id="STIXGeneral-Regular-2b" d="M 4070 1408 
L 2400 1408 
L 2400 -262 
L 1978 -262 
L 1978 1408 
L 307 1408 
L 307 1830 
L 1978 1830 
L 1978 3501 
L 2400 3501 
L 2400 1830 
L 4070 1830 
L 4070 1408 
z
" transform="scale(0.015625)"/>
      <path id="STIXGeneral-Regular-3a" d="M 1123 2832 
Q 1229 2726 1229 2579 
Q 1229 2432 1126 2329 
Q 1024 2227 877 2227 
Q 730 2227 624 2332 
Q 518 2438 518 2579 
Q 518 2733 620 2835 
Q 723 2938 877 2938 
Q 1018 2938 1123 2832 
z
M 1229 282 
Q 1229 141 1126 35 
Q 1024 -70 877 -70 
Q 730 -70 624 35 
Q 518 141 518 282 
Q 518 435 620 537 
Q 723 640 877 640 
Q 1018 640 1123 534 
Q 1229 429 1229 282 
z
" transform="scale(0.015625)"/>
      <path id="STIXGeneral-Regular-69" d="M 1152 4045 
Q 1152 3904 1056 3811 
Q 960 3718 819 3718 
Q 685 3718 592 3811 
Q 499 3904 499 4045 
Q 499 4179 595 4275 
Q 691 4371 826 4371 
Q 966 4371 1059 4275 
Q 1152 4179 1152 4045 
z
M 1619 0 
L 102 0 
L 102 96 
Q 435 115 521 211 
Q 608 307 608 666 
L 608 2118 
Q 608 2342 563 2432 
Q 518 2522 397 2522 
Q 243 2522 128 2490 
L 128 2592 
L 1120 2944 
L 1146 2918 
L 1146 672 
Q 1146 314 1226 218 
Q 1306 122 1619 96 
L 1619 0 
z
" transform="scale(0.015625)"/>
      <path id="STIXGeneral-Regular-6b" d="M 3232 0 
L 1837 0 
L 1837 96 
L 1958 96 
Q 2093 96 2093 192 
Q 2093 250 2022 339 
L 1062 1606 
L 1062 429 
Q 1062 262 1142 185 
Q 1222 109 1414 102 
L 1542 96 
L 1542 0 
L 45 0 
L 45 96 
Q 390 154 457 214 
Q 525 275 525 525 
L 525 3610 
Q 525 3840 467 3920 
Q 410 4000 250 4000 
Q 211 4000 45 3987 
L 45 4090 
L 237 4141 
Q 621 4243 1037 4371 
L 1062 4358 
L 1062 1670 
L 1939 2451 
Q 2086 2586 2086 2675 
Q 2086 2739 2019 2761 
Q 1952 2784 1766 2790 
L 1766 2880 
L 3072 2880 
L 3072 2784 
Q 2752 2784 2505 2646 
Q 2259 2509 1690 1978 
L 1504 1805 
L 2483 563 
Q 2829 122 3232 96 
L 3232 0 
z
" transform="scale(0.015625)"/>
     </defs>
     <use xlink:href="#STIXGeneral-Italic-43" transform="translate(0 0.296875)"/>
     <use xlink:href="#STIXGeneral-Regular-20" transform="translate(66.699997 0.296875)"/>
     <use xlink:href="#STIXGeneral-Regular-63" transform="translate(91.699982 0.296875)"/>
     <use xlink:href="#STIXGeneral-Regular-72" transform="translate(136.099976 0.296875)"/>
     <use xlink:href="#STIXGeneral-Regular-6f" transform="translate(169.399963 0.296875)"/>
     <use xlink:href="#STIXGeneral-Regular-73" transform="translate(219.399948 0.296875)"/>
     <use xlink:href="#STIXGeneral-Regular-73" transform="translate(258.299942 0.296875)"/>
     <use xlink:href="#STIXGeneral-Regular-65" transform="translate(297.199936 0.296875)"/>
     <use xlink:href="#STIXGeneral-Regular-73" transform="translate(341.59993 0.296875)"/>
     <use xlink:href="#STIXGeneral-Regular-20" transform="translate(380.499924 0.296875)"/>
     <use xlink:href="#STIXGeneral-Regular-74" transform="translate(405.499908 0.296875)"/>
     <use xlink:href="#STIXGeneral-Regular-68" transform="translate(433.299896 0.296875)"/>
     <use xlink:href="#STIXGeneral-Regular-65" transform="translate(483.299881 0.296875)"/>
     <use xlink:href="#STIXGeneral-Regular-20" transform="translate(527.699875 0.296875)"/>
     <use xlink:href="#STIXGeneral-Regular-70" transform="translate(552.69986 0.296875)"/>
     <use xlink:href="#STIXGeneral-Regular-6c" transform="translate(602.699844 0.296875)"/>
     <use xlink:href="#STIXGeneral-Regular-61" transform="translate(630.499832 0.296875)"/>
     <use xlink:href="#STIXGeneral-Regular-6e" transform="translate(674.899826 0.296875)"/>
     <use xlink:href="#STIXGeneral-Regular-65" transform="translate(724.899811 0.296875)"/>
     <use xlink:href="#STIXGeneral-Regular-20" transform="translate(769.299805 0.296875)"/>
     <use xlink:href="#STIXGeneral-Regular-61" transform="translate(794.299789 0.296875)"/>
     <use xlink:href="#STIXGeneral-Regular-6c" transform="translate(838.699783 0.296875)"/>
     <use xlink:href="#STIXGeneral-Regular-6f" transform="translate(866.499771 0.296875)"/>
     <use xlink:href="#STIXGeneral-Regular-6e" transform="translate(916.499756 0.296875)"/>
     <use xlink:href="#STIXGeneral-Regular-67" transform="translate(966.499741 0.296875)"/>
     <use xlink:href="#STIXGeneral-Regular-20" transform="translate(1016.499725 0.296875)"/>
     <use xlink:href="#STIXGeneral-Regular-2b" transform="translate(1041.49971 0.296875)"/>
     <use xlink:href="#STIXGeneral-Italic-78" transform="translate(1109.999695 0.296875)"/>
     <use xlink:href="#STIXGeneral-Regular-31" transform="translate(1154.399689 -12.93125) scale(0.7)"/>
     <use xlink:href="#STIXGeneral-Regular-3a" transform="translate(1193.809053 0.296875)"/>
     <use xlink:href="#STIXGeneral-Regular-20" transform="translate(1221.609041 0.296875)"/>
     <use xlink:href="#STIXGeneral-Regular-6c" transform="translate(1246.609026 0.296875)"/>
     <use xlink:href="#STIXGeneral-Regular-69" transform="translate(1274.409013 0.296875)"/>
     <use xlink:href="#STIXGeneral-Regular-6e" transform="translate(1302.209001 0.296875)"/>
     <use xlink:href="#STIXGeneral-Regular-6b" transform="translate(1352.208986 0.296875)"/>
     <use xlink:href="#STIXGeneral-Regular-20" transform="translate(1402.208971 0.296875)"/>
     <use xlink:href="#STIXGeneral-Italic-2113" transform="translate(1427.208955 0.296875)"/>
     <use xlink:href="#STIXGeneral-Regular-31" transform="translate(1485.108949 -12.93125) scale(0.7)"/>
     <use xlink:href="#STIXGeneral-Regular-28" transform="translate(1524.518314 0.296875)"/>
     <use xlink:href="#STIXGeneral-Regular-30" transform="translate(1557.818301 0.296875)"/>
     <use xlink:href="#STIXGeneral-Regular-29" transform="translate(1607.818286 0.296875)"/>
    </g>
   </g>
   <g id="patch_18">
    <path d="M 191.856109 47.00051 
C 192.85006 47.00051 193.803436 46.605609 194.506265 45.902779 
C 195.209095 45.19995 195.603996 44.246575 195.603996 43.252624 
C 195.603996 42.258673 195.209095 41.305298 194.506265 40.602468 
C 193.803436 39.899639 192.85006 39.504738 191.856109 39.504738 
C 190.862158 39.504738 189.908783 39.899639 189.205954 40.602468 
C 188.503124 41.305298 188.108223 42.258673 188.108223 43.252624 
C 188.108223 44.246575 188.503124 45.19995 189.205954 45.902779 
C 189.908783 46.605609 190.862158 47.00051 191.856109 47.00051 
z
" clip-path="url(#pc3d739266a)" style="fill: #ffffff; stroke: #2e5a3f; stroke-width: 1.5; stroke-linejoin: miter"/>
   </g>
   <g id="text_16">
    <!-- $C$ crosses it along $-x_1$: link $\ell_1(\hat 2)$ -->
    <g style="fill: #2e5a3f" transform="translate(200.422706 47.002624) scale(0.1 -0.1)">
     <use xlink:href="#STIXGeneral-Italic-43" transform="translate(0 0.203125)"/>
     <use xlink:href="#STIXGeneral-Regular-20" transform="translate(66.699997 0.203125)"/>
     <use xlink:href="#STIXGeneral-Regular-63" transform="translate(91.699982 0.203125)"/>
     <use xlink:href="#STIXGeneral-Regular-72" transform="translate(136.099976 0.203125)"/>
     <use xlink:href="#STIXGeneral-Regular-6f" transform="translate(169.399963 0.203125)"/>
     <use xlink:href="#STIXGeneral-Regular-73" transform="translate(219.399948 0.203125)"/>
     <use xlink:href="#STIXGeneral-Regular-73" transform="translate(258.299942 0.203125)"/>
     <use xlink:href="#STIXGeneral-Regular-65" transform="translate(297.199936 0.203125)"/>
     <use xlink:href="#STIXGeneral-Regular-73" transform="translate(341.59993 0.203125)"/>
     <use xlink:href="#STIXGeneral-Regular-20" transform="translate(380.499924 0.203125)"/>
     <use xlink:href="#STIXGeneral-Regular-69" transform="translate(405.499908 0.203125)"/>
     <use xlink:href="#STIXGeneral-Regular-74" transform="translate(433.299896 0.203125)"/>
     <use xlink:href="#STIXGeneral-Regular-20" transform="translate(461.099884 0.203125)"/>
     <use xlink:href="#STIXGeneral-Regular-61" transform="translate(486.099869 0.203125)"/>
     <use xlink:href="#STIXGeneral-Regular-6c" transform="translate(530.499863 0.203125)"/>
     <use xlink:href="#STIXGeneral-Regular-6f" transform="translate(558.29985 0.203125)"/>
     <use xlink:href="#STIXGeneral-Regular-6e" transform="translate(608.299835 0.203125)"/>
     <use xlink:href="#STIXGeneral-Regular-67" transform="translate(658.29982 0.203125)"/>
     <use xlink:href="#STIXGeneral-Regular-20" transform="translate(708.299805 0.203125)"/>
     <use xlink:href="#STIXGeneral-Regular-2212" transform="translate(733.299789 0.203125)"/>
     <use xlink:href="#STIXGeneral-Italic-78" transform="translate(801.799774 0.203125)"/>
     <use xlink:href="#STIXGeneral-Regular-31" transform="translate(846.199768 -13.025) scale(0.7)"/>
     <use xlink:href="#STIXGeneral-Regular-3a" transform="translate(885.609132 0.203125)"/>
     <use xlink:href="#STIXGeneral-Regular-20" transform="translate(913.40912 0.203125)"/>
     <use xlink:href="#STIXGeneral-Regular-6c" transform="translate(938.409105 0.203125)"/>
     <use xlink:href="#STIXGeneral-Regular-69" transform="translate(966.209093 0.203125)"/>
     <use xlink:href="#STIXGeneral-Regular-6e" transform="translate(994.009081 0.203125)"/>
     <use xlink:href="#STIXGeneral-Regular-6b" transform="translate(1044.009065 0.203125)"/>
     <use xlink:href="#STIXGeneral-Regular-20" transform="translate(1094.00905 0.203125)"/>
     <use xlink:href="#STIXGeneral-Italic-2113" transform="translate(1119.009035 0.203125)"/>
     <use xlink:href="#STIXGeneral-Regular-31" transform="translate(1176.909029 -13.025) scale(0.7)"/>
     <use xlink:href="#STIXGeneral-Regular-28" transform="translate(1216.318393 0.203125)"/>
     <use xlink:href="#STIXGeneral-Regular-302" transform="translate(1300.337131 29.59375)"/>
     <use xlink:href="#STIXGeneral-Regular-32" transform="translate(1249.618381 0.203125)"/>
     <use xlink:href="#STIXGeneral-Regular-29" transform="translate(1299.618365 0.203125)"/>
    </g>
   </g>
   <g id="text_17">
    <!-- $\tilde\Sigma=\partial(\ell_1(0)^*)$: counter-clockwise, normal $+x_1$ -->
    <g style="fill: #1f4e79" transform="translate(188.108223 65.757154) scale(0.1 -0.1)">
     <defs>
      <path id="STIXGeneral-Regular-3d" d="M 4077 2048 
L 307 2048 
L 307 2470 
L 4077 2470 
L 4077 2048 
z
M 4077 768 
L 307 768 
L 307 1190 
L 4077 1190 
L 4077 768 
z
" transform="scale(0.015625)"/>
      <path id="STIXGeneral-Regular-2202" d="M 1248 4000 
L 1184 4128 
Q 1427 4275 1811 4275 
Q 3014 4275 3014 2611 
Q 3014 2298 2963 1965 
Q 2912 1632 2777 1261 
Q 2643 890 2438 598 
Q 2234 307 1894 118 
Q 1555 -70 1126 -70 
Q 685 -70 470 224 
Q 256 518 256 966 
Q 256 1664 739 2224 
Q 1222 2784 1901 2784 
Q 2342 2784 2515 2477 
Q 2560 2726 2560 2925 
Q 2560 3418 2365 3750 
Q 2170 4083 1722 4083 
Q 1510 4083 1248 4000 
z
M 2349 2042 
Q 2349 2323 2230 2457 
Q 2112 2592 1958 2592 
Q 1491 2592 1132 2013 
Q 774 1434 774 749 
Q 774 122 1203 122 
Q 1549 122 1827 499 
Q 2106 877 2253 1414 
Q 2349 1766 2349 2042 
z
" transform="scale(0.015625)"/>
      <path id="STIXGeneral-Regular-75" d="M 3072 320 
L 3072 230 
Q 2573 96 2195 -58 
L 2163 -38 
L 2163 486 
L 2150 486 
Q 1747 -64 1235 -64 
Q 870 -64 662 160 
Q 454 384 454 755 
L 454 2362 
Q 454 2598 371 2688 
Q 288 2778 58 2790 
L 58 2880 
L 992 2880 
L 992 813 
Q 992 595 1123 451 
Q 1254 307 1446 307 
Q 1760 307 1984 506 
Q 2067 582 2099 649 
Q 2131 717 2131 877 
L 2131 2355 
Q 2131 2605 2041 2678 
Q 1952 2752 1658 2771 
L 1658 2880 
L 2669 2880 
L 2669 685 
Q 2669 461 2742 390 
Q 2816 320 3034 320 
L 3072 320 
z
" transform="scale(0.015625)"/>
      <path id="STIXGeneral-Regular-2d" d="M 1824 1242 
L 250 1242 
L 250 1645 
L 1824 1645 
L 1824 1242 
z
" transform="scale(0.015625)"/>
      <path id="STIXGeneral-Regular-77" d="M 4442 2880 
L 4442 2784 
Q 4346 2752 4301 2691 
Q 4256 2630 4179 2438 
L 3296 224 
Q 3168 -90 3117 -90 
Q 3085 -90 3062 -48 
Q 3040 -6 2963 186 
L 2381 1696 
L 1664 160 
Q 1549 -90 1504 -90 
Q 1446 -90 1338 192 
L 474 2381 
Q 378 2630 314 2700 
Q 250 2771 134 2784 
L 134 2880 
L 1286 2880 
L 1286 2784 
Q 1120 2765 1056 2720 
Q 992 2675 992 2573 
Q 992 2477 1030 2381 
L 1664 710 
L 2246 1984 
L 2118 2342 
Q 2029 2598 1942 2681 
Q 1856 2765 1677 2784 
L 1677 2880 
L 2976 2880 
L 2976 2784 
Q 2752 2752 2678 2707 
Q 2605 2662 2605 2560 
Q 2605 2458 2714 2176 
L 3251 742 
L 3827 2163 
Q 3936 2432 3936 2592 
Q 3936 2669 3875 2710 
Q 3814 2752 3654 2784 
L 3654 2880 
L 4442 2880 
z
" transform="scale(0.015625)"/>
      <path id="STIXGeneral-Regular-2c" d="M 531 -902 
L 467 -781 
Q 998 -422 998 -96 
Q 998 -13 909 -13 
Q 883 -13 822 -25 
Q 762 -38 723 -38 
Q 352 -38 352 288 
Q 352 454 457 553 
Q 563 653 736 653 
Q 954 653 1101 496 
Q 1248 339 1248 96 
Q 1248 -198 1053 -473 
Q 858 -749 531 -902 
z
" transform="scale(0.015625)"/>
      <path id="STIXGeneral-Regular-6d" d="M 4960 0 
L 3565 0 
L 3565 96 
Q 3834 122 3907 208 
Q 3981 294 3981 576 
L 3981 1894 
Q 3981 2278 3869 2444 
Q 3757 2611 3488 2611 
Q 3264 2611 3107 2521 
Q 2950 2432 2803 2221 
L 2803 608 
Q 2803 301 2896 201 
Q 2989 102 3264 96 
L 3264 0 
L 1830 0 
L 1830 96 
Q 2112 115 2189 188 
Q 2266 262 2266 550 
L 2266 1901 
Q 2266 2611 1850 2611 
Q 1670 2611 1468 2531 
Q 1267 2451 1171 2336 
Q 1088 2240 1088 2227 
L 1088 448 
Q 1088 243 1177 176 
Q 1267 109 1523 96 
L 1523 0 
L 102 0 
L 102 96 
Q 371 102 460 195 
Q 550 288 550 563 
L 550 2150 
Q 550 2387 499 2480 
Q 448 2573 326 2573 
Q 230 2573 122 2547 
L 122 2656 
Q 557 2778 1011 2944 
L 1062 2925 
L 1062 2451 
L 1075 2451 
Q 1363 2752 1584 2848 
Q 1805 2944 2054 2944 
Q 2560 2944 2733 2406 
Q 3232 2944 3776 2944 
Q 4518 2944 4518 1792 
L 4518 493 
Q 4518 282 4582 202 
Q 4646 122 4794 109 
L 4960 96 
L 4960 0 
z
" transform="scale(0.015625)"/>
     </defs>
     <use xlink:href="#STIXGeneral-Regular-303" transform="translate(58.75 26.203125)"/>
     <use xlink:href="#STIXGeneral-Regular-3a3" transform="translate(0 0.703125)"/>
     <use xlink:href="#STIXGeneral-Regular-3d" transform="translate(76.83999 0.703125)"/>
     <use xlink:href="#STIXGeneral-Regular-2202" transform="translate(159.779971 0.703125)"/>
     <use xlink:href="#STIXGeneral-Regular-28" transform="translate(206.879962 0.703125)"/>
     <use xlink:href="#STIXGeneral-Italic-2113" transform="translate(240.17995 0.703125)"/>
     <use xlink:href="#STIXGeneral-Regular-31" transform="translate(298.079944 -12.525) scale(0.7)"/>
     <use xlink:href="#STIXGeneral-Regular-28" transform="translate(337.489308 0.703125)"/>
     <use xlink:href="#STIXGeneral-Regular-30" transform="translate(370.789296 0.703125)"/>
     <use xlink:href="#STIXGeneral-Regular-29" transform="translate(420.789281 0.703125)"/>
     <use xlink:href="#STIXGeneral-Regular-2a" transform="translate(465.740547 35.978125) scale(0.7)"/>
     <use xlink:href="#STIXGeneral-Regular-29" transform="translate(515.257909 0.703125)"/>
     <use xlink:href="#STIXGeneral-Regular-3a" transform="translate(548.557897 0.703125)"/>
     <use xlink:href="#STIXGeneral-Regular-20" transform="translate(576.357885 0.703125)"/>
     <use xlink:href="#STIXGeneral-Regular-63" transform="translate(601.357869 0.703125)"/>
     <use xlink:href="#STIXGeneral-Regular-6f" transform="translate(645.757863 0.703125)"/>
     <use xlink:href="#STIXGeneral-Regular-75" transform="translate(695.757848 0.703125)"/>
     <use xlink:href="#STIXGeneral-Regular-6e" transform="translate(745.757833 0.703125)"/>
     <use xlink:href="#STIXGeneral-Regular-74" transform="translate(795.757817 0.703125)"/>
     <use xlink:href="#STIXGeneral-Regular-65" transform="translate(823.557805 0.703125)"/>
     <use xlink:href="#STIXGeneral-Regular-72" transform="translate(867.957799 0.703125)"/>
     <use xlink:href="#STIXGeneral-Regular-2d" transform="translate(901.257787 0.703125)"/>
     <use xlink:href="#STIXGeneral-Regular-63" transform="translate(934.557775 0.703125)"/>
     <use xlink:href="#STIXGeneral-Regular-6c" transform="translate(978.957769 0.703125)"/>
     <use xlink:href="#STIXGeneral-Regular-6f" transform="translate(1006.757756 0.703125)"/>
     <use xlink:href="#STIXGeneral-Regular-63" transform="translate(1056.757741 0.703125)"/>
     <use xlink:href="#STIXGeneral-Regular-6b" transform="translate(1101.157735 0.703125)"/>
     <use xlink:href="#STIXGeneral-Regular-77" transform="translate(1151.15772 0.703125)"/>
     <use xlink:href="#STIXGeneral-Regular-69" transform="translate(1223.357701 0.703125)"/>
     <use xlink:href="#STIXGeneral-Regular-73" transform="translate(1251.157689 0.703125)"/>
     <use xlink:href="#STIXGeneral-Regular-65" transform="translate(1290.057683 0.703125)"/>
     <use xlink:href="#STIXGeneral-Regular-2c" transform="translate(1334.457677 0.703125)"/>
     <use xlink:href="#STIXGeneral-Regular-20" transform="translate(1359.457662 0.703125)"/>
     <use xlink:href="#STIXGeneral-Regular-6e" transform="translate(1384.457646 0.703125)"/>
     <use xlink:href="#STIXGeneral-Regular-6f" transform="translate(1434.457631 0.703125)"/>
     <use xlink:href="#STIXGeneral-Regular-72" transform="translate(1484.457616 0.703125)"/>
     <use xlink:href="#STIXGeneral-Regular-6d" transform="translate(1517.757604 0.703125)"/>
     <use xlink:href="#STIXGeneral-Regular-61" transform="translate(1595.557592 0.703125)"/>
     <use xlink:href="#STIXGeneral-Regular-6c" transform="translate(1639.957585 0.703125)"/>
     <use xlink:href="#STIXGeneral-Regular-20" transform="translate(1667.757573 0.703125)"/>
     <use xlink:href="#STIXGeneral-Regular-2b" transform="translate(1692.757558 0.703125)"/>
     <use xlink:href="#STIXGeneral-Italic-78" transform="translate(1761.257543 0.703125)"/>
     <use xlink:href="#STIXGeneral-Regular-31" transform="translate(1805.657537 -12.525) scale(0.7)"/>
    </g>
   </g>
   <g id="text_18">
    <!-- ${\rm Link}(C,\tilde\Sigma)=+1$ -->
    <g style="fill: #b4583a" transform="translate(188.108223 86.264305) scale(0.105 -0.105)">
     <defs>
      <path id="STIXGeneral-Regular-4c" d="M 3827 1114 
L 3520 0 
L 77 0 
L 77 122 
Q 429 141 531 256 
Q 634 371 634 736 
L 634 3494 
Q 634 3872 541 3981 
Q 448 4090 77 4115 
L 77 4237 
L 1888 4237 
L 1888 4115 
Q 1498 4090 1392 3984 
Q 1286 3878 1286 3507 
L 1286 538 
Q 1286 358 1398 304 
Q 1510 250 1862 250 
L 2310 250 
Q 3085 250 3392 640 
Q 3520 813 3661 1114 
L 3827 1114 
z
" transform="scale(0.015625)"/>
     </defs>
     <use xlink:href="#STIXGeneral-Regular-4c" transform="translate(0 0.703125)"/>
     <use xlink:href="#STIXGeneral-Regular-69" transform="translate(61.099991 0.703125)"/>
     <use xlink:href="#STIXGeneral-Regular-6e" transform="translate(88.899979 0.703125)"/>
     <use xlink:href="#STIXGeneral-Regular-6b" transform="translate(138.899963 0.703125)"/>
     <use xlink:href="#STIXGeneral-Regular-28" transform="translate(188.899948 0.703125)"/>
     <use xlink:href="#STIXGeneral-Italic-43" transform="translate(222.199936 0.703125)"/>
     <use xlink:href="#STIXGeneral-Regular-2c" transform="translate(288.899933 0.703125)"/>
     <use xlink:href="#STIXGeneral-Regular-303" transform="translate(387.089914 26.203125)"/>
     <use xlink:href="#STIXGeneral-Regular-3a3" transform="translate(328.339914 0.703125)"/>
     <use xlink:href="#STIXGeneral-Regular-29" transform="translate(390.739908 0.703125)"/>
     <use xlink:href="#STIXGeneral-Regular-3d" transform="translate(438.479892 0.703125)"/>
     <use xlink:href="#STIXGeneral-Regular-2b" transform="translate(521.419873 0.703125)"/>
     <use xlink:href="#STIXGeneral-Regular-31" transform="translate(589.919858 0.703125)"/>
    </g>
   </g>
   <g id="text_19">
    <!-- $x_1$ points toward the reader -->
    <g style="fill: #8a948d" transform="translate(188.108223 104.380476) scale(0.095 -0.095)">
     <defs>
      <path id="STIXGeneral-Regular-64" d="M 3142 269 
L 2202 -64 
L 2176 -45 
L 2176 365 
Q 1869 -64 1357 -64 
Q 826 -64 499 317 
Q 173 698 173 1312 
Q 173 1990 563 2467 
Q 954 2944 1504 2944 
Q 1850 2944 2176 2669 
L 2176 3667 
Q 2176 3866 2118 3930 
Q 2061 3994 1882 3994 
Q 1792 3994 1741 3987 
L 1741 4090 
Q 2323 4243 2682 4371 
L 2714 4358 
L 2714 730 
Q 2714 506 2768 435 
Q 2822 365 2995 365 
Q 3034 365 3142 371 
L 3142 269 
z
M 2176 653 
L 2176 2125 
Q 2176 2381 1981 2573 
Q 1786 2765 1523 2765 
Q 1158 2765 940 2438 
Q 723 2112 723 1568 
Q 723 979 963 624 
Q 1203 269 1606 269 
Q 1907 269 2080 474 
Q 2176 582 2176 653 
z
" transform="scale(0.015625)"/>
     </defs>
     <use xlink:href="#STIXGeneral-Italic-78" transform="translate(0 0.703125)"/>
     <use xlink:href="#STIXGeneral-Regular-31" transform="translate(44.399994 -12.525) scale(0.7)"/>
     <use xlink:href="#STIXGeneral-Regular-20" transform="translate(83.809358 0.703125)"/>
     <use xlink:href="#STIXGeneral-Regular-70" transform="translate(108.809343 0.703125)"/>
     <use xlink:href="#STIXGeneral-Regular-6f" transform="translate(158.809328 0.703125)"/>
     <use xlink:href="#STIXGeneral-Regular-69" transform="translate(208.809312 0.703125)"/>
     <use xlink:href="#STIXGeneral-Regular-6e" transform="translate(236.6093 0.703125)"/>
     <use xlink:href="#STIXGeneral-Regular-74" transform="translate(286.609285 0.703125)"/>
     <use xlink:href="#STIXGeneral-Regular-73" transform="translate(314.409273 0.703125)"/>
     <use xlink:href="#STIXGeneral-Regular-20" transform="translate(353.309267 0.703125)"/>
     <use xlink:href="#STIXGeneral-Regular-74" transform="translate(378.309251 0.703125)"/>
     <use xlink:href="#STIXGeneral-Regular-6f" transform="translate(406.109239 0.703125)"/>
     <use xlink:href="#STIXGeneral-Regular-77" transform="translate(456.109224 0.703125)"/>
     <use xlink:href="#STIXGeneral-Regular-61" transform="translate(528.309206 0.703125)"/>
     <use xlink:href="#STIXGeneral-Regular-72" transform="translate(572.7092 0.703125)"/>
     <use xlink:href="#STIXGeneral-Regular-64" transform="translate(606.009187 0.703125)"/>
     <use xlink:href="#STIXGeneral-Regular-20" transform="translate(656.009172 0.703125)"/>
     <use xlink:href="#STIXGeneral-Regular-74" transform="translate(681.009157 0.703125)"/>
     <use xlink:href="#STIXGeneral-Regular-68" transform="translate(708.809145 0.703125)"/>
     <use xlink:href="#STIXGeneral-Regular-65" transform="translate(758.809129 0.703125)"/>
     <use xlink:href="#STIXGeneral-Regular-20" transform="translate(803.209123 0.703125)"/>
     <use xlink:href="#STIXGeneral-Regular-72" transform="translate(828.209108 0.703125)"/>
     <use xlink:href="#STIXGeneral-Regular-65" transform="translate(861.509096 0.703125)"/>
     <use xlink:href="#STIXGeneral-Regular-61" transform="translate(905.90909 0.703125)"/>
     <use xlink:href="#STIXGeneral-Regular-64" transform="translate(950.309084 0.703125)"/>
     <use xlink:href="#STIXGeneral-Regular-65" transform="translate(1000.309068 0.703125)"/>
     <use xlink:href="#STIXGeneral-Regular-72" transform="translate(1044.709062 0.703125)"/>
    </g>
   </g>
   <g id="patch_19">
    <path d="M 78.348703 59.427429 
C 78.662508 59.427429 78.963502 59.302753 79.185395 59.08086 
C 79.407288 58.858967 79.531964 58.557972 79.531964 58.244168 
C 79.531964 57.930363 79.407288 57.629369 79.185395 57.407476 
C 78.963502 57.185583 78.662508 57.060907 78.348703 57.060907 
C 78.034899 57.060907 77.733904 57.185583 77.512011 57.407476 
C 77.290118 57.629369 77.165442 57.930363 77.165442 58.244168 
C 77.165442 58.557972 77.290118 58.858967 77.512011 59.08086 
C 77.733904 59.302753 78.034899 59.427429 78.348703 59.427429 
z
" clip-path="url(#pc3d739266a)" style="fill: #b4583a"/>
   </g>
   <g id="line2d_18">
    <path d="M 129.06831 61.065791 
L 134.711555 55.422545 
" clip-path="url(#pc3d739266a)" style="fill: none; stroke: #2e5a3f; stroke-width: 1.3; stroke-linecap: square"/>
   </g>
   <g id="line2d_19">
    <path d="M 129.06831 55.422545 
L 134.711555 61.065791 
" clip-path="url(#pc3d739266a)" style="fill: none; stroke: #2e5a3f; stroke-width: 1.3; stroke-linecap: square"/>
   </g>
   <g id="patch_20">
    <path d="M 191.856109 26.023056 
C 192.114537 26.023056 192.362414 25.920382 192.54515 25.737646 
C 192.727886 25.55491 192.83056 25.307033 192.83056 25.048606 
C 192.83056 24.790178 192.727886 24.542301 192.54515 24.359565 
C 192.362414 24.17683 192.114537 24.074155 191.856109 24.074155 
C 191.597682 24.074155 191.349805 24.17683 191.167069 24.359565 
C 190.984333 24.542301 190.881659 24.790178 190.881659 25.048606 
C 190.881659 25.307033 190.984333 25.55491 191.167069 25.737646 
C 191.349805 25.920382 191.597682 26.023056 191.856109 26.023056 
z
" clip-path="url(#pc3d739266a)" style="fill: #b4583a"/>
   </g>
   <g id="line2d_20">
    <path d="M 189.53242 45.576313 
L 194.179799 40.928934 
" clip-path="url(#pc3d739266a)" style="fill: none; stroke: #2e5a3f; stroke-width: 1.3; stroke-linecap: square"/>
   </g>
   <g id="line2d_21">
    <path d="M 189.53242 40.928934 
L 194.179799 45.576313 
" clip-path="url(#pc3d739266a)" style="fill: none; stroke: #2e5a3f; stroke-width: 1.3; stroke-linecap: square"/>
   </g>
  </g>
 </g>
 <defs>
  <clipPath id="pc3d739266a">
   <rect x="7.67428" y="5.773763" width="357.12" height="112.436582"/>
  </clipPath>
 </defs>
</svg>
