<?xml version="1.0" encoding="utf-8" standalone="no"?>
<!DOCTYPE svg PUBLIC "-//W3C//DTD SVG 1.1//EN"
  "http://www.w3.org/Graphics/SVG/1.1/DTD/svg11.dtd">
<svg xmlns:xlink="http://www.w3.org/1999/xlink" width="381.261pt" height="166.536pt" viewBox="0 0 381.261 166.536" xmlns="http://www.w3.org/2000/svg" version="1.1">
 <metadata>
  <rdf:RDF xmlns:dc="http://purl.org/dc/elements/1.1/" xmlns:cc="http://creativecommons.org/ns#" xmlns:rdf="http://www.w3.org/1999/02/22-rdf-syntax-ns#">
   <cc:Work>
    <dc:type rdf:resource="http://purl.org/dc/dcmitype/StillImage"/>
    <dc:format>image/svg+xml</dc:format>
    <dc:creator>
     <cc:Agent>
      <dc:title>Matplotlib v3.10.8, https://matplotlib.org/</dc:title>
     </cc:Agent>
    </dc:creator>
   </cc:Work>
  </rdf:RDF>
 </metadata>
 <defs>
  <style type="text/css">*{stroke-linejoin: round; stroke-linecap: butt}</style>
 </defs>
 <g id="figure_1">
  <g id="patch_1">
   <path d="M 0 166.536 
L 381.261 166.536 
L 381.261 0 
L 0 0 
z
" style="fill: #ffffff"/>
  </g>
  <g id="axes_1">
   <g id="patch_2">
    <path d="M 145.176 48.487701 
L 108.216 48.487701 
L 89.736 80.496 
L 108.216 112.504299 
L 145.176 112.504299 
L 163.656 80.496 
z
" clip-path="url(#p6a4562dabb)" style="fill: #e8efe9"/>
   </g>
   <g id="line2d_1">
    <path d="M 108.216 112.504299 
L 89.736 80.496 
L 52.776 80.496 
L 34.296 112.504299 
L 52.776 144.512598 
L 89.736 144.512598 
L 108.216 112.504299 
" clip-path="url(#p6a4562dabb)" style="fill: none; stroke: #8a948d; stroke-opacity: 0.5; stroke-width: 0.8; stroke-linejoin: miter"/>
   </g>
   <g id="line2d_2">
    <path d="M 108.216 48.487701 
L 89.736 16.479402 
L 52.776 16.479402 
L 34.296 48.487701 
L 52.776 80.496 
L 89.736 80.496 
L 108.216 48.487701 
" clip-path="url(#p6a4562dabb)" style="fill: none; stroke: #8a948d; stroke-opacity: 0.5; stroke-width: 0.8; stroke-linejoin: miter"/>
   </g>
   <g id="line2d_3">
    <path d="M 163.656 144.512598 
L 145.176 112.504299 
L 108.216 112.504299 
L 89.736 144.512598 
L 103.028567 167.536 
M 150.363433 167.536 
L 163.656 144.512598 
" clip-path="url(#p6a4562dabb)" style="fill: none; stroke: #8a948d; stroke-opacity: 0.5; stroke-width: 0.8; stroke-linejoin: miter"/>
   </g>
   <g id="line2d_4">
    <path d="M 163.656 16.479402 
L 153.564262 -1 
M 99.827738 -1 
L 89.736 16.479402 
L 108.216 48.487701 
L 145.176 48.487701 
L 163.656 16.479402 
" clip-path="url(#p6a4562dabb)" style="fill: none; stroke: #8a948d; stroke-opacity: 0.5; stroke-width: 0.8; stroke-linejoin: miter"/>
   </g>
   <g id="line2d_5">
    <path d="M 219.096 112.504299 
L 200.616 80.496 
L 163.656 80.496 
L 145.176 112.504299 
L 163.656 144.512598 
L 200.616 144.512598 
L 219.096 112.504299 
" clip-path="url(#p6a4562dabb)" style="fill: none; stroke: #8a948d; stroke-opacity: 0.5; stroke-width: 0.8; stroke-linejoin: miter"/>
   </g>
   <g id="line2d_6">
    <path d="M 219.096 48.487701 
L 200.616 16.479402 
L 163.656 16.479402 
L 145.176 48.487701 
L 163.656 80.496 
L 200.616 80.496 
L 219.096 48.487701 
" clip-path="url(#p6a4562dabb)" style="fill: none; stroke: #8a948d; stroke-opacity: 0.5; stroke-width: 0.8; stroke-linejoin: miter"/>
   </g>
   <g id="line2d_7">
    <path d="M 145.176 48.487701 
L 108.216 48.487701 
" clip-path="url(#p6a4562dabb)" style="fill: none; stroke: #2e5a3f; stroke-width: 2.6; stroke-linecap: round"/>
   </g>
   <g id="line2d_8">
    <path d="M 145.176 48.487701 
L 162.732 18.079817 
" clip-path="url(#p6a4562dabb)" style="fill: none; stroke: #2e5a3f; stroke-width: 1.7; stroke-linecap: round"/>
   </g>
   <g id="line2d_9">
    <path d="M 108.216 48.487701 
L 89.736 80.496 
" clip-path="url(#p6a4562dabb)" style="fill: none; stroke: #2e5a3f; stroke-width: 2.6; stroke-linecap: round"/>
   </g>
   <g id="line2d_10">
    <path d="M 108.216 48.487701 
L 90.66 18.079817 
" clip-path="url(#p6a4562dabb)" style="fill: none; stroke: #2e5a3f; stroke-width: 1.7; stroke-linecap: round"/>
   </g>
   <g id="line2d_11">
    <path d="M 89.736 80.496 
L 108.216 112.504299 
" clip-path="url(#p6a4562dabb)" style="fill: none; stroke: #2e5a3f; stroke-width: 2.6; stroke-linecap: round"/>
   </g>
   <g id="line2d_12">
    <path d="M 89.736 80.496 
L 54.624 80.496 
" clip-path="url(#p6a4562dabb)" style="fill: none; stroke: #2e5a3f; stroke-width: 1.7; stroke-linecap: round"/>
   </g>
   <g id="line2d_13">
    <path d="M 108.216 112.504299 
L 145.176 112.504299 
" clip-path="url(#p6a4562dabb)" style="fill: none; stroke: #2e5a3f; stroke-width: 2.6; stroke-linecap: round"/>
   </g>
   <g id="line2d_14">
    <path d="M 108.216 112.504299 
L 90.66 142.912183 
" clip-path="url(#p6a4562dabb)" style="fill: none; stroke: #2e5a3f; stroke-width: 1.7; stroke-linecap: round"/>
   </g>
   <g id="line2d_15">
    <path d="M 145.176 112.504299 
L 163.656 80.496 
" clip-path="url(#p6a4562dabb)" style="fill: none; stroke: #2e5a3f; stroke-width: 2.6; stroke-linecap: round"/>
   </g>
   <g id="line2d_16">
    <path d="M 145.176 112.504299 
L 162.732 142.912183 
" clip-path="url(#p6a4562dabb)" style="fill: none; stroke: #2e5a3f; stroke-width: 1.7; stroke-linecap: round"/>
   </g>
   <g id="line2d_17">
    <path d="M 163.656 80.496 
L 145.176 48.487701 
" clip-path="url(#p6a4562dabb)" style="fill: none; stroke: #2e5a3f; stroke-width: 2.6; stroke-linecap: round"/>
   </g>
   <g id="line2d_18">
    <path d="M 163.656 80.496 
L 198.768 80.496 
" clip-path="url(#p6a4562dabb)" style="fill: none; stroke: #2e5a3f; stroke-width: 1.7; stroke-linecap: round"/>
   </g>
   <g id="patch_3">
    <path d="M 129.6528 48.487701 
Q 126.696 48.487701 123.7392 48.487701 
" clip-path="url(#p6a4562dabb)" style="fill: none"/>
    <path d="M 128.9392 51.087701 
L 123.7392 48.487701 
L 128.9392 45.887701 
z
" clip-path="url(#p6a4562dabb)" style="fill: #2e5a3f"/>
   </g>
   <g id="patch_4">
    <path d="M 100.4544 61.931187 
Q 98.976 64.491851 97.4976 67.052514 
" clip-path="url(#p6a4562dabb)" style="fill: none"/>
    <path d="M 102.349266 63.849182 
L 97.4976 67.052514 
L 97.845934 61.249182 
z
" clip-path="url(#p6a4562dabb)" style="fill: #2e5a3f"/>
   </g>
   <g id="patch_5">
    <path d="M 97.4976 93.939486 
Q 98.976 96.500149 100.4544 99.060813 
" clip-path="url(#p6a4562dabb)" style="fill: none"/>
    <path d="M 100.106066 93.257481 
L 100.4544 99.060813 
L 95.602734 95.857481 
z
" clip-path="url(#p6a4562dabb)" style="fill: #2e5a3f"/>
   </g>
   <g id="patch_6">
    <path d="M 123.7392 112.504299 
Q 126.696 112.504299 129.6528 112.504299 
" clip-path="url(#p6a4562dabb)" style="fill: none"/>
    <path d="M 124.4528 109.904299 
L 129.6528 112.504299 
L 124.4528 115.104299 
z
" clip-path="url(#p6a4562dabb)" style="fill: #2e5a3f"/>
   </g>
   <g id="patch_7">
    <path d="M 152.9376 99.060813 
Q 154.416 96.500149 155.8944 93.939486 
" clip-path="url(#p6a4562dabb)" style="fill: none"/>
    <path d="M 151.042734 97.142818 
L 155.8944 93.939486 
L 155.546066 99.742818 
z
" clip-path="url(#p6a4562dabb)" style="fill: #2e5a3f"/>
   </g>
   <g id="patch_8">
    <path d="M 155.8944 67.052514 
Q 154.416 64.491851 152.9376 61.931187 
" clip-path="url(#p6a4562dabb)" style="fill: none"/>
    <path d="M 153.285934 67.734519 
L 152.9376 61.931187 
L 157.789266 65.134519 
z
" clip-path="url(#p6a4562dabb)" style="fill: #2e5a3f"/>
   </g>
   <g id="patch_9">
    <path d="M 145.176 50.520501 
C 145.715105 50.520501 146.232202 50.306312 146.613407 49.925108 
C 146.994611 49.543903 147.2088 49.026806 147.2088 48.487701 
C 147.2088 47.948596 146.994611 47.431499 146.613407 47.050294 
C 146.232202 46.66909 145.715105 46.454901 145.176 46.454901 
C 144.636895 46.454901 144.119798 46.66909 143.738593 47.050294 
C 143.357389 47.431499 143.1432 47.948596 143.1432 48.487701 
C 143.1432 49.026806 143.357389 49.543903 143.738593 49.925108 
C 144.119798 50.306312 144.636895 50.520501 145.176 50.520501 
z
" clip-path="url(#p6a4562dabb)" style="fill: #2e5a3f; stroke: #2e5a3f; stroke-width: 1.3; stroke-linejoin: miter"/>
   </g>
   <g id="patch_10">
    <path d="M 108.216 50.520501 
C 108.755105 50.520501 109.272202 50.306312 109.653407 49.925108 
C 110.034611 49.543903 110.2488 49.026806 110.2488 48.487701 
C 110.2488 47.948596 110.034611 47.431499 109.653407 47.050294 
C 109.272202 46.66909 108.755105 46.454901 108.216 46.454901 
C 107.676895 46.454901 107.159798 46.66909 106.778593 47.050294 
C 106.397389 47.431499 106.1832 47.948596 106.1832 48.487701 
C 106.1832 49.026806 106.397389 49.543903 106.778593 49.925108 
C 107.159798 50.306312 107.676895 50.520501 108.216 50.520501 
z
" clip-path="url(#p6a4562dabb)" style="fill: #2e5a3f; stroke: #2e5a3f; stroke-width: 1.3; stroke-linejoin: miter"/>
   </g>
   <g id="patch_11">
    <path d="M 89.736 82.5288 
C 90.275105 82.5288 90.792202 82.314611 91.173407 81.933407 
C 91.554611 81.552202 91.7688 81.035105 91.7688 80.496 
C 91.7688 79.956895 91.554611 79.439798 91.173407 79.058593 
C 90.792202 78.677389 90.275105 78.4632 89.736 78.4632 
C 89.196895 78.4632 88.679798 78.677389 88.298593 79.058593 
C 87.917389 79.439798 87.7032 79.956895 87.7032 80.496 
C 87.7032 81.035105 87.917389 81.552202 88.298593 81.933407 
C 88.679798 82.314611 89.196895 82.5288 89.736 82.5288 
z
" clip-path="url(#p6a4562dabb)" style="fill: #2e5a3f; stroke: #2e5a3f; stroke-width: 1.3; stroke-linejoin: miter"/>
   </g>
   <g id="patch_12">
    <path d="M 108.216 114.537099 
C 108.755105 114.537099 109.272202 114.32291 109.653407 113.941706 
C 110.034611 113.560501 110.2488 113.043404 110.2488 112.504299 
C 110.2488 111.965194 110.034611 111.448097 109.653407 111.066892 
C 109.272202 110.685688 108.755105 110.471499 108.216 110.471499 
C 107.676895 110.471499 107.159798 110.685688 106.778593 111.066892 
C 106.397389 111.448097 106.1832 111.965194 106.1832 112.504299 
C 106.1832 113.043404 106.397389 113.560501 106.778593 113.941706 
C 107.159798 114.32291 107.676895 114.537099 108.216 114.537099 
z
" clip-path="url(#p6a4562dabb)" style="fill: #2e5a3f; stroke: #2e5a3f; stroke-width: 1.3; stroke-linejoin: miter"/>
   </g>
   <g id="patch_13">
    <path d="M 145.176 114.537099 
C 145.715105 114.537099 146.232202 114.32291 146.613407 113.941706 
C 146.994611 113.560501 147.2088 113.043404 147.2088 112.504299 
C 147.2088 111.965194 146.994611 111.448097 146.613407 111.066892 
C 146.232202 110.685688 145.715105 110.471499 145.176 110.471499 
C 144.636895 110.471499 144.119798 110.685688 143.738593 111.066892 
C 143.357389 111.448097 143.1432 111.965194 143.1432 112.504299 
C 143.1432 113.043404 143.357389 113.560501 143.738593 113.941706 
C 144.119798 114.32291 144.636895 114.537099 145.176 114.537099 
z
" clip-path="url(#p6a4562dabb)" style="fill: #2e5a3f; stroke: #2e5a3f; stroke-width: 1.3; stroke-linejoin: miter"/>
   </g>
   <g id="patch_14">
    <path d="M 163.656 82.5288 
C 164.195105 82.5288 164.712202 82.314611 165.093407 81.933407 
C 165.474611 81.552202 165.6888 81.035105 165.6888 80.496 
C 165.6888 79.956895 165.474611 79.439798 165.093407 79.058593 
C 164.712202 78.677389 164.195105 78.4632 163.656 78.4632 
C 163.116895 78.4632 162.599798 78.677389 162.218593 79.058593 
C 161.837389 79.439798 161.6232 79.956895 161.6232 80.496 
C 161.6232 81.035105 161.837389 81.552202 162.218593 81.933407 
C 162.599798 82.314611 163.116895 82.5288 163.656 82.5288 
z
" clip-path="url(#p6a4562dabb)" style="fill: #2e5a3f; stroke: #2e5a3f; stroke-width: 1.3; stroke-linejoin: miter"/>
   </g>
   <g id="text_1">
    <!-- $e_1$ -->
    <g style="fill: #2e5a3f" transform="translate(122.286 60.766172) scale(0.105 -0.105)">
     <defs>
      <path id="STIXGeneral-Italic-65" d="M 2291 698 
L 2368 621 
Q 1805 -70 1062 -70 
Q 672 -70 435 170 
Q 198 410 198 806 
Q 198 1555 796 2188 
Q 1395 2822 2112 2822 
Q 2362 2822 2499 2707 
Q 2637 2592 2637 2387 
Q 2637 1965 2147 1632 
Q 1658 1299 819 1190 
Q 755 1062 755 800 
Q 755 538 918 378 
Q 1082 218 1350 218 
Q 1562 218 1754 317 
Q 1946 416 2291 698 
z
M 973 1613 
L 864 1331 
Q 1581 1504 1894 1805 
Q 2214 2112 2214 2426 
Q 2214 2675 1990 2675 
Q 1722 2675 1430 2364 
Q 1139 2054 973 1613 
z
" transform="scale(0.015625)"/>
      <path id="STIXGeneral-Regular-31" d="M 2522 0 
L 755 0 
L 755 96 
Q 1107 115 1235 227 
Q 1363 339 1363 608 
L 1363 3482 
Q 1363 3795 1171 3795 
Q 1082 3795 883 3718 
L 710 3654 
L 710 3744 
L 1856 4326 
L 1914 4307 
L 1914 486 
Q 1914 275 2042 185 
Q 2170 96 2522 96 
L 2522 0 
z
" transform="scale(0.015625)"/>
     </defs>
     <use xlink:href="#STIXGeneral-Italic-65" transform="translate(0 0.90625)"/>
     <use xlink:href="#STIXGeneral-Regular-31" transform="translate(44.399994 -12.321875) scale(0.7)"/>
    </g>
   </g>
   <g id="text_2">
    <!-- $e_2$ -->
    <g style="fill: #2e5a3f" transform="translate(103.081021 71.854172) scale(0.105 -0.105)">
     <defs>
      <path id="STIXGeneral-Regular-32" d="M 3034 877 
L 2688 0 
L 186 0 
L 186 77 
L 1325 1286 
Q 1773 1754 1965 2144 
Q 2157 2534 2157 2950 
Q 2157 3379 1920 3616 
Q 1683 3853 1267 3853 
Q 922 3853 720 3673 
Q 518 3494 326 3021 
L 192 3053 
Q 301 3648 630 3987 
Q 960 4326 1523 4326 
Q 2054 4326 2380 4006 
Q 2707 3686 2707 3200 
Q 2707 2477 1888 1613 
L 832 486 
L 2330 486 
Q 2541 486 2665 569 
Q 2790 653 2944 915 
L 3034 877 
z
" transform="scale(0.015625)"/>
     </defs>
     <use xlink:href="#STIXGeneral-Italic-65" transform="translate(0 0.90625)"/>
     <use xlink:href="#STIXGeneral-Regular-32" transform="translate(44.399994 -12.321875) scale(0.7)"/>
    </g>
   </g>
   <g id="text_3">
    <!-- $e_3$ -->
    <g style="fill: #2e5a3f" transform="translate(103.081021 94.030172) scale(0.105 -0.105)">
     <defs>
      <path id="STIXGeneral-Regular-33" d="M 390 3264 
L 288 3290 
Q 435 3770 748 4048 
Q 1062 4326 1542 4326 
Q 1990 4326 2265 4083 
Q 2541 3840 2541 3450 
Q 2541 2925 1946 2566 
Q 2298 2413 2477 2227 
Q 2758 1914 2758 1402 
Q 2758 890 2464 506 
Q 2246 211 1840 60 
Q 1434 -90 979 -90 
Q 262 -90 262 275 
Q 262 378 339 442 
Q 416 506 525 506 
Q 685 506 915 339 
Q 1197 141 1466 141 
Q 1818 141 2058 425 
Q 2298 710 2298 1120 
Q 2298 1856 1632 2048 
Q 1434 2112 979 2112 
L 979 2202 
Q 1338 2323 1517 2432 
Q 2035 2726 2035 3290 
Q 2035 3610 1852 3776 
Q 1670 3942 1344 3942 
Q 768 3942 390 3264 
z
" transform="scale(0.015625)"/>
     </defs>
     <use xlink:href="#STIXGeneral-Italic-65" transform="translate(0 0.90625)"/>
     <use xlink:href="#STIXGeneral-Regular-33" transform="translate(44.399994 -12.321875) scale(0.7)"/>
    </g>
   </g>
   <g id="text_4">
    <!-- $e_4$ -->
    <g style="fill: #2e5a3f" transform="translate(122.286 105.118172) scale(0.105 -0.105)">
     <defs>
      <path id="STIXGeneral-Regular-34" d="M 3027 1069 
L 2368 1069 
L 2368 0 
L 1869 0 
L 1869 1069 
L 77 1069 
L 77 1478 
L 2086 4326 
L 2368 4326 
L 2368 1478 
L 3027 1478 
L 3027 1069 
z
M 1869 1478 
L 1869 3674 
L 333 1478 
L 1869 1478 
z
" transform="scale(0.015625)"/>
     </defs>
     <use xlink:href="#STIXGeneral-Italic-65" transform="translate(0 0.90625)"/>
     <use xlink:href="#STIXGeneral-Regular-34" transform="translate(44.399994 -12.321875) scale(0.7)"/>
    </g>
   </g>
   <g id="text_5">
    <!-- $e_5$ -->
    <g style="fill: #2e5a3f" transform="translate(141.490979 94.030172) scale(0.105 -0.105)">
     <defs>
      <path id="STIXGeneral-Regular-35" d="M 2803 4358 
L 2573 3814 
Q 2534 3731 2400 3731 
L 1158 3731 
L 902 3187 
Q 1606 3053 1920 2896 
Q 2234 2739 2502 2368 
Q 2726 2061 2726 1555 
Q 2726 1094 2576 780 
Q 2426 467 2099 224 
Q 1664 -90 1011 -90 
Q 646 -90 422 19 
Q 198 128 198 307 
Q 198 550 486 550 
Q 717 550 960 352 
Q 1210 147 1414 147 
Q 1747 147 2012 480 
Q 2278 813 2278 1229 
Q 2278 1843 1850 2189 
Q 1293 2637 486 2637 
Q 410 2637 410 2688 
L 416 2720 
L 1114 4237 
L 2438 4237 
Q 2547 4237 2608 4269 
Q 2669 4301 2746 4403 
L 2803 4358 
z
" transform="scale(0.015625)"/>
     </defs>
     <use xlink:href="#STIXGeneral-Italic-65" transform="translate(0 0.90625)"/>
     <use xlink:href="#STIXGeneral-Regular-35" transform="translate(44.399994 -12.321875) scale(0.7)"/>
    </g>
   </g>
   <g id="text_6">
    <!-- $e_6$ -->
    <g style="fill: #2e5a3f" transform="translate(141.490979 71.854172) scale(0.105 -0.105)">
     <defs>
      <path id="STIXGeneral-Regular-36" d="M 2854 4378 
L 2867 4275 
Q 2112 4154 1606 3664 
Q 1101 3174 973 2451 
Q 1344 2739 1786 2739 
Q 2349 2739 2672 2380 
Q 2995 2022 2995 1402 
Q 2995 774 2669 378 
Q 2291 -90 1651 -90 
Q 870 -90 518 557 
Q 218 1107 218 1786 
Q 218 2835 915 3552 
Q 1312 3962 1731 4131 
Q 2150 4301 2854 4378 
z
M 2419 1203 
Q 2419 2445 1555 2445 
Q 1235 2445 1024 2275 
Q 813 2106 813 1702 
Q 813 954 1046 522 
Q 1280 90 1722 90 
Q 2061 90 2240 394 
Q 2419 698 2419 1203 
z
" transform="scale(0.015625)"/>
     </defs>
     <use xlink:href="#STIXGeneral-Italic-65" transform="translate(0 0.90625)"/>
     <use xlink:href="#STIXGeneral-Regular-36" transform="translate(44.399994 -12.321875) scale(0.7)"/>
    </g>
   </g>
   <g id="text_7">
    <!-- $p$ -->
    <g style="fill: #2e5a3f" transform="translate(123.381 83.524594) scale(0.13 -0.13)">
     <defs>
      <path id="STIXGeneral-Italic-70" d="M 1376 2739 
L 1190 2099 
Q 1670 2822 2285 2822 
Q 2637 2822 2829 2611 
Q 3021 2400 3021 2022 
Q 3021 1235 2422 582 
Q 1824 -70 1120 -70 
Q 890 -70 678 38 
Q 422 -1018 422 -1024 
Q 422 -1126 508 -1168 
Q 595 -1210 819 -1210 
L 819 -1312 
L -480 -1312 
L -480 -1210 
Q -275 -1203 -188 -1120 
Q -102 -1037 -45 -806 
L 691 1958 
Q 794 2330 794 2413 
Q 794 2586 512 2586 
L 371 2586 
L 358 2682 
L 1357 2822 
Q 1389 2822 1389 2797 
Q 1382 2765 1376 2739 
z
M 2445 2003 
Q 2445 2285 2352 2416 
Q 2259 2547 2048 2547 
Q 1798 2547 1548 2329 
Q 1299 2112 1184 1818 
Q 1043 1453 905 953 
Q 768 454 768 294 
Q 768 186 854 118 
Q 941 51 1075 51 
Q 1574 51 2003 659 
Q 2445 1274 2445 2003 
z
" transform="scale(0.015625)"/>
     </defs>
     <use xlink:href="#STIXGeneral-Italic-70" transform="translate(0 0.90625)"/>
    </g>
   </g>
   <g id="text_8">
    <!-- $v_k$: the vertices, counterclockwise -->
    <g style="fill: #1a1a1a" transform="translate(237.576 33.046172) scale(0.105 -0.105)">
     <defs>
      <path id="STIXGeneral-Italic-76" d="M 1325 448 
L 1523 653 
Q 1869 1005 2134 1456 
Q 2400 1907 2400 2131 
Q 2400 2208 2285 2317 
Q 2125 2458 2125 2605 
Q 2125 2701 2195 2761 
Q 2266 2822 2368 2822 
Q 2522 2822 2624 2704 
Q 2726 2586 2726 2445 
Q 2726 2074 2323 1453 
Q 1971 909 1562 474 
Q 1504 416 1421 326 
Q 1338 237 1299 192 
Q 1261 147 1200 86 
Q 1139 26 1110 -3 
Q 1082 -32 1043 -64 
Q 1005 -96 979 -105 
Q 954 -115 928 -115 
Q 870 -115 870 58 
L 870 211 
Q 870 1094 717 1990 
Q 653 2355 579 2470 
Q 506 2586 326 2586 
Q 198 2586 128 2579 
L 128 2662 
Q 480 2720 845 2797 
Q 915 2822 973 2822 
Q 1011 2822 1033 2739 
Q 1056 2656 1165 2093 
Q 1280 1510 1325 448 
z
" transform="scale(0.015625)"/>
      <path id="STIXGeneral-Italic-6b" d="M 2950 2739 
L 2950 2637 
Q 2720 2624 2464 2448 
Q 2208 2272 1510 1651 
L 1747 1088 
Q 2099 262 2266 262 
Q 2400 262 2554 531 
Q 2586 582 2650 698 
L 2746 627 
Q 2522 224 2374 77 
Q 2227 -70 2035 -70 
Q 1894 -70 1782 42 
Q 1670 154 1517 454 
Q 1325 826 1133 1357 
L 877 1152 
L 570 0 
L 90 0 
L 992 3379 
Q 1082 3699 1107 3942 
Q 1088 4096 781 4096 
L 666 4096 
L 666 4198 
Q 1146 4256 1670 4371 
L 1709 4333 
L 941 1414 
L 1216 1626 
Q 2131 2330 2131 2522 
Q 2131 2637 1894 2637 
L 1805 2637 
L 1805 2739 
L 2950 2739 
z
" transform="scale(0.015625)"/>
      <path id="STIXGeneral-Regular-3a" d="M 1123 2832 
Q 1229 2726 1229 2579 
Q 1229 2432 1126 2329 
Q 1024 2227 877 2227 
Q 730 2227 624 2332 
Q 518 2438 518 2579 
Q 518 2733 620 2835 
Q 723 2938 877 2938 
Q 1018 2938 1123 2832 
z
M 1229 282 
Q 1229 141 1126 35 
Q 1024 -70 877 -70 
Q 730 -70 624 35 
Q 518 141 518 282 
Q 518 435 620 537 
Q 723 640 877 640 
Q 1018 640 1123 534 
Q 1229 429 1229 282 
z
" transform="scale(0.015625)"/>
      <path id="STIXGeneral-Regular-20" transform="scale(0.015625)"/>
      <path id="STIXGeneral-Regular-74" d="M 1702 493 
L 1786 422 
Q 1478 -64 1011 -64 
Q 448 -64 448 749 
L 448 2675 
L 109 2675 
Q 83 2694 83 2720 
Q 83 2771 192 2842 
Q 435 2982 813 3526 
Q 826 3546 874 3606 
Q 922 3667 941 3706 
Q 986 3706 986 3622 
L 986 2880 
L 1632 2880 
L 1632 2675 
L 986 2675 
L 986 845 
Q 986 538 1062 403 
Q 1139 269 1318 269 
Q 1510 269 1702 493 
z
" transform="scale(0.015625)"/>
      <path id="STIXGeneral-Regular-68" d="M 3117 0 
L 1760 0 
L 1760 96 
Q 2042 128 2118 224 
Q 2195 320 2195 653 
L 2195 1920 
Q 2195 2598 1722 2598 
Q 1530 2598 1370 2508 
Q 1210 2419 1005 2195 
L 1005 653 
Q 1005 320 1081 224 
Q 1158 128 1440 96 
L 1440 0 
L 58 0 
L 58 96 
Q 333 134 400 224 
Q 467 314 467 653 
L 467 3667 
Q 467 3872 406 3933 
Q 346 3994 141 3994 
Q 83 3994 64 3987 
L 64 4090 
L 237 4141 
Q 730 4288 973 4371 
L 1005 4352 
L 1005 2406 
Q 1229 2694 1446 2819 
Q 1664 2944 1946 2944 
Q 2733 2944 2733 1926 
L 2733 653 
Q 2733 320 2793 233 
Q 2854 147 3117 96 
L 3117 0 
z
" transform="scale(0.015625)"/>
      <path id="STIXGeneral-Regular-65" d="M 2611 1050 
L 2714 1005 
Q 2330 -64 1376 -64 
Q 813 -64 486 329 
Q 160 723 160 1389 
Q 160 2074 525 2509 
Q 890 2944 1485 2944 
Q 2061 2944 2374 2502 
Q 2560 2246 2592 1773 
L 621 1773 
Q 646 1370 700 1158 
Q 755 947 915 730 
Q 1184 378 1626 378 
Q 1939 378 2153 531 
Q 2368 685 2611 1050 
z
M 634 1978 
L 1939 1978 
Q 1882 2381 1750 2547 
Q 1619 2714 1312 2714 
Q 1043 2714 864 2525 
Q 685 2336 634 1978 
z
" transform="scale(0.015625)"/>
      <path id="STIXGeneral-Regular-76" d="M 3053 2880 
L 3053 2784 
Q 2906 2771 2835 2688 
Q 2765 2605 2637 2285 
L 1818 230 
Q 1690 -90 1638 -90 
Q 1587 -90 1523 77 
Q 1510 96 1497 141 
Q 1485 186 1472 211 
L 704 2048 
Q 499 2534 403 2652 
Q 307 2771 122 2784 
L 122 2880 
L 1376 2880 
L 1376 2784 
Q 1210 2771 1146 2732 
Q 1082 2694 1082 2611 
Q 1082 2509 1139 2368 
L 1792 730 
L 2426 2387 
Q 2464 2483 2464 2579 
Q 2464 2758 2163 2784 
L 2163 2880 
L 3053 2880 
z
" transform="scale(0.015625)"/>
      <path id="STIXGeneral-Regular-72" d="M 1024 2931 
L 1024 2342 
Q 1267 2688 1430 2816 
Q 1594 2944 1792 2944 
Q 1958 2944 2051 2854 
Q 2144 2765 2144 2605 
Q 2144 2470 2077 2393 
Q 2010 2317 1894 2317 
Q 1773 2317 1638 2445 
Q 1536 2541 1472 2541 
Q 1338 2541 1181 2355 
Q 1024 2170 1024 2016 
L 1024 576 
Q 1024 301 1133 205 
Q 1242 109 1568 96 
L 1568 0 
L 32 0 
L 32 96 
Q 339 154 412 224 
Q 486 294 486 538 
L 486 2138 
Q 486 2349 438 2435 
Q 390 2522 269 2522 
Q 166 2522 45 2496 
L 45 2598 
Q 448 2726 992 2944 
L 1024 2931 
z
" transform="scale(0.015625)"/>
      <path id="STIXGeneral-Regular-69" d="M 1152 4045 
Q 1152 3904 1056 3811 
Q 960 3718 819 3718 
Q 685 3718 592 3811 
Q 499 3904 499 4045 
Q 499 4179 595 4275 
Q 691 4371 826 4371 
Q 966 4371 1059 4275 
Q 1152 4179 1152 4045 
z
M 1619 0 
L 102 0 
L 102 96 
Q 435 115 521 211 
Q 608 307 608 666 
L 608 2118 
Q 608 2342 563 2432 
Q 518 2522 397 2522 
Q 243 2522 128 2490 
L 128 2592 
L 1120 2944 
L 1146 2918 
L 1146 672 
Q 1146 314 1226 218 
Q 1306 122 1619 96 
L 1619 0 
z
" transform="scale(0.015625)"/>
      <path id="STIXGeneral-Regular-63" d="M 2547 998 
L 2637 941 
Q 2362 403 2112 205 
Q 1786 -64 1376 -64 
Q 845 -64 502 336 
Q 160 736 160 1357 
Q 160 2170 698 2618 
Q 1094 2944 1562 2944 
Q 1965 2944 2256 2749 
Q 2547 2554 2547 2285 
Q 2547 2176 2457 2096 
Q 2368 2016 2246 2016 
Q 2022 2016 1939 2310 
L 1901 2451 
Q 1850 2630 1773 2694 
Q 1696 2758 1523 2758 
Q 1133 2758 893 2451 
Q 653 2144 653 1645 
Q 653 1094 928 745 
Q 1203 397 1645 397 
Q 1920 397 2118 528 
Q 2317 659 2547 998 
z
" transform="scale(0.015625)"/>
      <path id="STIXGeneral-Regular-73" d="M 998 1926 
L 1664 1523 
Q 1984 1331 2105 1164 
Q 2227 998 2227 736 
Q 2227 416 1961 176 
Q 1696 -64 1331 -64 
Q 1030 -64 864 -6 
Q 691 51 570 51 
Q 461 51 416 -26 
L 333 -26 
L 333 979 
L 435 979 
Q 538 512 730 294 
Q 922 77 1248 77 
Q 1485 77 1632 211 
Q 1779 346 1779 550 
Q 1779 845 1440 1030 
L 1094 1222 
Q 326 1651 326 2150 
Q 326 2522 566 2730 
Q 806 2938 1210 2938 
Q 1491 2938 1638 2867 
Q 1754 2816 1818 2816 
Q 1862 2816 1920 2880 
L 1990 2880 
L 2022 2010 
L 1926 2010 
Q 1818 2445 1654 2621 
Q 1491 2797 1203 2797 
Q 986 2797 854 2688 
Q 723 2579 723 2362 
Q 723 2253 796 2128 
Q 870 2003 998 1926 
z
" transform="scale(0.015625)"/>
      <path id="STIXGeneral-Regular-2c" d="M 531 -902 
L 467 -781 
Q 998 -422 998 -96 
Q 998 -13 909 -13 
Q 883 -13 822 -25 
Q 762 -38 723 -38 
Q 352 -38 352 288 
Q 352 454 457 553 
Q 563 653 736 653 
Q 954 653 1101 496 
Q 1248 339 1248 96 
Q 1248 -198 1053 -473 
Q 858 -749 531 -902 
z
" transform="scale(0.015625)"/>
      <path id="STIXGeneral-Regular-6f" d="M 3008 1478 
Q 3008 806 2608 371 
Q 2208 -64 1568 -64 
Q 979 -64 582 368 
Q 186 800 186 1459 
Q 186 2125 582 2534 
Q 979 2944 1626 2944 
Q 2221 2944 2614 2537 
Q 3008 2131 3008 1478 
z
M 2432 1306 
Q 2432 2035 2112 2445 
Q 1856 2765 1504 2765 
Q 1171 2765 966 2493 
Q 762 2221 762 1747 
Q 762 928 1101 435 
Q 1318 115 1677 115 
Q 2029 115 2230 432 
Q 2432 749 2432 1306 
z
" transform="scale(0.015625)"/>
      <path id="STIXGeneral-Regular-75" d="M 3072 320 
L 3072 230 
Q 2573 96 2195 -58 
L 2163 -38 
L 2163 486 
L 2150 486 
Q 1747 -64 1235 -64 
Q 870 -64 662 160 
Q 454 384 454 755 
L 454 2362 
Q 454 2598 371 2688 
Q 288 2778 58 2790 
L 58 2880 
L 992 2880 
L 992 813 
Q 992 595 1123 451 
Q 1254 307 1446 307 
Q 1760 307 1984 506 
Q 2067 582 2099 649 
Q 2131 717 2131 877 
L 2131 2355 
Q 2131 2605 2041 2678 
Q 1952 2752 1658 2771 
L 1658 2880 
L 2669 2880 
L 2669 685 
Q 2669 461 2742 390 
Q 2816 320 3034 320 
L 3072 320 
z
" transform="scale(0.015625)"/>
      <path id="STIXGeneral-Regular-6e" d="M 3104 0 
L 1773 0 
L 1779 96 
Q 2016 115 2096 233 
Q 2176 352 2176 672 
L 2176 1946 
Q 2176 2592 1709 2592 
Q 1549 2592 1408 2515 
Q 1267 2438 1050 2227 
L 1050 461 
Q 1050 269 1136 192 
Q 1222 115 1466 96 
L 1466 0 
L 115 0 
L 115 96 
Q 358 115 435 214 
Q 512 314 512 602 
L 512 2157 
Q 512 2394 467 2483 
Q 422 2573 288 2573 
Q 160 2573 102 2547 
L 102 2656 
Q 550 2784 979 2944 
L 1030 2925 
L 1030 2426 
L 1037 2426 
Q 1491 2944 1958 2944 
Q 2323 2944 2518 2688 
Q 2714 2432 2714 1958 
L 2714 544 
Q 2714 288 2790 205 
Q 2867 122 3104 96 
L 3104 0 
z
" transform="scale(0.015625)"/>
      <path id="STIXGeneral-Regular-6c" d="M 1645 0 
L 134 0 
L 134 96 
Q 435 122 531 221 
Q 627 320 627 589 
L 627 3590 
Q 627 3821 569 3910 
Q 512 4000 358 4000 
Q 224 4000 122 3987 
L 122 4090 
Q 730 4237 1133 4371 
L 1165 4346 
L 1165 557 
Q 1165 288 1254 201 
Q 1344 115 1645 96 
L 1645 0 
z
" transform="scale(0.015625)"/>
      <path id="STIXGeneral-Regular-6b" d="M 3232 0 
L 1837 0 
L 1837 96 
L 1958 96 
Q 2093 96 2093 192 
Q 2093 250 2022 339 
L 1062 1606 
L 1062 429 
Q 1062 262 1142 185 
Q 1222 109 1414 102 
L 1542 96 
L 1542 0 
L 45 0 
L 45 96 
Q 390 154 457 214 
Q 525 275 525 525 
L 525 3610 
Q 525 3840 467 3920 
Q 410 4000 250 4000 
Q 211 4000 45 3987 
L 45 4090 
L 237 4141 
Q 621 4243 1037 4371 
L 1062 4358 
L 1062 1670 
L 1939 2451 
Q 2086 2586 2086 2675 
Q 2086 2739 2019 2761 
Q 1952 2784 1766 2790 
L 1766 2880 
L 3072 2880 
L 3072 2784 
Q 2752 2784 2505 2646 
Q 2259 2509 1690 1978 
L 1504 1805 
L 2483 563 
Q 2829 122 3232 96 
L 3232 0 
z
" transform="scale(0.015625)"/>
      <path id="STIXGeneral-Regular-77" d="M 4442 2880 
L 4442 2784 
Q 4346 2752 4301 2691 
Q 4256 2630 4179 2438 
L 3296 224 
Q 3168 -90 3117 -90 
Q 3085 -90 3062 -48 
Q 3040 -6 2963 186 
L 2381 1696 
L 1664 160 
Q 1549 -90 1504 -90 
Q 1446 -90 1338 192 
L 474 2381 
Q 378 2630 314 2700 
Q 250 2771 134 2784 
L 134 2880 
L 1286 2880 
L 1286 2784 
Q 1120 2765 1056 2720 
Q 992 2675 992 2573 
Q 992 2477 1030 2381 
L 1664 710 
L 2246 1984 
L 2118 2342 
Q 2029 2598 1942 2681 
Q 1856 2765 1677 2784 
L 1677 2880 
L 2976 2880 
L 2976 2784 
Q 2752 2752 2678 2707 
Q 2605 2662 2605 2560 
Q 2605 2458 2714 2176 
L 3251 742 
L 3827 2163 
Q 3936 2432 3936 2592 
Q 3936 2669 3875 2710 
Q 3814 2752 3654 2784 
L 3654 2880 
L 4442 2880 
z
" transform="scale(0.015625)"/>
     </defs>
     <use xlink:href="#STIXGeneral-Italic-76" transform="translate(0 0.703125)"/>
     <use xlink:href="#STIXGeneral-Italic-6b" transform="translate(44.399994 -12.525) scale(0.7)"/>
     <use xlink:href="#STIXGeneral-Regular-3a" transform="translate(79.889365 0.703125)"/>
     <use xlink:href="#STIXGeneral-Regular-20" transform="translate(107.689352 0.703125)"/>
     <use xlink:href="#STIXGeneral-Regular-74" transform="translate(132.689337 0.703125)"/>
     <use xlink:href="#STIXGeneral-Regular-68" transform="translate(160.489325 0.703125)"/>
     <use xlink:href="#STIXGeneral-Regular-65" transform="translate(210.48931 0.703125)"/>
     <use xlink:href="#STIXGeneral-Regular-20" transform="translate(254.889304 0.703125)"/>
     <use xlink:href="#STIXGeneral-Regular-76" transform="translate(279.889288 0.703125)"/>
     <use xlink:href="#STIXGeneral-Regular-65" transform="translate(329.889273 0.703125)"/>
     <use xlink:href="#STIXGeneral-Regular-72" transform="translate(374.289267 0.703125)"/>
     <use xlink:href="#STIXGeneral-Regular-74" transform="translate(407.589255 0.703125)"/>
     <use xlink:href="#STIXGeneral-Regular-69" transform="translate(435.389243 0.703125)"/>
     <use xlink:href="#STIXGeneral-Regular-63" transform="translate(463.18923 0.703125)"/>
     <use xlink:href="#STIXGeneral-Regular-65" transform="translate(507.589224 0.703125)"/>
     <use xlink:href="#STIXGeneral-Regular-73" transform="translate(551.989218 0.703125)"/>
     <use xlink:href="#STIXGeneral-Regular-2c" transform="translate(590.889212 0.703125)"/>
     <use xlink:href="#STIXGeneral-Regular-20" transform="translate(615.889197 0.703125)"/>
     <use xlink:href="#STIXGeneral-Regular-63" transform="translate(640.889182 0.703125)"/>
     <use xlink:href="#STIXGeneral-Regular-6f" transform="translate(685.289175 0.703125)"/>
     <use xlink:href="#STIXGeneral-Regular-75" transform="translate(735.28916 0.703125)"/>
     <use xlink:href="#STIXGeneral-Regular-6e" transform="translate(785.289145 0.703125)"/>
     <use xlink:href="#STIXGeneral-Regular-74" transform="translate(835.28913 0.703125)"/>
     <use xlink:href="#STIXGeneral-Regular-65" transform="translate(863.089117 0.703125)"/>
     <use xlink:href="#STIXGeneral-Regular-72" transform="translate(907.489111 0.703125)"/>
     <use xlink:href="#STIXGeneral-Regular-63" transform="translate(940.789099 0.703125)"/>
     <use xlink:href="#STIXGeneral-Regular-6c" transform="translate(985.189093 0.703125)"/>
     <use xlink:href="#STIXGeneral-Regular-6f" transform="translate(1012.989081 0.703125)"/>
     <use xlink:href="#STIXGeneral-Regular-63" transform="translate(1062.989066 0.703125)"/>
     <use xlink:href="#STIXGeneral-Regular-6b" transform="translate(1107.389059 0.703125)"/>
     <use xlink:href="#STIXGeneral-Regular-77" transform="translate(1157.389044 0.703125)"/>
     <use xlink:href="#STIXGeneral-Regular-69" transform="translate(1229.589026 0.703125)"/>
     <use xlink:href="#STIXGeneral-Regular-73" transform="translate(1257.389014 0.703125)"/>
     <use xlink:href="#STIXGeneral-Regular-65" transform="translate(1296.289008 0.703125)"/>
    </g>
   </g>
   <g id="text_9">
    <!-- $e_k$: the edge from $v_k$ to $v_{k+1}$ -->
    <g style="fill: #2e5a3f" transform="translate(237.576 51.5475) scale(0.105 -0.105)">
     <defs>
      <path id="STIXGeneral-Regular-64" d="M 3142 269 
L 2202 -64 
L 2176 -45 
L 2176 365 
Q 1869 -64 1357 -64 
Q 826 -64 499 317 
Q 173 698 173 1312 
Q 173 1990 563 2467 
Q 954 2944 1504 2944 
Q 1850 2944 2176 2669 
L 2176 3667 
Q 2176 3866 2118 3930 
Q 2061 3994 1882 3994 
Q 1792 3994 1741 3987 
L 1741 4090 
Q 2323 4243 2682 4371 
L 2714 4358 
L 2714 730 
Q 2714 506 2768 435 
Q 2822 365 2995 365 
Q 3034 365 3142 371 
L 3142 269 
z
M 2176 653 
L 2176 2125 
Q 2176 2381 1981 2573 
Q 1786 2765 1523 2765 
Q 1158 2765 940 2438 
Q 723 2112 723 1568 
Q 723 979 963 624 
Q 1203 269 1606 269 
Q 1907 269 2080 474 
Q 2176 582 2176 653 
z
" transform="scale(0.015625)"/>
      <path id="STIXGeneral-Regular-67" d="M 3008 2483 
L 2477 2483 
Q 2598 2208 2598 1946 
Q 2598 1453 2265 1203 
Q 1933 954 1600 954 
Q 1530 954 1357 973 
L 1235 986 
Q 1107 947 979 812 
Q 851 678 851 582 
Q 851 435 1350 410 
L 2176 371 
Q 2528 358 2739 172 
Q 2950 -13 2950 -314 
Q 2950 -685 2566 -986 
Q 2035 -1395 1286 -1395 
Q 826 -1395 502 -1212 
Q 179 -1030 179 -774 
Q 179 -595 320 -419 
Q 461 -243 806 6 
Q 602 102 534 172 
Q 467 243 467 346 
Q 467 531 762 787 
Q 909 915 1037 1043 
Q 717 1203 579 1401 
Q 442 1600 442 1901 
Q 442 2336 752 2640 
Q 1062 2944 1510 2944 
Q 1766 2944 2022 2848 
L 2163 2797 
Q 2349 2733 2515 2733 
L 3008 2733 
L 3008 2483 
z
M 973 2163 
L 973 2144 
Q 973 1683 1155 1398 
Q 1338 1114 1632 1114 
Q 1850 1114 1978 1270 
Q 2106 1427 2106 1690 
Q 2106 2112 1914 2464 
Q 1754 2765 1446 2765 
Q 1222 2765 1097 2605 
Q 973 2445 973 2163 
z
M 2771 -410 
Q 2771 -230 2595 -163 
Q 2419 -96 1978 -96 
Q 1344 -96 941 -13 
Q 749 -243 688 -348 
Q 627 -454 627 -563 
Q 627 -774 880 -902 
Q 1133 -1030 1555 -1030 
Q 2099 -1030 2435 -860 
Q 2771 -691 2771 -410 
z
" transform="scale(0.015625)"/>
      <path id="STIXGeneral-Regular-66" d="M 134 2880 
L 659 2880 
Q 666 3264 710 3478 
Q 755 3693 883 3910 
Q 1152 4371 1786 4371 
Q 2074 4371 2262 4259 
Q 2451 4147 2451 3974 
Q 2451 3866 2374 3789 
Q 2298 3712 2182 3712 
Q 2029 3712 1894 3942 
Q 1741 4192 1555 4192 
Q 1197 4192 1197 3622 
L 1197 2880 
L 1978 2880 
L 1978 2675 
L 1197 2675 
L 1197 666 
Q 1197 307 1299 208 
Q 1402 109 1792 96 
L 1792 0 
L 128 0 
L 128 96 
Q 474 115 566 214 
Q 659 314 659 666 
L 659 2675 
L 134 2675 
L 134 2880 
z
" transform="scale(0.015625)"/>
      <path id="STIXGeneral-Regular-6d" d="M 4960 0 
L 3565 0 
L 3565 96 
Q 3834 122 3907 208 
Q 3981 294 3981 576 
L 3981 1894 
Q 3981 2278 3869 2444 
Q 3757 2611 3488 2611 
Q 3264 2611 3107 2521 
Q 2950 2432 2803 2221 
L 2803 608 
Q 2803 301 2896 201 
Q 2989 102 3264 96 
L 3264 0 
L 1830 0 
L 1830 96 
Q 2112 115 2189 188 
Q 2266 262 2266 550 
L 2266 1901 
Q 2266 2611 1850 2611 
Q 1670 2611 1468 2531 
Q 1267 2451 1171 2336 
Q 1088 2240 1088 2227 
L 1088 448 
Q 1088 243 1177 176 
Q 1267 109 1523 96 
L 1523 0 
L 102 0 
L 102 96 
Q 371 102 460 195 
Q 550 288 550 563 
L 550 2150 
Q 550 2387 499 2480 
Q 448 2573 326 2573 
Q 230 2573 122 2547 
L 122 2656 
Q 557 2778 1011 2944 
L 1062 2925 
L 1062 2451 
L 1075 2451 
Q 1363 2752 1584 2848 
Q 1805 2944 2054 2944 
Q 2560 2944 2733 2406 
Q 3232 2944 3776 2944 
Q 4518 2944 4518 1792 
L 4518 493 
Q 4518 282 4582 202 
Q 4646 122 4794 109 
L 4960 96 
L 4960 0 
z
" transform="scale(0.015625)"/>
      <path id="STIXGeneral-Regular-2b" d="M 4070 1408 
L 2400 1408 
L 2400 -262 
L 1978 -262 
L 1978 1408 
L 307 1408 
L 307 1830 
L 1978 1830 
L 1978 3501 
L 2400 3501 
L 2400 1830 
L 4070 1830 
L 4070 1408 
z
" transform="scale(0.015625)"/>
     </defs>
     <use xlink:href="#STIXGeneral-Italic-65" transform="translate(0 0.703125)"/>
     <use xlink:href="#STIXGeneral-Italic-6b" transform="translate(44.399994 -12.525) scale(0.7)"/>
     <use xlink:href="#STIXGeneral-Regular-3a" transform="translate(79.889365 0.703125)"/>
     <use xlink:href="#STIXGeneral-Regular-20" transform="translate(107.689352 0.703125)"/>
     <use xlink:href="#STIXGeneral-Regular-74" transform="translate(132.689337 0.703125)"/>
     <use xlink:href="#STIXGeneral-Regular-68" transform="translate(160.489325 0.703125)"/>
     <use xlink:href="#STIXGeneral-Regular-65" transform="translate(210.48931 0.703125)"/>
     <use xlink:href="#STIXGeneral-Regular-20" transform="translate(254.889304 0.703125)"/>
     <use xlink:href="#STIXGeneral-Regular-65" transform="translate(279.889288 0.703125)"/>
     <use xlink:href="#STIXGeneral-Regular-64" transform="translate(324.289282 0.703125)"/>
     <use xlink:href="#STIXGeneral-Regular-67" transform="translate(374.289267 0.703125)"/>
     <use xlink:href="#STIXGeneral-Regular-65" transform="translate(424.289252 0.703125)"/>
     <use xlink:href="#STIXGeneral-Regular-20" transform="translate(468.689246 0.703125)"/>
     <use xlink:href="#STIXGeneral-Regular-66" transform="translate(493.68923 0.703125)"/>
     <use xlink:href="#STIXGeneral-Regular-72" transform="translate(526.989218 0.703125)"/>
     <use xlink:href="#STIXGeneral-Regular-6f" transform="translate(560.289206 0.703125)"/>
     <use xlink:href="#STIXGeneral-Regular-6d" transform="translate(610.289191 0.703125)"/>
     <use xlink:href="#STIXGeneral-Regular-20" transform="translate(688.089178 0.703125)"/>
     <use xlink:href="#STIXGeneral-Italic-76" transform="translate(713.089163 0.703125)"/>
     <use xlink:href="#STIXGeneral-Italic-6b" transform="translate(757.489157 -12.525) scale(0.7)"/>
     <use xlink:href="#STIXGeneral-Regular-20" transform="translate(792.978528 0.703125)"/>
     <use xlink:href="#STIXGeneral-Regular-74" transform="translate(817.978513 0.703125)"/>
     <use xlink:href="#STIXGeneral-Regular-6f" transform="translate(845.7785 0.703125)"/>
     <use xlink:href="#STIXGeneral-Regular-20" transform="translate(895.778485 0.703125)"/>
     <use xlink:href="#STIXGeneral-Italic-76" transform="translate(920.77847 0.703125)"/>
     <use xlink:href="#STIXGeneral-Italic-6b" transform="translate(965.178464 -12.525) scale(0.7)"/>
     <use xlink:href="#STIXGeneral-Regular-2b" transform="translate(1006.366457 -12.525) scale(0.7)"/>
     <use xlink:href="#STIXGeneral-Regular-31" transform="translate(1064.424444 -12.525) scale(0.7)"/>
    </g>
   </g>
   <g id="text_10">
    <!-- $l_k$: the leg at $v_k$, out of $p$ -->
    <g style="fill: #2e5a3f" transform="translate(237.576 70.0275) scale(0.105 -0.105)">
     <defs>
      <path id="STIXGeneral-Italic-6c" d="M 1786 4339 
L 806 595 
Q 755 410 755 320 
Q 755 205 864 205 
Q 1037 205 1293 570 
L 1453 794 
L 1542 730 
Q 1254 275 1046 102 
Q 838 -70 576 -70 
Q 262 -70 262 288 
Q 262 397 288 480 
L 1165 3834 
Q 1184 3898 1184 3955 
Q 1184 4096 870 4096 
L 755 4096 
L 755 4198 
Q 1203 4250 1747 4371 
L 1786 4339 
z
" transform="scale(0.015625)"/>
      <path id="STIXGeneral-Regular-61" d="M 2829 422 
L 2829 243 
Q 2586 -64 2253 -64 
Q 1888 -64 1843 403 
L 1837 403 
Q 1427 -64 909 -64 
Q 608 -64 422 112 
Q 237 288 237 602 
Q 237 1050 685 1350 
Q 992 1555 1837 1869 
L 1837 2214 
Q 1837 2502 1699 2646 
Q 1562 2790 1338 2790 
Q 1146 2790 1018 2697 
Q 890 2605 890 2477 
Q 890 2419 909 2348 
Q 928 2278 928 2208 
Q 928 2112 841 2029 
Q 755 1946 634 1946 
Q 525 1946 441 2029 
Q 358 2112 358 2240 
Q 358 2547 685 2752 
Q 986 2944 1421 2944 
Q 1939 2944 2176 2656 
Q 2291 2522 2323 2384 
Q 2355 2246 2355 1946 
L 2355 723 
Q 2355 301 2554 301 
Q 2682 301 2829 422 
z
M 1837 813 
L 1837 1715 
Q 1248 1510 1018 1293 
Q 800 1094 800 800 
Q 800 557 921 432 
Q 1043 307 1242 307 
Q 1453 307 1613 410 
Q 1747 506 1792 589 
Q 1837 672 1837 813 
z
" transform="scale(0.015625)"/>
     </defs>
     <use xlink:href="#STIXGeneral-Italic-6c" transform="translate(0 0.703125)"/>
     <use xlink:href="#STIXGeneral-Italic-6b" transform="translate(27.799988 -12.525) scale(0.7)"/>
     <use xlink:href="#STIXGeneral-Regular-3a" transform="translate(63.289359 0.703125)"/>
     <use xlink:href="#STIXGeneral-Regular-20" transform="translate(91.089346 0.703125)"/>
     <use xlink:href="#STIXGeneral-Regular-74" transform="translate(116.089331 0.703125)"/>
     <use xlink:href="#STIXGeneral-Regular-68" transform="translate(143.889319 0.703125)"/>
     <use xlink:href="#STIXGeneral-Regular-65" transform="translate(193.889304 0.703125)"/>
     <use xlink:href="#STIXGeneral-Regular-20" transform="translate(238.289297 0.703125)"/>
     <use xlink:href="#STIXGeneral-Regular-6c" transform="translate(263.289282 0.703125)"/>
     <use xlink:href="#STIXGeneral-Regular-65" transform="translate(291.08927 0.703125)"/>
     <use xlink:href="#STIXGeneral-Regular-67" transform="translate(335.489264 0.703125)"/>
     <use xlink:href="#STIXGeneral-Regular-20" transform="translate(385.489249 0.703125)"/>
     <use xlink:href="#STIXGeneral-Regular-61" transform="translate(410.489233 0.703125)"/>
     <use xlink:href="#STIXGeneral-Regular-74" transform="translate(454.889227 0.703125)"/>
     <use xlink:href="#STIXGeneral-Regular-20" transform="translate(482.689215 0.703125)"/>
     <use xlink:href="#STIXGeneral-Italic-76" transform="translate(507.6892 0.703125)"/>
     <use xlink:href="#STIXGeneral-Italic-6b" transform="translate(552.089194 -12.525) scale(0.7)"/>
     <use xlink:href="#STIXGeneral-Regular-2c" transform="translate(587.578564 0.703125)"/>
     <use xlink:href="#STIXGeneral-Regular-20" transform="translate(612.578549 0.703125)"/>
     <use xlink:href="#STIXGeneral-Regular-6f" transform="translate(637.578534 0.703125)"/>
     <use xlink:href="#STIXGeneral-Regular-75" transform="translate(687.578519 0.703125)"/>
     <use xlink:href="#STIXGeneral-Regular-74" transform="translate(737.578503 0.703125)"/>
     <use xlink:href="#STIXGeneral-Regular-20" transform="translate(765.378491 0.703125)"/>
     <use xlink:href="#STIXGeneral-Regular-6f" transform="translate(790.378476 0.703125)"/>
     <use xlink:href="#STIXGeneral-Regular-66" transform="translate(840.378461 0.703125)"/>
     <use xlink:href="#STIXGeneral-Regular-20" transform="translate(873.678448 0.703125)"/>
     <use xlink:href="#STIXGeneral-Italic-70" transform="translate(898.678433 0.703125)"/>
    </g>
   </g>
   <g id="text_11">
    <!-- at $v_k$ the boundary edges -->
    <g style="fill: #1a1a1a" transform="translate(237.576 95.8995) scale(0.105 -0.105)">
     <defs>
      <path id="STIXGeneral-Regular-62" d="M 979 4358 
L 979 2406 
Q 1082 2650 1315 2797 
Q 1549 2944 1843 2944 
Q 2349 2944 2672 2541 
Q 2995 2138 2995 1536 
Q 2995 832 2566 384 
Q 2138 -64 1498 -64 
Q 1107 -64 774 67 
Q 442 198 442 358 
L 442 3622 
Q 442 3859 384 3926 
Q 326 3994 128 3994 
Q 83 3994 19 3981 
L 19 4090 
L 211 4147 
Q 864 4346 947 4371 
L 979 4358 
z
M 979 2035 
L 979 474 
Q 979 326 1161 233 
Q 1344 141 1600 141 
Q 1978 141 2195 416 
Q 2432 710 2432 1261 
Q 2432 1888 2182 2240 
Q 1971 2541 1613 2541 
Q 1357 2541 1168 2390 
Q 979 2240 979 2035 
z
" transform="scale(0.015625)"/>
      <path id="STIXGeneral-Regular-79" d="M 3040 2880 
L 3040 2784 
Q 2925 2771 2854 2700 
Q 2784 2630 2720 2458 
L 1760 -160 
Q 1510 -838 1257 -1116 
Q 1005 -1395 640 -1395 
Q 435 -1395 313 -1289 
Q 192 -1184 192 -1024 
Q 192 -902 272 -816 
Q 352 -730 467 -730 
Q 653 -730 800 -813 
Q 883 -858 966 -858 
Q 1101 -858 1286 -576 
Q 1376 -448 1459 -211 
Q 1542 26 1542 115 
Q 1542 198 1274 762 
L 429 2566 
Q 346 2752 90 2790 
L 90 2880 
L 1402 2880 
L 1402 2784 
Q 1197 2778 1117 2739 
Q 1037 2701 1037 2611 
Q 1037 2541 1120 2349 
L 1837 749 
L 2458 2515 
Q 2483 2573 2483 2630 
Q 2483 2784 2189 2784 
L 2189 2880 
L 3040 2880 
z
" transform="scale(0.015625)"/>
     </defs>
     <use xlink:href="#STIXGeneral-Regular-61" transform="translate(0 0.703125)"/>
     <use xlink:href="#STIXGeneral-Regular-74" transform="translate(44.399994 0.703125)"/>
     <use xlink:href="#STIXGeneral-Regular-20" transform="translate(72.199982 0.703125)"/>
     <use xlink:href="#STIXGeneral-Italic-76" transform="translate(97.199966 0.703125)"/>
     <use xlink:href="#STIXGeneral-Italic-6b" transform="translate(141.59996 -12.525) scale(0.7)"/>
     <use xlink:href="#STIXGeneral-Regular-20" transform="translate(177.089331 0.703125)"/>
     <use xlink:href="#STIXGeneral-Regular-74" transform="translate(202.089316 0.703125)"/>
     <use xlink:href="#STIXGeneral-Regular-68" transform="translate(229.889304 0.703125)"/>
     <use xlink:href="#STIXGeneral-Regular-65" transform="translate(279.889288 0.703125)"/>
     <use xlink:href="#STIXGeneral-Regular-20" transform="translate(324.289282 0.703125)"/>
     <use xlink:href="#STIXGeneral-Regular-62" transform="translate(349.289267 0.703125)"/>
     <use xlink:href="#STIXGeneral-Regular-6f" transform="translate(399.289252 0.703125)"/>
     <use xlink:href="#STIXGeneral-Regular-75" transform="translate(449.289236 0.703125)"/>
     <use xlink:href="#STIXGeneral-Regular-6e" transform="translate(499.289221 0.703125)"/>
     <use xlink:href="#STIXGeneral-Regular-64" transform="translate(549.289206 0.703125)"/>
     <use xlink:href="#STIXGeneral-Regular-61" transform="translate(599.289191 0.703125)"/>
     <use xlink:href="#STIXGeneral-Regular-72" transform="translate(643.689185 0.703125)"/>
     <use xlink:href="#STIXGeneral-Regular-79" transform="translate(676.989172 0.703125)"/>
     <use xlink:href="#STIXGeneral-Regular-20" transform="translate(726.989157 0.703125)"/>
     <use xlink:href="#STIXGeneral-Regular-65" transform="translate(751.989142 0.703125)"/>
     <use xlink:href="#STIXGeneral-Regular-64" transform="translate(796.389136 0.703125)"/>
     <use xlink:href="#STIXGeneral-Regular-67" transform="translate(846.38912 0.703125)"/>
     <use xlink:href="#STIXGeneral-Regular-65" transform="translate(896.389105 0.703125)"/>
     <use xlink:href="#STIXGeneral-Regular-73" transform="translate(940.789099 0.703125)"/>
    </g>
   </g>
   <g id="text_12">
    <!-- are $e_{k-1}$ and $e_k$  ($e_0\equiv e_6$) -->
    <g style="fill: #1a1a1a" transform="translate(237.576 112.510172) scale(0.105 -0.105)">
     <defs>
      <path id="STIXGeneral-Regular-2212" d="M 3974 1408 
L 410 1408 
L 410 1830 
L 3974 1830 
L 3974 1408 
z
" transform="scale(0.015625)"/>
      <path id="STIXGeneral-Regular-28" d="M 1946 -1030 
L 1869 -1133 
Q 1126 -710 716 32 
Q 307 774 307 1613 
Q 307 3386 1888 4326 
L 1946 4224 
Q 1293 3667 1075 3126 
Q 858 2586 858 1632 
Q 858 685 1082 96 
Q 1306 -493 1946 -1030 
z
" transform="scale(0.015625)"/>
      <path id="STIXGeneral-Regular-30" d="M 3046 2112 
Q 3046 1683 2963 1302 
Q 2880 922 2717 602 
Q 2554 282 2266 96 
Q 1978 -90 1600 -90 
Q 1210 -90 915 108 
Q 621 307 461 640 
Q 301 973 227 1350 
Q 154 1728 154 2150 
Q 154 2746 301 3222 
Q 448 3699 790 4012 
Q 1133 4326 1626 4326 
Q 2253 4326 2649 3712 
Q 3046 3098 3046 2112 
z
M 2432 2080 
Q 2432 3091 2217 3625 
Q 2003 4160 1587 4160 
Q 1190 4160 979 3622 
Q 768 3085 768 2106 
Q 768 1120 979 598 
Q 1190 77 1600 77 
Q 2003 77 2217 598 
Q 2432 1120 2432 2080 
z
" transform="scale(0.015625)"/>
      <path id="STIXGeneral-Regular-2261" d="M 4077 2637 
L 307 2637 
L 307 3059 
L 4077 3059 
L 4077 2637 
z
M 4077 1408 
L 307 1408 
L 307 1830 
L 4077 1830 
L 4077 1408 
z
M 4077 179 
L 307 179 
L 307 602 
L 4077 602 
L 4077 179 
z
" transform="scale(0.015625)"/>
      <path id="STIXGeneral-Regular-29" d="M 186 4224 
L 262 4326 
Q 992 3891 1408 3148 
Q 1824 2406 1824 1581 
Q 1824 -166 243 -1133 
L 186 -1030 
Q 845 -486 1059 54 
Q 1274 595 1274 1562 
Q 1274 2534 1059 3120 
Q 845 3706 186 4224 
z
" transform="scale(0.015625)"/>
     </defs>
     <use xlink:href="#STIXGeneral-Regular-61" transform="translate(0 0.703125)"/>
     <use xlink:href="#STIXGeneral-Regular-72" transform="translate(44.399994 0.703125)"/>
     <use xlink:href="#STIXGeneral-Regular-65" transform="translate(77.699982 0.703125)"/>
     <use xlink:href="#STIXGeneral-Regular-20" transform="translate(122.099976 0.703125)"/>
     <use xlink:href="#STIXGeneral-Italic-65" transform="translate(147.09996 0.703125)"/>
     <use xlink:href="#STIXGeneral-Italic-6b" transform="translate(191.499954 -12.525) scale(0.7)"/>
     <use xlink:href="#STIXGeneral-Regular-2212" transform="translate(232.687947 -12.525) scale(0.7)"/>
     <use xlink:href="#STIXGeneral-Regular-31" transform="translate(290.745934 -12.525) scale(0.7)"/>
     <use xlink:href="#STIXGeneral-Regular-20" transform="translate(330.155298 0.703125)"/>
     <use xlink:href="#STIXGeneral-Regular-61" transform="translate(355.155283 0.703125)"/>
     <use xlink:href="#STIXGeneral-Regular-6e" transform="translate(399.555277 0.703125)"/>
     <use xlink:href="#STIXGeneral-Regular-64" transform="translate(449.555262 0.703125)"/>
     <use xlink:href="#STIXGeneral-Regular-20" transform="translate(499.555247 0.703125)"/>
     <use xlink:href="#STIXGeneral-Italic-65" transform="translate(524.555231 0.703125)"/>
     <use xlink:href="#STIXGeneral-Italic-6b" transform="translate(568.955225 -12.525) scale(0.7)"/>
     <use xlink:href="#STIXGeneral-Regular-20" transform="translate(604.444596 0.703125)"/>
     <use xlink:href="#STIXGeneral-Regular-20" transform="translate(629.444581 0.703125)"/>
     <use xlink:href="#STIXGeneral-Regular-28" transform="translate(654.444565 0.703125)"/>
     <use xlink:href="#STIXGeneral-Italic-65" transform="translate(687.744553 0.703125)"/>
     <use xlink:href="#STIXGeneral-Regular-30" transform="translate(732.144547 -12.525) scale(0.7)"/>
     <use xlink:href="#STIXGeneral-Regular-2261" transform="translate(785.993908 0.703125)"/>
     <use xlink:href="#STIXGeneral-Italic-65" transform="translate(868.933889 0.703125)"/>
     <use xlink:href="#STIXGeneral-Regular-36" transform="translate(913.333883 -12.525) scale(0.7)"/>
     <use xlink:href="#STIXGeneral-Regular-29" transform="translate(952.743247 0.703125)"/>
    </g>
   </g>
   <g id="text_13">
    <g id="patch_15">
     <path d="M 163.782 16.062742 
L 170.922 16.062742 
Q 172.182 16.062742 172.182 14.802742 
L 172.182 5.352742 
Q 172.182 4.092742 170.922 4.092742 
L 163.782 4.092742 
Q 162.522 4.092742 162.522 5.352742 
L 162.522 14.802742 
Q 162.522 16.062742 163.782 16.062742 
z
" style="fill: #ffffff"/>
    </g>
    <!-- $l_1$ -->
    <g style="fill: #2e5a3f" transform="translate(163.782 12.523914) scale(0.105 -0.105)">
     <use xlink:href="#STIXGeneral-Italic-6c" transform="translate(0 0.703125)"/>
     <use xlink:href="#STIXGeneral-Regular-31" transform="translate(27.799988 -12.525) scale(0.7)"/>
    </g>
   </g>
   <g id="text_14">
    <g id="patch_16">
     <path d="M 138.307925 40.250211 
L 147.127925 40.250211 
Q 148.387925 40.250211 148.387925 38.990211 
L 148.387925 29.540211 
Q 148.387925 28.280211 147.127925 28.280211 
L 138.307925 28.280211 
Q 137.047925 28.280211 137.047925 29.540211 
L 137.047925 38.990211 
Q 137.047925 40.250211 138.307925 40.250211 
z
" style="fill: #ffffff"/>
    </g>
    <!-- $v_1$ -->
    <g style="fill: #1a1a1a" transform="translate(138.307925 36.711383) scale(0.105 -0.105)">
     <use xlink:href="#STIXGeneral-Italic-76" transform="translate(0 0.90625)"/>
     <use xlink:href="#STIXGeneral-Regular-31" transform="translate(44.399994 -12.321875) scale(0.7)"/>
    </g>
   </g>
   <g id="text_15">
    <g id="patch_17">
     <path d="M 82.47 16.062742 
L 89.61 16.062742 
Q 90.87 16.062742 90.87 14.802742 
L 90.87 5.352742 
Q 90.87 4.092742 89.61 4.092742 
L 82.47 4.092742 
Q 81.21 4.092742 81.21 5.352742 
L 81.21 14.802742 
Q 81.21 16.062742 82.47 16.062742 
z
" style="fill: #ffffff"/>
    </g>
    <!-- $l_2$ -->
    <g style="fill: #2e5a3f" transform="translate(82.47 12.523914) scale(0.105 -0.105)">
     <use xlink:href="#STIXGeneral-Italic-6c" transform="translate(0 0.703125)"/>
     <use xlink:href="#STIXGeneral-Regular-32" transform="translate(27.799988 -12.525) scale(0.7)"/>
    </g>
   </g>
   <g id="text_16">
    <g id="patch_18">
     <path d="M 90.259925 49.490211 
L 99.079925 49.490211 
Q 100.339925 49.490211 100.339925 48.230211 
L 100.339925 38.780211 
Q 100.339925 37.520211 99.079925 37.520211 
L 90.259925 37.520211 
Q 88.999925 37.520211 88.999925 38.780211 
L 88.999925 48.230211 
Q 88.999925 49.490211 90.259925 49.490211 
z
" style="fill: #ffffff"/>
    </g>
    <!-- $v_2$ -->
    <g style="fill: #1a1a1a" transform="translate(90.259925 45.951383) scale(0.105 -0.105)">
     <use xlink:href="#STIXGeneral-Italic-76" transform="translate(0 0.90625)"/>
     <use xlink:href="#STIXGeneral-Regular-32" transform="translate(44.399994 -12.321875) scale(0.7)"/>
    </g>
   </g>
   <g id="text_17">
    <g id="patch_19">
     <path d="M 41.814 86.481 
L 48.954 86.481 
Q 50.214 86.481 50.214 85.221 
L 50.214 75.771 
Q 50.214 74.511 48.954 74.511 
L 41.814 74.511 
Q 40.554 74.511 40.554 75.771 
L 40.554 85.221 
Q 40.554 86.481 41.814 86.481 
z
" style="fill: #ffffff"/>
    </g>
    <!-- $l_3$ -->
    <g style="fill: #2e5a3f" transform="translate(41.814 82.942172) scale(0.105 -0.105)">
     <use xlink:href="#STIXGeneral-Italic-6c" transform="translate(0 0.703125)"/>
     <use xlink:href="#STIXGeneral-Regular-33" transform="translate(27.799988 -12.525) scale(0.7)"/>
    </g>
   </g>
   <g id="text_18">
    <g id="patch_20">
     <path d="M 74.238 95.721 
L 83.058 95.721 
Q 84.318 95.721 84.318 94.461 
L 84.318 85.011 
Q 84.318 83.751 83.058 83.751 
L 74.238 83.751 
Q 72.978 83.751 72.978 85.011 
L 72.978 94.461 
Q 72.978 95.721 74.238 95.721 
z
" style="fill: #ffffff"/>
    </g>
    <!-- $v_3$ -->
    <g style="fill: #1a1a1a" transform="translate(74.238 92.182172) scale(0.105 -0.105)">
     <use xlink:href="#STIXGeneral-Italic-76" transform="translate(0 0.90625)"/>
     <use xlink:href="#STIXGeneral-Regular-33" transform="translate(44.399994 -12.321875) scale(0.7)"/>
    </g>
   </g>
   <g id="text_19">
    <g id="patch_21">
     <path d="M 82.47 156.899258 
L 89.61 156.899258 
Q 90.87 156.899258 90.87 155.639258 
L 90.87 146.189258 
Q 90.87 144.929258 89.61 144.929258 
L 82.47 144.929258 
Q 81.21 144.929258 81.21 146.189258 
L 81.21 155.639258 
Q 81.21 156.899258 82.47 156.899258 
z
" style="fill: #ffffff"/>
    </g>
    <!-- $l_4$ -->
    <g style="fill: #2e5a3f" transform="translate(82.47 153.36043) scale(0.105 -0.105)">
     <use xlink:href="#STIXGeneral-Italic-6c" transform="translate(0 0.703125)"/>
     <use xlink:href="#STIXGeneral-Regular-34" transform="translate(27.799988 -12.525) scale(0.7)"/>
    </g>
   </g>
   <g id="text_20">
    <g id="patch_22">
     <path d="M 106.264075 132.711789 
L 115.084075 132.711789 
Q 116.344075 132.711789 116.344075 131.451789 
L 116.344075 122.001789 
Q 116.344075 120.741789 115.084075 120.741789 
L 106.264075 120.741789 
Q 105.004075 120.741789 105.004075 122.001789 
L 105.004075 131.451789 
Q 105.004075 132.711789 106.264075 132.711789 
z
" style="fill: #ffffff"/>
    </g>
    <!-- $v_4$ -->
    <g style="fill: #1a1a1a" transform="translate(106.264075 129.17296) scale(0.105 -0.105)">
     <use xlink:href="#STIXGeneral-Italic-76" transform="translate(0 0.90625)"/>
     <use xlink:href="#STIXGeneral-Regular-34" transform="translate(44.399994 -12.321875) scale(0.7)"/>
    </g>
   </g>
   <g id="text_21">
    <g id="patch_23">
     <path d="M 163.782 156.899258 
L 170.922 156.899258 
Q 172.182 156.899258 172.182 155.639258 
L 172.182 146.189258 
Q 172.182 144.929258 170.922 144.929258 
L 163.782 144.929258 
Q 162.522 144.929258 162.522 146.189258 
L 162.522 155.639258 
Q 162.522 156.899258 163.782 156.899258 
z
" style="fill: #ffffff"/>
    </g>
    <!-- $l_5$ -->
    <g style="fill: #2e5a3f" transform="translate(163.782 153.36043) scale(0.105 -0.105)">
     <use xlink:href="#STIXGeneral-Italic-6c" transform="translate(0 0.703125)"/>
     <use xlink:href="#STIXGeneral-Regular-35" transform="translate(27.799988 -12.525) scale(0.7)"/>
    </g>
   </g>
   <g id="text_22">
    <g id="patch_24">
     <path d="M 154.312075 123.471789 
L 163.132075 123.471789 
Q 164.392075 123.471789 164.392075 122.211789 
L 164.392075 112.761789 
Q 164.392075 111.501789 163.132075 111.501789 
L 154.312075 111.501789 
Q 153.052075 111.501789 153.052075 112.761789 
L 153.052075 122.211789 
Q 153.052075 123.471789 154.312075 123.471789 
z
" style="fill: #ffffff"/>
    </g>
    <!-- $v_5$ -->
    <g style="fill: #1a1a1a" transform="translate(154.312075 119.93296) scale(0.105 -0.105)">
     <use xlink:href="#STIXGeneral-Italic-76" transform="translate(0 0.90625)"/>
     <use xlink:href="#STIXGeneral-Regular-35" transform="translate(44.399994 -12.321875) scale(0.7)"/>
    </g>
   </g>
   <g id="text_23">
    <g id="patch_25">
     <path d="M 204.438 86.481 
L 211.578 86.481 
Q 212.838 86.481 212.838 85.221 
L 212.838 75.771 
Q 212.838 74.511 211.578 74.511 
L 204.438 74.511 
Q 203.178 74.511 203.178 75.771 
L 203.178 85.221 
Q 203.178 86.481 204.438 86.481 
z
" style="fill: #ffffff"/>
    </g>
    <!-- $l_6$ -->
    <g style="fill: #2e5a3f" transform="translate(204.438 82.942172) scale(0.105 -0.105)">
     <use xlink:href="#STIXGeneral-Italic-6c" transform="translate(0 0.703125)"/>
     <use xlink:href="#STIXGeneral-Regular-36" transform="translate(27.799988 -12.525) scale(0.7)"/>
    </g>
   </g>
   <g id="text_24">
    <g id="patch_26">
     <path d="M 170.334 77.241 
L 179.154 77.241 
Q 180.414 77.241 180.414 75.981 
L 180.414 66.531 
Q 180.414 65.271 179.154 65.271 
L 170.334 65.271 
Q 169.074 65.271 169.074 66.531 
L 169.074 75.981 
Q 169.074 77.241 170.334 77.241 
z
" style="fill: #ffffff"/>
    </g>
    <!-- $v_6$ -->
    <g style="fill: #1a1a1a" transform="translate(170.334 73.702172) scale(0.105 -0.105)">
     <use xlink:href="#STIXGeneral-Italic-76" transform="translate(0 0.90625)"/>
     <use xlink:href="#STIXGeneral-Regular-36" transform="translate(44.399994 -12.321875) scale(0.7)"/>
    </g>
   </g>
  </g>
 </g>
 <defs>
  <clipPath id="p6a4562dabb">
   <rect x="2.88" y="2.88" width="354.816" height="160.776"/>
  </clipPath>
 </defs>
</svg>
