<?xml version="1.0" encoding="utf-8" standalone="no"?>
<!DOCTYPE svg PUBLIC "-//W3C//DTD SVG 1.1//EN"
  "http://www.w3.org/Graphics/SVG/1.1/DTD/svg11.dtd">
<svg xmlns:xlink="http://www.w3.org/1999/xlink" width="368.46pt" height="132.568647pt" viewBox="0 0 368.46 132.568647" xmlns="http://www.w3.org/2000/svg" version="1.1">
 <metadata>
  <rdf:RDF xmlns:dc="http://purl.org/dc/elements/1.1/" xmlns:cc="http://creativecommons.org/ns#" xmlns:rdf="http://www.w3.org/1999/02/22-rdf-syntax-ns#">
   <cc:Work>
    <dc:type rdf:resource="http://purl.org/dc/dcmitype/StillImage"/>
    <dc:format>image/svg+xml</dc:format>
    <dc:creator>
     <cc:Agent>
      <dc:title>Matplotlib v3.10.8, https://matplotlib.org/</dc:title>
     </cc:Agent>
    </dc:creator>
   </cc:Work>
  </rdf:RDF>
 </metadata>
 <defs>
  <style type="text/css">*{stroke-linejoin: round; stroke-linecap: butt}</style>
 </defs>
 <g id="figure_1">
  <g id="patch_1">
   <path d="M 0 132.568647 
L 368.46 132.568647 
L 368.46 0 
L 0 0 
z
" style="fill: #ffffff"/>
  </g>
  <g id="axes_1">
   <g id="patch_2">
    <path d="M 50.603684 90.146165 
L 65.602556 78.692481 
L 65.602556 51.421805 
L 50.603684 62.875489 
z
" clip-path="url(#pe586624936)" style="fill: #b4583a; opacity: 0.16"/>
   </g>
   <g id="patch_3">
    <path d="M 77.874361 90.146165 
L 92.873233 78.692481 
L 92.873233 51.421805 
L 77.874361 62.875489 
z
" clip-path="url(#pe586624936)" style="fill: #b4583a; opacity: 0.16"/>
   </g>
   <g id="patch_4">
    <path d="M 105.145038 90.146165 
L 120.14391 78.692481 
L 120.14391 51.421805 
L 105.145038 62.875489 
z
" clip-path="url(#pe586624936)" style="fill: #b4583a; opacity: 0.16"/>
   </g>
   <g id="patch_5">
    <path d="M 132.415714 90.146165 
L 147.414586 78.692481 
L 147.414586 51.421805 
L 132.415714 62.875489 
z
" clip-path="url(#pe586624936)" style="fill: #b4583a; opacity: 0.16"/>
   </g>
   <g id="line2d_1">
    <path d="M 50.603684 90.146165 
L 65.602556 78.692481 
L 65.602556 51.421805 
L 50.603684 62.875489 
L 50.603684 90.146165 
" clip-path="url(#pe586624936)" style="fill: none; stroke: #b4583a; stroke-width: 1.4; stroke-linecap: square"/>
   </g>
   <g id="line2d_2">
    <path d="M 50.603684 90.146165 
L 65.602556 78.692481 
L 65.602556 51.421805 
L 50.603684 62.875489 
L 50.603684 90.146165 
" clip-path="url(#pe586624936)" style="fill: none; stroke: #b4583a; stroke-width: 1.4; stroke-linecap: square"/>
   </g>
   <g id="line2d_3">
    <path d="M 77.874361 90.146165 
L 92.873233 78.692481 
L 92.873233 51.421805 
L 77.874361 62.875489 
L 77.874361 90.146165 
" clip-path="url(#pe586624936)" style="fill: none; stroke: #b4583a; stroke-width: 1.4; stroke-linecap: square"/>
   </g>
   <g id="line2d_4">
    <path d="M 77.874361 90.146165 
L 92.873233 78.692481 
L 92.873233 51.421805 
L 77.874361 62.875489 
L 77.874361 90.146165 
" clip-path="url(#pe586624936)" style="fill: none; stroke: #b4583a; stroke-width: 1.4; stroke-linecap: square"/>
   </g>
   <g id="line2d_5">
    <path d="M 105.145038 90.146165 
L 120.14391 78.692481 
L 120.14391 51.421805 
L 105.145038 62.875489 
L 105.145038 90.146165 
" clip-path="url(#pe586624936)" style="fill: none; stroke: #b4583a; stroke-width: 1.4; stroke-linecap: square"/>
   </g>
   <g id="line2d_6">
    <path d="M 105.145038 90.146165 
L 120.14391 78.692481 
L 120.14391 51.421805 
L 105.145038 62.875489 
L 105.145038 90.146165 
" clip-path="url(#pe586624936)" style="fill: none; stroke: #b4583a; stroke-width: 1.4; stroke-linecap: square"/>
   </g>
   <g id="line2d_7">
    <path d="M 132.415714 90.146165 
L 147.414586 78.692481 
L 147.414586 51.421805 
L 132.415714 62.875489 
L 132.415714 90.146165 
" clip-path="url(#pe586624936)" style="fill: none; stroke: #b4583a; stroke-width: 1.4; stroke-linecap: square"/>
   </g>
   <g id="line2d_8">
    <path d="M 132.415714 90.146165 
L 147.414586 78.692481 
L 147.414586 51.421805 
L 132.415714 62.875489 
L 132.415714 90.146165 
" clip-path="url(#pe586624936)" style="fill: none; stroke: #b4583a; stroke-width: 1.4; stroke-linecap: square"/>
   </g>
   <g id="line2d_9">
    <path d="M 328.764586 42.422481 
L 301.221203 42.422481 
" clip-path="url(#pe586624936)" style="fill: none; stroke: #b4583a; stroke-width: 2.6"/>
   </g>
   <g id="line2d_10">
    <path d="M 293.585414 42.422481 
L 214.227744 42.422481 
" clip-path="url(#pe586624936)" style="fill: none; stroke: #b4583a; stroke-width: 2.6"/>
   </g>
   <g id="line2d_11">
    <path d="M 44.467782 70.783985 
L 153.550489 70.783985 
" clip-path="url(#pe586624936)" style="fill: none; stroke-dasharray: 5.1,3.4; stroke-dashoffset: 0; stroke: #1f4e79; stroke-width: 1.7"/>
   </g>
   <g id="line2d_12">
    <path d="M 214.227744 90.146165 
L 328.764586 90.146165 
" clip-path="url(#pe586624936)" style="fill: none; stroke: #b4583a; stroke-width: 2.6; stroke-linecap: round"/>
   </g>
   <g id="line2d_13">
    <path d="M 328.764586 90.146165 
L 328.764586 42.422481 
" clip-path="url(#pe586624936)" style="fill: none; stroke: #b4583a; stroke-width: 2.6; stroke-linecap: round"/>
   </g>
   <g id="line2d_14">
    <path d="M 214.227744 42.422481 
L 214.227744 90.146165 
" clip-path="url(#pe586624936)" style="fill: none; stroke: #b4583a; stroke-width: 2.6; stroke-linecap: round"/>
   </g>
   <g id="patch_6">
    <path d="M 44.467782 74.329173 
C 45.407977 74.329173 46.30979 73.95563 46.974608 73.290811 
C 47.639427 72.625993 48.01297 71.72418 48.01297 70.783985 
C 48.01297 69.84379 47.639427 68.941977 46.974608 68.277159 
C 46.30979 67.61234 45.407977 67.238797 44.467782 67.238797 
C 43.527587 67.238797 42.625774 67.61234 41.960956 68.277159 
C 41.296137 68.941977 40.922594 69.84379 40.922594 70.783985 
C 40.922594 71.72418 41.296137 72.625993 41.960956 73.290811 
C 42.625774 73.95563 43.527587 74.329173 44.467782 74.329173 
z
" clip-path="url(#pe586624936)" style="fill: #1f4e79; stroke: #ffffff; stroke-linejoin: miter"/>
   </g>
   <g id="text_1">
    <!-- $\mu(\tilde x)$ -->
    <g style="fill: #1f4e79" transform="translate(26.155545 88.229029) scale(0.105 -0.105)">
     <defs>
      <path id="STIXGeneral-Italic-3bc" d="M 3002 749 
L 3091 691 
Q 2797 237 2614 83 
Q 2432 -70 2214 -70 
Q 2080 -70 1990 6 
Q 1901 83 1901 218 
Q 1901 416 1997 704 
L 2208 1370 
L 2202 1370 
Q 1766 595 1475 268 
Q 1184 -58 902 -58 
Q 723 -58 672 122 
Q 614 -109 547 -374 
Q 480 -640 451 -758 
Q 422 -877 384 -1005 
Q 346 -1133 314 -1197 
Q 282 -1261 243 -1312 
L -211 -1312 
Q -58 -1088 70 -595 
L 909 2739 
L 1389 2739 
L 909 832 
Q 883 717 883 659 
Q 883 352 1139 352 
Q 1395 352 1811 969 
Q 2227 1587 2323 1958 
L 2534 2739 
L 3027 2739 
L 2522 819 
Q 2400 333 2400 326 
Q 2400 230 2470 230 
Q 2547 230 2652 329 
Q 2758 429 3002 749 
z
" transform="scale(0.015625)"/>
      <path id="STIXGeneral-Regular-28" d="M 1946 -1030 
L 1869 -1133 
Q 1126 -710 716 32 
Q 307 774 307 1613 
Q 307 3386 1888 4326 
L 1946 4224 
Q 1293 3667 1075 3126 
Q 858 2586 858 1632 
Q 858 685 1082 96 
Q 1306 -493 1946 -1030 
z
" transform="scale(0.015625)"/>
      <path id="STIXGeneral-Regular-303" d="M -602 4083 
L -416 4083 
Q -518 3718 -672 3561 
Q -826 3405 -1088 3405 
Q -1293 3405 -1606 3558 
Q -1901 3699 -2016 3699 
Q -2240 3699 -2342 3405 
L -2528 3405 
Q -2458 3718 -2291 3884 
Q -2125 4051 -1882 4051 
Q -1664 4051 -1434 3936 
Q -1082 3757 -941 3757 
Q -832 3757 -758 3830 
Q -685 3904 -602 4083 
z
" transform="scale(0.015625)"/>
      <path id="STIXGeneral-Italic-78" d="M 1555 2272 
L 1632 1907 
Q 1971 2426 2179 2624 
Q 2387 2822 2598 2822 
Q 2714 2822 2787 2755 
Q 2861 2688 2861 2585 
Q 2861 2483 2800 2419 
Q 2739 2355 2643 2355 
Q 2586 2355 2490 2409 
Q 2394 2464 2310 2464 
Q 2125 2464 1683 1690 
Q 1683 1606 1734 1402 
L 1939 544 
Q 2003 282 2131 282 
Q 2234 282 2432 538 
Q 2451 563 2476 598 
Q 2502 634 2521 662 
Q 2541 691 2566 717 
L 2662 659 
Q 2387 230 2227 80 
Q 2067 -70 1882 -70 
Q 1728 -70 1645 26 
Q 1562 122 1504 365 
L 1318 1126 
L 755 365 
Q 557 96 432 13 
Q 307 -70 147 -70 
Q 0 -70 -86 0 
Q -173 70 -173 198 
Q -173 294 -112 361 
Q -51 429 45 429 
Q 122 429 250 358 
Q 346 301 416 301 
Q 525 301 742 614 
L 1267 1357 
L 1088 2150 
Q 1024 2432 969 2509 
Q 915 2586 794 2586 
Q 717 2586 544 2541 
L 429 2509 
L 410 2611 
L 480 2637 
Q 992 2822 1229 2822 
Q 1350 2822 1420 2707 
Q 1491 2592 1555 2272 
z
" transform="scale(0.015625)"/>
      <path id="STIXGeneral-Regular-29" d="M 186 4224 
L 262 4326 
Q 992 3891 1408 3148 
Q 1824 2406 1824 1581 
Q 1824 -166 243 -1133 
L 186 -1030 
Q 845 -486 1059 54 
Q 1274 595 1274 1562 
Q 1274 2534 1059 3120 
Q 845 3706 186 4224 
z
" transform="scale(0.015625)"/>
     </defs>
     <use xlink:href="#STIXGeneral-Italic-3bc" transform="translate(0 0.40625)"/>
     <use xlink:href="#STIXGeneral-Regular-28" transform="translate(52.599991 0.40625)"/>
     <use xlink:href="#STIXGeneral-Regular-303" transform="translate(138.247635 3.796875)"/>
     <use xlink:href="#STIXGeneral-Italic-78" transform="translate(85.899979 0.40625)"/>
     <use xlink:href="#STIXGeneral-Regular-29" transform="translate(133.290604 0.40625)"/>
    </g>
   </g>
   <g id="patch_7">
    <path d="M 153.550489 74.329173 
C 154.490684 74.329173 155.392497 73.95563 156.057315 73.290811 
C 156.722133 72.625993 157.095677 71.72418 157.095677 70.783985 
C 157.095677 69.84379 156.722133 68.941977 156.057315 68.277159 
C 155.392497 67.61234 154.490684 67.238797 153.550489 67.238797 
C 152.610294 67.238797 151.70848 67.61234 151.043662 68.277159 
C 150.378844 68.941977 150.005301 69.84379 150.005301 70.783985 
C 150.005301 71.72418 150.378844 72.625993 151.043662 73.290811 
C 151.70848 73.95563 152.610294 74.329173 153.550489 74.329173 
z
" clip-path="url(#pe586624936)" style="fill: #1f4e79; stroke: #ffffff; stroke-linejoin: miter"/>
   </g>
   <g id="text_2">
    <!-- $\mu(\tilde y)$ -->
    <g style="fill: #1f4e79" transform="translate(154.432726 88.229029) scale(0.105 -0.105)">
     <defs>
      <path id="STIXGeneral-Italic-79" d="M 1555 1190 
L 1690 486 
Q 2118 1190 2294 1558 
Q 2470 1926 2470 2131 
Q 2470 2234 2304 2336 
Q 2138 2445 2138 2586 
Q 2138 2688 2211 2755 
Q 2285 2822 2394 2822 
Q 2534 2822 2630 2720 
Q 2726 2618 2726 2470 
Q 2726 1914 1888 518 
Q 1389 -307 918 -812 
Q 448 -1318 173 -1318 
Q 26 -1318 -64 -1241 
Q -154 -1165 -154 -1043 
Q -154 -934 -80 -860 
Q -6 -787 96 -787 
Q 218 -787 314 -876 
Q 410 -966 486 -966 
Q 602 -966 794 -755 
Q 877 -672 1040 -457 
Q 1203 -243 1248 -173 
Q 1312 -45 1312 51 
Q 1312 243 1113 1046 
Q 915 1850 787 2176 
Q 698 2413 592 2499 
Q 486 2586 294 2586 
Q 192 2586 96 2560 
L 96 2669 
Q 237 2694 301 2707 
Q 563 2758 986 2822 
L 1011 2822 
Q 1082 2822 1277 2227 
Q 1472 1632 1555 1190 
z
" transform="scale(0.015625)"/>
     </defs>
     <use xlink:href="#STIXGeneral-Italic-3bc" transform="translate(0 0.40625)"/>
     <use xlink:href="#STIXGeneral-Regular-28" transform="translate(52.599991 0.40625)"/>
     <use xlink:href="#STIXGeneral-Regular-303" transform="translate(136.649979 3.796875)"/>
     <use xlink:href="#STIXGeneral-Italic-79" transform="translate(85.899979 0.40625)"/>
     <use xlink:href="#STIXGeneral-Regular-29" transform="translate(130.899979 0.40625)"/>
    </g>
   </g>
   <g id="text_3">
    <!-- $\tilde\gamma$ -->
    <g style="fill: #1f4e79" transform="translate(69.564812 65.438145) scale(0.11 -0.11)">
     <defs>
      <path id="STIXGeneral-Italic-3b3" d="M 2803 2739 
L 1050 250 
Q 1037 32 1030 -73 
Q 1024 -179 998 -406 
Q 973 -634 934 -758 
Q 896 -883 835 -1033 
Q 774 -1184 681 -1251 
Q 589 -1318 467 -1318 
Q 224 -1318 224 -998 
Q 224 -845 329 -608 
Q 435 -371 608 -57 
Q 781 256 845 397 
Q 941 1293 941 1555 
Q 941 2381 634 2381 
Q 538 2381 422 2259 
Q 307 2138 224 1894 
L 122 1894 
Q 358 2784 755 2784 
Q 986 2784 1075 2589 
Q 1165 2394 1165 2029 
Q 1165 1850 1145 1632 
Q 1126 1414 1091 1148 
Q 1056 883 1050 813 
L 2189 2739 
L 2803 2739 
z
" transform="scale(0.015625)"/>
     </defs>
     <use xlink:href="#STIXGeneral-Regular-303" transform="translate(48.972656 3.203125)"/>
     <use xlink:href="#STIXGeneral-Italic-3b3" transform="translate(0 0.40625)"/>
    </g>
   </g>
   <g id="text_4">
    <!-- pierced plaquettes: $\beta\;\to\;{-}\beta$ -->
    <g style="fill: #b4583a" transform="translate(41.513835 112.949173) scale(0.1 -0.1)">
     <defs>
      <path id="STIXGeneral-Regular-70" d="M 1018 2931 
L 1018 2438 
Q 1421 2944 1939 2944 
Q 2406 2944 2707 2560 
Q 3008 2176 3008 1581 
Q 3008 883 2621 409 
Q 2234 -64 1664 -64 
Q 1466 -64 1328 -6 
Q 1190 51 1018 211 
L 1018 -794 
Q 1018 -1094 1120 -1180 
Q 1222 -1267 1581 -1274 
L 1581 -1389 
L 32 -1389 
L 32 -1280 
Q 314 -1254 397 -1171 
Q 480 -1088 480 -838 
L 480 2157 
Q 480 2381 429 2451 
Q 378 2522 218 2522 
Q 115 2522 58 2515 
L 58 2618 
Q 506 2752 979 2944 
L 1018 2931 
z
M 1018 2138 
L 1018 563 
Q 1018 422 1238 281 
Q 1459 141 1683 141 
Q 2029 141 2243 467 
Q 2458 794 2458 1325 
Q 2458 1888 2243 2224 
Q 2029 2560 1670 2560 
Q 1446 2560 1232 2419 
Q 1018 2278 1018 2138 
z
" transform="scale(0.015625)"/>
      <path id="STIXGeneral-Regular-69" d="M 1152 4045 
Q 1152 3904 1056 3811 
Q 960 3718 819 3718 
Q 685 3718 592 3811 
Q 499 3904 499 4045 
Q 499 4179 595 4275 
Q 691 4371 826 4371 
Q 966 4371 1059 4275 
Q 1152 4179 1152 4045 
z
M 1619 0 
L 102 0 
L 102 96 
Q 435 115 521 211 
Q 608 307 608 666 
L 608 2118 
Q 608 2342 563 2432 
Q 518 2522 397 2522 
Q 243 2522 128 2490 
L 128 2592 
L 1120 2944 
L 1146 2918 
L 1146 672 
Q 1146 314 1226 218 
Q 1306 122 1619 96 
L 1619 0 
z
" transform="scale(0.015625)"/>
      <path id="STIXGeneral-Regular-65" d="M 2611 1050 
L 2714 1005 
Q 2330 -64 1376 -64 
Q 813 -64 486 329 
Q 160 723 160 1389 
Q 160 2074 525 2509 
Q 890 2944 1485 2944 
Q 2061 2944 2374 2502 
Q 2560 2246 2592 1773 
L 621 1773 
Q 646 1370 700 1158 
Q 755 947 915 730 
Q 1184 378 1626 378 
Q 1939 378 2153 531 
Q 2368 685 2611 1050 
z
M 634 1978 
L 1939 1978 
Q 1882 2381 1750 2547 
Q 1619 2714 1312 2714 
Q 1043 2714 864 2525 
Q 685 2336 634 1978 
z
" transform="scale(0.015625)"/>
      <path id="STIXGeneral-Regular-72" d="M 1024 2931 
L 1024 2342 
Q 1267 2688 1430 2816 
Q 1594 2944 1792 2944 
Q 1958 2944 2051 2854 
Q 2144 2765 2144 2605 
Q 2144 2470 2077 2393 
Q 2010 2317 1894 2317 
Q 1773 2317 1638 2445 
Q 1536 2541 1472 2541 
Q 1338 2541 1181 2355 
Q 1024 2170 1024 2016 
L 1024 576 
Q 1024 301 1133 205 
Q 1242 109 1568 96 
L 1568 0 
L 32 0 
L 32 96 
Q 339 154 412 224 
Q 486 294 486 538 
L 486 2138 
Q 486 2349 438 2435 
Q 390 2522 269 2522 
Q 166 2522 45 2496 
L 45 2598 
Q 448 2726 992 2944 
L 1024 2931 
z
" transform="scale(0.015625)"/>
      <path id="STIXGeneral-Regular-63" d="M 2547 998 
L 2637 941 
Q 2362 403 2112 205 
Q 1786 -64 1376 -64 
Q 845 -64 502 336 
Q 160 736 160 1357 
Q 160 2170 698 2618 
Q 1094 2944 1562 2944 
Q 1965 2944 2256 2749 
Q 2547 2554 2547 2285 
Q 2547 2176 2457 2096 
Q 2368 2016 2246 2016 
Q 2022 2016 1939 2310 
L 1901 2451 
Q 1850 2630 1773 2694 
Q 1696 2758 1523 2758 
Q 1133 2758 893 2451 
Q 653 2144 653 1645 
Q 653 1094 928 745 
Q 1203 397 1645 397 
Q 1920 397 2118 528 
Q 2317 659 2547 998 
z
" transform="scale(0.015625)"/>
      <path id="STIXGeneral-Regular-64" d="M 3142 269 
L 2202 -64 
L 2176 -45 
L 2176 365 
Q 1869 -64 1357 -64 
Q 826 -64 499 317 
Q 173 698 173 1312 
Q 173 1990 563 2467 
Q 954 2944 1504 2944 
Q 1850 2944 2176 2669 
L 2176 3667 
Q 2176 3866 2118 3930 
Q 2061 3994 1882 3994 
Q 1792 3994 1741 3987 
L 1741 4090 
Q 2323 4243 2682 4371 
L 2714 4358 
L 2714 730 
Q 2714 506 2768 435 
Q 2822 365 2995 365 
Q 3034 365 3142 371 
L 3142 269 
z
M 2176 653 
L 2176 2125 
Q 2176 2381 1981 2573 
Q 1786 2765 1523 2765 
Q 1158 2765 940 2438 
Q 723 2112 723 1568 
Q 723 979 963 624 
Q 1203 269 1606 269 
Q 1907 269 2080 474 
Q 2176 582 2176 653 
z
" transform="scale(0.015625)"/>
      <path id="STIXGeneral-Regular-20" transform="scale(0.015625)"/>
      <path id="STIXGeneral-Regular-6c" d="M 1645 0 
L 134 0 
L 134 96 
Q 435 122 531 221 
Q 627 320 627 589 
L 627 3590 
Q 627 3821 569 3910 
Q 512 4000 358 4000 
Q 224 4000 122 3987 
L 122 4090 
Q 730 4237 1133 4371 
L 1165 4346 
L 1165 557 
Q 1165 288 1254 201 
Q 1344 115 1645 96 
L 1645 0 
z
" transform="scale(0.015625)"/>
      <path id="STIXGeneral-Regular-61" d="M 2829 422 
L 2829 243 
Q 2586 -64 2253 -64 
Q 1888 -64 1843 403 
L 1837 403 
Q 1427 -64 909 -64 
Q 608 -64 422 112 
Q 237 288 237 602 
Q 237 1050 685 1350 
Q 992 1555 1837 1869 
L 1837 2214 
Q 1837 2502 1699 2646 
Q 1562 2790 1338 2790 
Q 1146 2790 1018 2697 
Q 890 2605 890 2477 
Q 890 2419 909 2348 
Q 928 2278 928 2208 
Q 928 2112 841 2029 
Q 755 1946 634 1946 
Q 525 1946 441 2029 
Q 358 2112 358 2240 
Q 358 2547 685 2752 
Q 986 2944 1421 2944 
Q 1939 2944 2176 2656 
Q 2291 2522 2323 2384 
Q 2355 2246 2355 1946 
L 2355 723 
Q 2355 301 2554 301 
Q 2682 301 2829 422 
z
M 1837 813 
L 1837 1715 
Q 1248 1510 1018 1293 
Q 800 1094 800 800 
Q 800 557 921 432 
Q 1043 307 1242 307 
Q 1453 307 1613 410 
Q 1747 506 1792 589 
Q 1837 672 1837 813 
z
" transform="scale(0.015625)"/>
      <path id="STIXGeneral-Regular-71" d="M 3123 -1389 
L 1613 -1389 
L 1613 -1280 
Q 1952 -1254 2067 -1158 
Q 2182 -1062 2182 -794 
L 2182 410 
Q 1747 -64 1178 -64 
Q 730 -64 442 320 
Q 154 704 154 1312 
Q 154 2003 560 2473 
Q 966 2944 1562 2944 
Q 1920 2944 2304 2720 
L 2650 2925 
L 2720 2925 
L 2720 -902 
Q 2720 -1107 2797 -1180 
Q 2874 -1254 3123 -1280 
L 3123 -1389 
z
M 2182 813 
L 2182 2131 
Q 2182 2758 1587 2758 
Q 1178 2758 941 2432 
Q 704 2106 704 1542 
Q 704 1210 803 925 
Q 902 640 1062 499 
Q 1254 326 1542 326 
Q 1882 326 2106 531 
Q 2182 602 2182 813 
z
" transform="scale(0.015625)"/>
      <path id="STIXGeneral-Regular-75" d="M 3072 320 
L 3072 230 
Q 2573 96 2195 -58 
L 2163 -38 
L 2163 486 
L 2150 486 
Q 1747 -64 1235 -64 
Q 870 -64 662 160 
Q 454 384 454 755 
L 454 2362 
Q 454 2598 371 2688 
Q 288 2778 58 2790 
L 58 2880 
L 992 2880 
L 992 813 
Q 992 595 1123 451 
Q 1254 307 1446 307 
Q 1760 307 1984 506 
Q 2067 582 2099 649 
Q 2131 717 2131 877 
L 2131 2355 
Q 2131 2605 2041 2678 
Q 1952 2752 1658 2771 
L 1658 2880 
L 2669 2880 
L 2669 685 
Q 2669 461 2742 390 
Q 2816 320 3034 320 
L 3072 320 
z
" transform="scale(0.015625)"/>
      <path id="STIXGeneral-Regular-74" d="M 1702 493 
L 1786 422 
Q 1478 -64 1011 -64 
Q 448 -64 448 749 
L 448 2675 
L 109 2675 
Q 83 2694 83 2720 
Q 83 2771 192 2842 
Q 435 2982 813 3526 
Q 826 3546 874 3606 
Q 922 3667 941 3706 
Q 986 3706 986 3622 
L 986 2880 
L 1632 2880 
L 1632 2675 
L 986 2675 
L 986 845 
Q 986 538 1062 403 
Q 1139 269 1318 269 
Q 1510 269 1702 493 
z
" transform="scale(0.015625)"/>
      <path id="STIXGeneral-Regular-73" d="M 998 1926 
L 1664 1523 
Q 1984 1331 2105 1164 
Q 2227 998 2227 736 
Q 2227 416 1961 176 
Q 1696 -64 1331 -64 
Q 1030 -64 864 -6 
Q 691 51 570 51 
Q 461 51 416 -26 
L 333 -26 
L 333 979 
L 435 979 
Q 538 512 730 294 
Q 922 77 1248 77 
Q 1485 77 1632 211 
Q 1779 346 1779 550 
Q 1779 845 1440 1030 
L 1094 1222 
Q 326 1651 326 2150 
Q 326 2522 566 2730 
Q 806 2938 1210 2938 
Q 1491 2938 1638 2867 
Q 1754 2816 1818 2816 
Q 1862 2816 1920 2880 
L 1990 2880 
L 2022 2010 
L 1926 2010 
Q 1818 2445 1654 2621 
Q 1491 2797 1203 2797 
Q 986 2797 854 2688 
Q 723 2579 723 2362 
Q 723 2253 796 2128 
Q 870 2003 998 1926 
z
" transform="scale(0.015625)"/>
      <path id="STIXGeneral-Regular-3a" d="M 1123 2832 
Q 1229 2726 1229 2579 
Q 1229 2432 1126 2329 
Q 1024 2227 877 2227 
Q 730 2227 624 2332 
Q 518 2438 518 2579 
Q 518 2733 620 2835 
Q 723 2938 877 2938 
Q 1018 2938 1123 2832 
z
M 1229 282 
Q 1229 141 1126 35 
Q 1024 -70 877 -70 
Q 730 -70 624 35 
Q 518 141 518 282 
Q 518 435 620 537 
Q 723 640 877 640 
Q 1018 640 1123 534 
Q 1229 429 1229 282 
z
" transform="scale(0.015625)"/>
      <path id="STIXGeneral-Italic-3b2" d="M -58 -813 
L 819 2355 
Q 902 2662 995 2908 
Q 1088 3155 1235 3433 
Q 1382 3712 1555 3901 
Q 1728 4090 1977 4214 
Q 2227 4339 2515 4339 
Q 2816 4339 3053 4182 
Q 3290 4026 3290 3693 
Q 3290 3328 3037 3001 
Q 2784 2675 2470 2534 
L 2470 2528 
Q 2682 2509 2858 2320 
Q 3034 2131 3034 1818 
Q 3034 1376 2694 873 
Q 2355 371 1901 122 
Q 1562 -70 1107 -70 
Q 922 -70 685 38 
L 442 -813 
Q 352 -1126 243 -1312 
L -256 -1312 
Q -154 -1158 -58 -813 
z
M 1491 3053 
L 762 288 
Q 762 186 848 118 
Q 934 51 1069 51 
Q 1594 51 2029 704 
Q 2464 1357 2464 2029 
Q 2464 2406 2208 2406 
Q 2150 2406 2044 2380 
Q 1939 2355 1888 2355 
Q 1805 2355 1750 2396 
Q 1696 2438 1696 2496 
Q 1696 2650 1978 2650 
Q 1997 2650 2099 2630 
Q 2202 2611 2253 2611 
Q 2451 2611 2640 2969 
Q 2829 3328 2829 3622 
Q 2829 3962 2713 4083 
Q 2598 4205 2400 4205 
Q 2080 4205 1846 3865 
Q 1613 3526 1491 3053 
z
" transform="scale(0.015625)"/>
      <path id="STIXGeneral-Regular-2192" d="M 5478 1651 
L 5478 1587 
Q 4742 1274 3955 365 
L 3827 486 
Q 4006 742 4352 1101 
Q 4442 1190 4442 1280 
Q 4442 1408 4275 1408 
L 448 1408 
L 448 1830 
L 4282 1830 
Q 4333 1830 4390 1878 
Q 4448 1926 4448 1971 
Q 4448 2042 4358 2131 
Q 4032 2445 3834 2746 
L 3962 2867 
Q 4755 1952 5478 1651 
z
" transform="scale(0.015625)"/>
      <path id="STIXGeneral-Regular-2212" d="M 3974 1408 
L 410 1408 
L 410 1830 
L 3974 1830 
L 3974 1408 
z
" transform="scale(0.015625)"/>
     </defs>
     <use xlink:href="#STIXGeneral-Regular-70" transform="translate(0 0.703125)"/>
     <use xlink:href="#STIXGeneral-Regular-69" transform="translate(49.999985 0.703125)"/>
     <use xlink:href="#STIXGeneral-Regular-65" transform="translate(77.799973 0.703125)"/>
     <use xlink:href="#STIXGeneral-Regular-72" transform="translate(122.199966 0.703125)"/>
     <use xlink:href="#STIXGeneral-Regular-63" transform="translate(155.499954 0.703125)"/>
     <use xlink:href="#STIXGeneral-Regular-65" transform="translate(199.899948 0.703125)"/>
     <use xlink:href="#STIXGeneral-Regular-64" transform="translate(244.299942 0.703125)"/>
     <use xlink:href="#STIXGeneral-Regular-20" transform="translate(294.299927 0.703125)"/>
     <use xlink:href="#STIXGeneral-Regular-70" transform="translate(319.299911 0.703125)"/>
     <use xlink:href="#STIXGeneral-Regular-6c" transform="translate(369.299896 0.703125)"/>
     <use xlink:href="#STIXGeneral-Regular-61" transform="translate(397.099884 0.703125)"/>
     <use xlink:href="#STIXGeneral-Regular-71" transform="translate(441.499878 0.703125)"/>
     <use xlink:href="#STIXGeneral-Regular-75" transform="translate(491.499863 0.703125)"/>
     <use xlink:href="#STIXGeneral-Regular-65" transform="translate(541.499847 0.703125)"/>
     <use xlink:href="#STIXGeneral-Regular-74" transform="translate(585.899841 0.703125)"/>
     <use xlink:href="#STIXGeneral-Regular-74" transform="translate(613.699829 0.703125)"/>
     <use xlink:href="#STIXGeneral-Regular-65" transform="translate(641.499817 0.703125)"/>
     <use xlink:href="#STIXGeneral-Regular-73" transform="translate(685.899811 0.703125)"/>
     <use xlink:href="#STIXGeneral-Regular-3a" transform="translate(724.799805 0.703125)"/>
     <use xlink:href="#STIXGeneral-Regular-20" transform="translate(752.599792 0.703125)"/>
     <use xlink:href="#STIXGeneral-Italic-3b2" transform="translate(777.599777 0.703125)"/>
     <use xlink:href="#STIXGeneral-Regular-2192" transform="translate(862.695475 0.703125)"/>
     <use xlink:href="#STIXGeneral-Regular-2212" transform="translate(989.791173 0.703125)"/>
     <use xlink:href="#STIXGeneral-Italic-3b2" transform="translate(1058.291158 0.703125)"/>
    </g>
   </g>
   <g id="text_5">
    <!-- (a) -->
    <g style="fill: #1a1a1a" transform="translate(8.334135 12.260325) scale(0.11 -0.11)">
     <use xlink:href="#STIXGeneral-Regular-28"/>
     <use xlink:href="#STIXGeneral-Regular-61" transform="translate(33.299988 0)"/>
     <use xlink:href="#STIXGeneral-Regular-29" transform="translate(77.699982 0)"/>
    </g>
   </g>
   <g id="line2d_15">
    <path d="M 297.403308 42.422481 
L 297.275591 40.570058 
L 296.89358 38.734159 
L 296.260681 36.931162 
L 295.382542 35.177151 
L 294.266995 33.487773 
L 292.923992 31.878097 
L 291.365513 30.362484 
L 289.605461 28.954453 
L 287.659537 27.666564 
L 285.545098 26.510307 
L 283.281008 25.495996 
L 280.477437 24.504033 
L 277.531743 23.729577 
L 274.479682 23.182027 
L 271.358303 22.86803 
L 268.205494 22.791398 
L 265.059526 22.95306 
L 261.958588 23.351055 
L 258.940319 23.980551 
L 256.041359 24.833907 
L 253.296897 25.900765 
L 251.09278 26.975394 
L 249.046346 28.187821 
L 247.17585 29.527229 
L 245.497979 30.981671 
L 244.0277 32.538171 
L 242.778129 34.182845 
L 241.760412 35.901021 
L 240.983629 37.677372 
L 240.525421 39.190685 
L 240.525421 39.190685 
" clip-path="url(#pe586624936)" style="fill: none; stroke: #1f4e79; stroke-width: 2"/>
   </g>
   <g id="line2d_16">
    <path d="M 240.525421 45.654277 
L 241.09604 47.467021 
L 241.913519 49.234765 
L 242.970566 50.941739 
L 244.25775 52.572717 
L 245.76359 54.113148 
L 247.474653 55.549292 
L 249.375675 56.868337 
L 251.449697 58.058517 
L 253.678218 59.109214 
L 256.44684 60.146305 
L 259.365037 60.968253 
L 262.397386 61.565081 
L 265.50708 61.929543 
L 268.65637 62.057216 
L 271.807028 61.94655 
L 274.92081 61.598888 
L 277.959919 61.018451 
L 280.887463 60.212284 
L 283.667907 59.190173 
L 286.267499 57.964524 
L 288.327792 56.763184 
L 290.213609 55.433916 
L 291.908128 53.988579 
L 293.396234 52.440065 
L 294.664651 50.802188 
L 295.702065 49.08956 
L 296.499221 47.317457 
L 297.049008 45.501689 
L 297.346522 43.658452 
L 297.403308 42.422481 
L 297.403308 42.422481 
" clip-path="url(#pe586624936)" style="fill: none; stroke: #1f4e79; stroke-width: 2"/>
   </g>
   <g id="text_6">
    <!-- $C$ -->
    <g style="fill: #b4583a" transform="translate(219.919981 83.280569) scale(0.115 -0.115)">
     <defs>
      <path id="STIXGeneral-Italic-43" d="M 4410 4250 
L 4173 2970 
L 4058 2989 
Q 3942 4032 3104 4032 
Q 2406 4032 1830 3411 
Q 1491 3053 1315 2541 
Q 1139 2029 1139 1485 
Q 1139 173 2259 173 
Q 2656 173 2985 339 
Q 3315 506 3725 934 
L 3840 838 
Q 3411 333 2998 109 
Q 2586 -115 2093 -115 
Q 1344 -115 883 329 
Q 422 774 422 1555 
Q 422 2214 748 2812 
Q 1075 3411 1619 3795 
Q 2272 4262 3021 4262 
Q 3462 4262 3770 4154 
Q 3898 4109 4032 4109 
Q 4205 4109 4275 4250 
L 4410 4250 
z
" transform="scale(0.015625)"/>
     </defs>
     <use xlink:href="#STIXGeneral-Italic-43" transform="translate(0 0.40625)"/>
    </g>
   </g>
   <g id="text_7">
    <!-- $\tilde\gamma$ -->
    <g style="fill: #1f4e79" transform="translate(295.697346 27.692022) scale(0.115 -0.115)">
     <use xlink:href="#STIXGeneral-Regular-303" transform="translate(48.972656 3.203125)"/>
     <use xlink:href="#STIXGeneral-Italic-3b3" transform="translate(0 0.40625)"/>
    </g>
   </g>
   <g id="text_8">
    <!-- $\langle U(\tilde\gamma)\rangle=1$ -->
    <g style="fill: #1a1a1a" transform="translate(250.023665 107.770038) scale(0.105 -0.105)">
     <defs>
      <path id="STIXGeneral-Regular-27e8" d="M 2144 4563 
L 915 1606 
L 2138 -1363 
L 1805 -1363 
L 493 1542 
L 493 1670 
L 1811 4563 
L 2144 4563 
z
" transform="scale(0.015625)"/>
      <path id="STIXGeneral-Italic-55" d="M 4896 4179 
L 4896 4077 
Q 4762 4045 4694 4016 
Q 4627 3987 4563 3945 
Q 4499 3904 4451 3789 
Q 4403 3674 4358 3539 
Q 4314 3405 4230 3123 
L 3699 1299 
Q 3482 557 3078 218 
Q 2694 -115 2067 -115 
Q 1440 -115 1046 179 
Q 653 474 653 934 
Q 653 1286 934 2317 
L 1267 3526 
Q 1325 3731 1325 3814 
Q 1325 3942 1213 4006 
Q 1101 4070 813 4077 
L 813 4179 
L 2554 4179 
L 2554 4077 
Q 2227 4045 2102 3936 
Q 1978 3827 1888 3494 
L 1485 2048 
Q 1229 1146 1229 902 
Q 1229 563 1481 355 
Q 1734 147 2112 147 
Q 2650 147 2976 492 
Q 3302 838 3520 1632 
L 3930 3123 
Q 4077 3667 4077 3782 
Q 4077 3923 3981 3987 
Q 3885 4051 3629 4077 
L 3629 4179 
L 4896 4179 
z
" transform="scale(0.015625)"/>
      <path id="STIXGeneral-Regular-27e9" d="M 2067 1536 
L 749 -1363 
L 416 -1363 
L 1645 1600 
L 422 4563 
L 755 4563 
L 2067 1664 
L 2067 1536 
z
" transform="scale(0.015625)"/>
      <path id="STIXGeneral-Regular-3d" d="M 4077 2048 
L 307 2048 
L 307 2470 
L 4077 2470 
L 4077 2048 
z
M 4077 768 
L 307 768 
L 307 1190 
L 4077 1190 
L 4077 768 
z
" transform="scale(0.015625)"/>
      <path id="STIXGeneral-Regular-31" d="M 2522 0 
L 755 0 
L 755 96 
Q 1107 115 1235 227 
Q 1363 339 1363 608 
L 1363 3482 
Q 1363 3795 1171 3795 
Q 1082 3795 883 3718 
L 710 3654 
L 710 3744 
L 1856 4326 
L 1914 4307 
L 1914 486 
Q 1914 275 2042 185 
Q 2170 96 2522 96 
L 2522 0 
z
" transform="scale(0.015625)"/>
     </defs>
     <use xlink:href="#STIXGeneral-Regular-27e8" transform="translate(0 0.703125)"/>
     <use xlink:href="#STIXGeneral-Italic-55" transform="translate(39.999985 0.703125)"/>
     <use xlink:href="#STIXGeneral-Regular-28" transform="translate(112.199966 0.703125)"/>
     <use xlink:href="#STIXGeneral-Regular-303" transform="translate(194.47261 3.5)"/>
     <use xlink:href="#STIXGeneral-Italic-3b3" transform="translate(145.499954 0.703125)"/>
     <use xlink:href="#STIXGeneral-Regular-29" transform="translate(187.390579 0.703125)"/>
     <use xlink:href="#STIXGeneral-Regular-27e9" transform="translate(220.690567 0.703125)"/>
     <use xlink:href="#STIXGeneral-Regular-3d" transform="translate(275.130548 0.703125)"/>
     <use xlink:href="#STIXGeneral-Regular-31" transform="translate(358.070529 0.703125)"/>
    </g>
   </g>
   <g id="text_9">
    <!-- $\langle W(C)\,U(\tilde\gamma)\rangle=-\langle W(C)\rangle$ -->
    <g style="fill: #1a1a1a" transform="translate(221.516165 122.76891) scale(0.105 -0.105)">
     <defs>
      <path id="STIXGeneral-Italic-57" d="M 5798 4179 
L 5798 4077 
Q 5613 4019 5526 3936 
Q 5440 3853 5306 3597 
L 3379 -115 
L 3251 -115 
L 2931 2784 
L 2899 2784 
L 1478 -115 
L 1357 -115 
L 966 3174 
Q 915 3622 883 3766 
Q 851 3910 781 3981 
Q 717 4045 454 4077 
L 454 4179 
L 1958 4179 
L 1958 4077 
Q 1696 4051 1597 3987 
Q 1498 3923 1498 3750 
Q 1498 3667 1504 3622 
L 1786 1037 
L 2886 3264 
L 2835 3680 
Q 2810 3923 2723 3993 
Q 2637 4064 2355 4077 
L 2355 4179 
L 3866 4179 
L 3866 4077 
Q 3616 4051 3523 3987 
Q 3430 3923 3430 3770 
Q 3430 3750 3436 3715 
Q 3443 3680 3443 3674 
L 3699 1037 
L 4902 3373 
Q 5050 3654 5050 3808 
Q 5050 4070 4621 4077 
L 4621 4179 
L 5798 4179 
z
" transform="scale(0.015625)"/>
     </defs>
     <use xlink:href="#STIXGeneral-Regular-27e8" transform="translate(0 0.703125)"/>
     <use xlink:href="#STIXGeneral-Italic-57" transform="translate(39.999985 0.703125)"/>
     <use xlink:href="#STIXGeneral-Regular-28" transform="translate(123.299973 0.703125)"/>
     <use xlink:href="#STIXGeneral-Italic-43" transform="translate(156.59996 0.703125)"/>
     <use xlink:href="#STIXGeneral-Regular-29" transform="translate(223.299957 0.703125)"/>
     <use xlink:href="#STIXGeneral-Italic-55" transform="translate(268.633516 0.703125)"/>
     <use xlink:href="#STIXGeneral-Regular-28" transform="translate(340.833498 0.703125)"/>
     <use xlink:href="#STIXGeneral-Regular-303" transform="translate(423.106142 3.5)"/>
     <use xlink:href="#STIXGeneral-Italic-3b3" transform="translate(374.133485 0.703125)"/>
     <use xlink:href="#STIXGeneral-Regular-29" transform="translate(416.02411 0.703125)"/>
     <use xlink:href="#STIXGeneral-Regular-27e9" transform="translate(449.324098 0.703125)"/>
     <use xlink:href="#STIXGeneral-Regular-3d" transform="translate(503.764079 0.703125)"/>
     <use xlink:href="#STIXGeneral-Regular-2212" transform="translate(586.70406 0.703125)"/>
     <use xlink:href="#STIXGeneral-Regular-27e8" transform="translate(655.204045 0.703125)"/>
     <use xlink:href="#STIXGeneral-Italic-57" transform="translate(695.20403 0.703125)"/>
     <use xlink:href="#STIXGeneral-Regular-28" transform="translate(778.504018 0.703125)"/>
     <use xlink:href="#STIXGeneral-Italic-43" transform="translate(811.804006 0.703125)"/>
     <use xlink:href="#STIXGeneral-Regular-29" transform="translate(878.504002 0.703125)"/>
     <use xlink:href="#STIXGeneral-Regular-27e9" transform="translate(911.80399 0.703125)"/>
    </g>
   </g>
   <g id="text_10">
    <!-- (b) -->
    <g style="fill: #1a1a1a" transform="translate(201.95594 12.260325) scale(0.11 -0.11)">
     <defs>
      <path id="STIXGeneral-Regular-62" d="M 979 4358 
L 979 2406 
Q 1082 2650 1315 2797 
Q 1549 2944 1843 2944 
Q 2349 2944 2672 2541 
Q 2995 2138 2995 1536 
Q 2995 832 2566 384 
Q 2138 -64 1498 -64 
Q 1107 -64 774 67 
Q 442 198 442 358 
L 442 3622 
Q 442 3859 384 3926 
Q 326 3994 128 3994 
Q 83 3994 19 3981 
L 19 4090 
L 211 4147 
Q 864 4346 947 4371 
L 979 4358 
z
M 979 2035 
L 979 474 
Q 979 326 1161 233 
Q 1344 141 1600 141 
Q 1978 141 2195 416 
Q 2432 710 2432 1261 
Q 2432 1888 2182 2240 
Q 1971 2541 1613 2541 
Q 1357 2541 1168 2390 
Q 979 2240 979 2035 
z
" transform="scale(0.015625)"/>
     </defs>
     <use xlink:href="#STIXGeneral-Regular-28"/>
     <use xlink:href="#STIXGeneral-Regular-62" transform="translate(33.299988 0)"/>
     <use xlink:href="#STIXGeneral-Regular-29" transform="translate(83.299973 0)"/>
    </g>
   </g>
  </g>
 </g>
 <defs>
  <clipPath id="pe586624936">
   <rect x="2.88" y="2.88" width="362.7" height="126.808647"/>
  </clipPath>
 </defs>
</svg>
